<?xml version="1.0" encoding="utf-8"?>
<!-- Generator: Adobe Illustrator 16.0.4, SVG Export Plug-In . SVG Version: 6.00 Build 0)  -->
<!DOCTYPE svg PUBLIC "-//W3C//DTD SVG 1.1//EN" "http://www.w3.org/Graphics/SVG/1.1/DTD/svg11.dtd">
<svg version="1.1" id="CA" xmlns="http://www.w3.org/2000/svg" xmlns:xlink="http://www.w3.org/1999/xlink" x="0px" y="0px"
	 width="400px" height="400px" viewBox="0 0 400 400" enable-background="new 0 0 400 400" xml:space="preserve">
<style type="text/css">
    @media screen and (min-width: 400px) {
        #small {display: none;}
    }
    @media screen and (max-width: 399px) {
        #large {display: none;}
    }
</style>
<circle fill="#F05032" cx="200" cy="200" r="184"/>
<g id="large">
	<path id="outline" opacity="0.3" fill="#FFFFFF" d="M343.772,314.165l-0.796-3.314l-1.796-0.48l-2.055-1.233l-4.307-8.621
		l-6.254-6.381l-0.621-5.708l-4.212-0.566L171.449,155.025l0.515-113.485l-69.625,2.664C86.97,53.847,73.125,65.694,61.255,79.31
		l-0.992,6.788l-3.682,5.348l-0.018,1.903l-2.427,2.022l-0.467,7.175l0.125,5.387l6.085,5.375l4.318,5.861l3.291,5.06l2.264,10.22
		l-1.456,5.551l1.484,9.349l0.079,6.212l4.435,5.286l6.222,5.879l5.606,6.592l3.747,5.747l0.881,5.179l-0.295,0.895l0.9,3.276
		l11.521,7.407l0.281,3.986l-0.038,3.805l-0.177,3.302l3.783,12.784l4.869,4.896l4.132,3.202l4.492-0.42l2.69,3.868l-0.243,6.03
		l-2.583,3.421l-1.764,0.485l0.401,6.394l2.002,4.33l6.912,5.42l4.803,7.622l4.277,6.687l3.332,4.234l7.787,7.619l3.375,3.407
		l2.002,4.33l2.935,0.819l1.039,3.783l-0.43,3.369l0.273,11.851l0.076,3.231l4.958,3.247l6.759-1.045l7.818,0.834l6.95,1.614
		l4.536-1.246l5.853,3.541l6.11,6.454l2.731,3.043l6.948,1.615l7.908-0.818l3.168,2.654l2.395,4.765l-1.992,1.63l0.918,1.374
		l5.388-0.125l4.354-0.926l4.203-3.983l7.849,4.892l2.229,3.184l5.831,5.445l1.891,4.9l4.017,14.619l1.516,2.564l7.586-0.945
		c26.262-10.277,49.579-26.418,68.354-46.808l1.693-3.394l4.648-3.855c0.088-0.106,0.18-0.21,0.268-0.316L343.772,314.165z"/>
	<g>
		<path fill="#FFFFFF" d="M118.089,187.335c-0.092,2.763-0.645,5.249-1.658,7.367c-0.829,1.842-2.118,3.591-3.96,4.973
			c-1.842,1.474-4.328,2.302-7.643,2.302s-5.894-0.828-7.735-2.302c-1.842-1.381-3.039-3.131-3.868-4.973
			c-1.013-2.118-1.565-4.604-1.657-7.367v-39.874c0.092-2.67,0.645-5.157,1.657-7.275c0.829-1.842,2.026-3.683,3.868-5.064
			s4.42-2.302,7.735-2.302s5.801,0.921,7.643,2.302s3.131,3.223,3.96,5.064c1.013,2.118,1.565,4.604,1.658,7.275V187.335z
			 M108.144,147.461c0-1.842-0.368-3.131-1.289-4.236c-0.46-0.46-1.197-0.737-2.026-0.737c-1.75,0-2.579,1.29-2.947,2.486
			c-0.276,0.737-0.368,1.565-0.368,2.486v39.874c0,1.934,0.46,3.223,1.381,4.236c0.46,0.46,1.105,0.736,1.934,0.736
			c1.75,0,2.579-1.105,2.947-2.486c0.276-0.645,0.368-1.473,0.368-2.486V147.461z"/>
		<path fill="#FFFFFF" d="M135.308,165.971l-0.829-3.131h-0.552v38.4h-9.117v-67.684h8.84l9.669,35.269l0.829,3.131h0.553v-38.4
			h9.117v67.684h-8.84L135.308,165.971z"/>
		<path fill="#FFFFFF" d="M157.683,143.778v-10.222h28.731v10.222h-9.393v57.462h-9.945v-57.462H157.683z"/>
		<path fill="#FFFFFF" d="M185.493,201.24l10.222-67.684h12.155l10.222,67.684h-9.669l-1.842-13.813h-9.577l-1.842,13.813H185.493z
			 M202.346,155.565l-0.277-1.75h-0.553l-0.275,1.75l-2.855,21.364h6.815L202.346,155.565z"/>
		<path fill="#FFFFFF" d="M240.468,201.24l-5.156-28.547h-2.671v28.547h-9.945v-67.684h9.945c11.879,0,16.944,6.722,16.944,19.522
			c0,6.723-1.75,12.8-5.525,15.379l6.354,32.783H240.468z M232.641,163.485c1.381,0,3.223-0.185,4.696-1.474
			s2.671-3.775,2.671-8.564s-1.197-7.367-2.671-8.656s-3.315-1.381-4.696-1.381V163.485z"/>
		<path fill="#FFFFFF" d="M255.938,133.557h9.945v67.684h-9.945V133.557z"/>
		<path fill="#FFFFFF" d="M299.124,187.335c-0.092,2.763-0.645,5.249-1.657,7.367c-0.829,1.842-2.118,3.591-3.96,4.973
			c-1.842,1.474-4.328,2.302-7.643,2.302c-3.315,0-5.894-0.828-7.735-2.302c-1.842-1.381-3.039-3.131-3.868-4.973
			c-1.013-2.118-1.565-4.604-1.657-7.367v-39.874c0.092-2.67,0.645-5.157,1.657-7.275c0.829-1.842,2.026-3.683,3.868-5.064
			s4.42-2.302,7.735-2.302c3.314,0,5.801,0.921,7.643,2.302s3.131,3.223,3.96,5.064c1.013,2.118,1.565,4.604,1.657,7.275V187.335z
			 M289.179,147.461c0-1.842-0.368-3.131-1.289-4.236c-0.46-0.46-1.197-0.737-2.025-0.737c-1.75,0-2.579,1.29-2.947,2.486
			c-0.276,0.737-0.368,1.565-0.368,2.486v39.874c0,1.934,0.46,3.223,1.381,4.236c0.461,0.46,1.105,0.736,1.935,0.736
			c1.749,0,2.578-1.105,2.946-2.486c0.276-0.645,0.368-1.473,0.368-2.486V147.461z"/>
		<path fill="#FFFFFF" d="M313.856,201.24l-5.065,11.972h-4.604l3.223-11.972h-3.223v-10.222h9.669V201.24z"/>
		<path fill="#FFFFFF" d="M120.496,250.971v6.521c-0.064,1.938-0.452,3.681-1.162,5.165c-0.581,1.291-1.485,2.518-2.776,3.486
			c-1.292,1.033-3.034,1.614-5.358,1.614s-4.132-0.581-5.423-1.614c-1.291-0.969-2.13-2.195-2.711-3.486
			c-0.71-1.484-1.098-3.228-1.162-5.165v-27.954c0.064-1.872,0.452-3.615,1.162-5.101c0.581-1.291,1.42-2.582,2.711-3.551
			c1.292-0.968,3.099-1.613,5.423-1.613s4.067,0.646,5.358,1.613c1.291,0.969,2.195,2.26,2.776,3.551
			c0.71,1.485,1.098,3.229,1.162,5.101v6.521h-6.521v-6.521c0-1.291-0.323-2.195-1.033-2.97c-0.323-0.322-0.904-0.517-1.614-0.517
			c-1.227,0-1.808,0.904-2.13,1.743c-0.194,0.517-0.258,1.098-0.323,1.743v27.954c0.064,1.356,0.452,2.26,1.098,2.971
			c0.323,0.322,0.774,0.516,1.355,0.516c1.485,0,2.066-0.774,2.389-1.743c0.194-0.451,0.258-1.032,0.258-1.743v-6.521H120.496z"/>
		<path fill="#FFFFFF" d="M122.756,267.24l7.166-47.451h8.522l7.167,47.451h-6.779l-1.292-9.684h-6.714l-1.292,9.684H122.756z
			 M134.571,235.219l-0.193-1.227h-0.388l-0.193,1.227l-2.001,14.978h4.777L134.571,235.219z"/>
		<path fill="#FFFFFF" d="M148.84,219.789h6.972v40.995h9.232v6.456H148.84V219.789z"/>
		<path fill="#FFFFFF" d="M167.886,219.789h6.972v47.451h-6.972V219.789z"/>
		<path fill="#FFFFFF" d="M196.615,226.955h-9.62v12.46h6.456v7.166h-6.456v20.659h-6.972v-47.451h16.592V226.955z"/>
		<path fill="#FFFFFF" d="M217.598,257.491c-0.064,1.938-0.452,3.681-1.162,5.165c-0.581,1.291-1.484,2.518-2.776,3.486
			c-1.291,1.033-3.034,1.614-5.358,1.614s-4.132-0.581-5.423-1.614c-1.291-0.969-2.13-2.195-2.712-3.486
			c-0.709-1.484-1.097-3.228-1.162-5.165v-27.954c0.064-1.872,0.452-3.615,1.162-5.101c0.582-1.291,1.421-2.582,2.712-3.551
			c1.291-0.968,3.099-1.613,5.423-1.613s4.067,0.646,5.358,1.613c1.292,0.969,2.195,2.26,2.776,3.551
			c0.71,1.485,1.098,3.229,1.162,5.101V257.491z M210.625,229.537c0-1.291-0.258-2.195-0.903-2.97
			c-0.323-0.322-0.84-0.517-1.421-0.517c-1.227,0-1.808,0.904-2.065,1.743c-0.193,0.517-0.259,1.098-0.259,1.743v27.954
			c0,1.356,0.323,2.26,0.969,2.971c0.323,0.322,0.774,0.516,1.355,0.516c1.227,0,1.808-0.774,2.066-1.743
			c0.193-0.451,0.258-1.032,0.258-1.743V229.537z"/>
		<path fill="#FFFFFF" d="M234.771,267.24l-3.615-20.014h-1.872v20.014h-6.973v-47.451h6.973c8.328,0,11.879,4.713,11.879,13.687
			c0,4.713-1.227,8.974-3.873,10.781l4.454,22.983H234.771z M229.283,240.771c0.969,0,2.26-0.129,3.293-1.033
			c1.033-0.903,1.872-2.646,1.872-6.004c0-3.356-0.839-5.165-1.872-6.068c-1.033-0.904-2.324-0.969-3.293-0.969V240.771z"/>
		<path fill="#FFFFFF" d="M252.978,242.514l-0.581-2.195h-0.388v26.922h-6.392v-47.451h6.198l6.778,24.727l0.581,2.194h0.388
			v-26.921h6.392v47.451h-6.198L252.978,242.514z"/>
		<path fill="#FFFFFF" d="M271.119,219.789h6.973v47.451h-6.973V219.789z"/>
		<path fill="#FFFFFF" d="M281.32,267.24l7.166-47.451h8.522l7.166,47.451h-6.779l-1.291-9.684h-6.714l-1.291,9.684H281.32z
			 M293.135,235.219l-0.193-1.227h-0.388l-0.193,1.227l-2.002,14.978h4.777L293.135,235.219z"/>
	</g>
</g>
<g id="small">
	<path fill="#FFFFFF" d="M190.984,237.886v29.289c-0.29,8.7-2.03,16.529-5.22,23.199c-2.61,5.8-6.67,11.311-12.47,15.66
		c-5.8,4.64-13.63,7.25-24.069,7.25c-10.44,0-18.56-2.61-24.359-7.25c-5.8-4.35-9.57-9.86-12.18-15.66
		c-3.19-6.67-4.931-14.499-5.221-23.199V141.608c0.29-8.41,2.03-16.24,5.221-22.91c2.609-5.8,6.38-11.6,12.18-15.95
		c5.8-4.35,13.919-7.25,24.359-7.25c10.439,0,18.27,2.9,24.069,7.25c5.8,4.35,9.859,10.15,12.47,15.95
		c3.189,6.67,4.93,14.5,5.22,22.91v29.289h-29.289v-29.289c0-5.8-1.45-9.86-4.641-13.34c-1.449-1.45-4.06-2.32-7.249-2.32
		c-5.511,0-8.12,4.06-9.57,7.83c-0.87,2.32-1.16,4.93-1.45,7.83v125.567c0.29,6.09,2.03,10.149,4.931,13.34
		c1.449,1.45,3.479,2.32,6.09,2.32c6.67,0,9.279-3.48,10.729-7.83c0.87-2.03,1.16-4.64,1.16-7.83v-29.289H190.984z"/>
	<path fill="#FFFFFF" d="M201.135,310.964l32.188-213.145h38.279l32.189,213.145h-30.449l-5.8-43.499h-30.159l-5.8,43.499H201.135z
		 M254.203,167.127l-0.87-5.51h-1.74l-0.869,5.51l-8.99,67.278h21.46L254.203,167.127z"/>
</g>
</svg>
