<?xml version="1.0" encoding="utf-8"?>
<!-- Generator: Adobe Illustrator 16.0.4, SVG Export Plug-In . SVG Version: 6.00 Build 0)  -->
<!DOCTYPE svg PUBLIC "-//W3C//DTD SVG 1.1//EN" "http://www.w3.org/Graphics/SVG/1.1/DTD/svg11.dtd">
<svg version="1.1" id="OH" xmlns="http://www.w3.org/2000/svg" xmlns:xlink="http://www.w3.org/1999/xlink" x="0px" y="0px"
	 width="400px" height="400px" viewBox="0 0 400 400" enable-background="new 0 0 400 400" xml:space="preserve">
<style type="text/css">
    @media screen and (min-width: 400px) {
        #small {display: none;}
    }
    @media screen and (max-width: 399px) {
        #large {display: none;}
    }
</style>
<circle fill="#AAC016" cx="200" cy="200" r="184"/>
<g id="large">
	<path id="outline" opacity="0.1" d="M332.123,191.708l-2.509-11.685l1.867-4.494l7.769-6.064l-5.124-36.233L331.54,71.52
		c-3.352-3.426-6.832-6.725-10.44-9.882l-15.645,8.14l-16.075,7.194l-14.796,13.07l-17.386,13.429l-12.944,1.791l-11.544,0.67
		l-22.517,7.777l-8.261-0.25l-11.943-13.402l-20.438,0.349l-9.473-6.759l-8.715-6.264l-19.369,0.69l-40.383,2.025l-41.675,3.561
		c-1.026,1.443-2.026,2.908-3.011,4.382l-1.022,53.448l1.164,54.312l0.245,92.471l0.043,4.659
		c3.573,5.296,7.422,10.391,11.512,15.275l4.745,0.36l9.795-2.13l12.48,7.271l6.238,17.887l20.044,2.089l6.485,9.056l6.892,0.484
		l10.458-4.162l9.609,2.499l20.93,4.156l7.63-7.589l9.687-4.058l8.358-1.787l1.366,10.988l6.525,4.526l12.565,10.598l8.542,0.604
		l5.403-1.359l1.878-10.688l6.791-5.008l2.401-18.644l5.715-15.59l5.318-1.801l4.67,5.034l1.385,6.841l7.136-3.325l2.326-5.507
		l-3.556-7.893l1.23-8.995l3.371-3.867l9.782-11.98l4.739-5.578l7.989,2.773l9.505-5.351l13.398-11.944l12.516-14.742l3.371-19.569
		l3.996-19.335L332.123,191.708z"/>
	<g>
		<path fill="#FFFFFF" d="M81.763,178.034v9.301c-0.092,2.763-0.645,5.249-1.658,7.367c-0.829,1.842-2.118,3.591-3.96,4.973
			c-1.842,1.474-4.328,2.302-7.643,2.302s-5.894-0.828-7.735-2.302c-1.842-1.381-3.039-3.131-3.868-4.973
			c-1.013-2.118-1.565-4.604-1.657-7.367v-39.874c0.092-2.67,0.645-5.157,1.657-7.275c0.829-1.842,2.026-3.683,3.868-5.064
			s4.42-2.302,7.735-2.302s5.801,0.921,7.643,2.302s3.131,3.223,3.96,5.064c1.013,2.118,1.565,4.604,1.658,7.275v9.301h-9.301
			v-9.301c0-1.842-0.46-3.131-1.474-4.236c-0.46-0.46-1.289-0.737-2.302-0.737c-1.75,0-2.578,1.29-3.039,2.486
			c-0.276,0.737-0.369,1.565-0.46,2.486v39.874c0.092,1.934,0.645,3.223,1.565,4.236c0.46,0.46,1.105,0.736,1.934,0.736
			c2.118,0,2.947-1.105,3.407-2.486c0.276-0.645,0.369-1.473,0.369-2.486v-9.301H81.763z"/>
		<path fill="#FFFFFF" d="M87.748,133.557h9.945v67.684h-9.945V133.557z"/>
		<path fill="#FFFFFF" d="M115.556,165.971l-0.829-3.131h-0.552v38.4h-9.117v-67.684h8.84l9.669,35.269l0.829,3.131h0.553v-38.4
			h9.117v67.684h-8.84L115.556,165.971z"/>
		<path fill="#FFFFFF" d="M167.308,178.034v9.301c-0.092,2.763-0.645,5.249-1.658,7.367c-0.829,1.842-2.118,3.591-3.96,4.973
			c-1.841,1.474-4.328,2.302-7.643,2.302s-5.894-0.828-7.735-2.302c-1.842-1.381-3.039-3.131-3.868-4.973
			c-1.013-2.118-1.565-4.604-1.657-7.367v-39.874c0.092-2.67,0.645-5.157,1.657-7.275c0.829-1.842,2.026-3.683,3.868-5.064
			s4.42-2.302,7.735-2.302s5.802,0.921,7.643,2.302c1.842,1.381,3.131,3.223,3.96,5.064c1.013,2.118,1.565,4.604,1.658,7.275v9.301
			h-9.301v-9.301c0-1.842-0.46-3.131-1.474-4.236c-0.46-0.46-1.289-0.737-2.302-0.737c-1.75,0-2.578,1.29-3.039,2.486
			c-0.276,0.737-0.369,1.565-0.46,2.486v39.874c0.092,1.934,0.645,3.223,1.565,4.236c0.46,0.46,1.105,0.736,1.934,0.736
			c2.118,0,2.947-1.105,3.407-2.486c0.276-0.645,0.369-1.473,0.369-2.486v-9.301H167.308z"/>
		<path fill="#FFFFFF" d="M173.292,133.557h9.945v67.684h-9.945V133.557z"/>
		<path fill="#FFFFFF" d="M201.101,165.971l-0.829-3.131h-0.552v38.4h-9.117v-67.684h8.84l9.669,35.269l0.829,3.131h0.552v-38.4
			h9.117v67.684h-8.841L201.101,165.971z"/>
		<path fill="#FFFFFF" d="M237.474,165.971l-0.829-3.131h-0.553v38.4h-9.116v-67.684h8.84l9.67,35.269l0.828,3.131h0.553v-38.4
			h9.116v67.684h-8.84L237.474,165.971z"/>
		<path fill="#FFFFFF" d="M260.585,201.24l10.222-67.684h12.155l10.222,67.684h-9.669l-1.842-13.813h-9.577l-1.842,13.813H260.585z
			 M277.437,155.565l-0.276-1.75h-0.552l-0.276,1.75l-2.854,21.364h6.814L277.437,155.565z"/>
		<path fill="#FFFFFF" d="M292.264,143.778v-10.222h28.73v10.222h-9.393v57.462h-9.945v-57.462H292.264z"/>
		<path fill="#FFFFFF" d="M324.861,133.557h9.945v67.684h-9.945V133.557z"/>
		<path fill="#FFFFFF" d="M350.184,201.24l-5.065,11.972h-4.604l3.223-11.972h-3.223v-10.222h9.669V201.24z"/>
		<path fill="#FFFFFF" d="M181.83,257.491c-0.064,1.938-0.452,3.681-1.162,5.165c-0.581,1.291-1.485,2.518-2.776,3.486
			c-1.292,1.033-3.034,1.614-5.358,1.614s-4.132-0.581-5.423-1.614c-1.291-0.969-2.13-2.195-2.711-3.486
			c-0.71-1.484-1.098-3.228-1.162-5.165v-27.954c0.064-1.872,0.452-3.615,1.162-5.101c0.581-1.291,1.42-2.582,2.711-3.551
			c1.292-0.968,3.099-1.613,5.423-1.613s4.067,0.646,5.358,1.613c1.291,0.969,2.195,2.26,2.776,3.551
			c0.71,1.485,1.098,3.229,1.162,5.101V257.491z M174.858,229.537c0-1.291-0.258-2.195-0.904-2.97
			c-0.323-0.322-0.839-0.517-1.42-0.517c-1.227,0-1.808,0.904-2.066,1.743c-0.194,0.517-0.258,1.098-0.258,1.743v27.954
			c0,1.356,0.323,2.26,0.968,2.971c0.323,0.322,0.775,0.516,1.356,0.516c1.227,0,1.808-0.774,2.066-1.743
			c0.193-0.451,0.258-1.032,0.258-1.743V229.537z"/>
		<path fill="#FFFFFF" d="M198.939,246.581h-5.423v20.659h-6.972v-47.451h6.972v19.626h5.423v-19.626h6.973v47.451h-6.973V246.581z"
			/>
		<path fill="#FFFFFF" d="M211.077,219.789h6.973v47.451h-6.973V219.789z"/>
		<path fill="#FFFFFF" d="M241.356,257.491c-0.064,1.938-0.452,3.681-1.162,5.165c-0.581,1.291-1.484,2.518-2.776,3.486
			c-1.291,1.033-3.034,1.614-5.358,1.614s-4.132-0.581-5.423-1.614c-1.291-0.969-2.13-2.195-2.711-3.486
			c-0.711-1.484-1.098-3.228-1.162-5.165v-27.954c0.064-1.872,0.451-3.615,1.162-5.101c0.581-1.291,1.42-2.582,2.711-3.551
			c1.291-0.968,3.099-1.613,5.423-1.613s4.067,0.646,5.358,1.613c1.292,0.969,2.195,2.26,2.776,3.551
			c0.71,1.485,1.098,3.229,1.162,5.101V257.491z M234.384,229.537c0-1.291-0.258-2.195-0.903-2.97
			c-0.323-0.322-0.84-0.517-1.421-0.517c-1.227,0-1.808,0.904-2.065,1.743c-0.193,0.517-0.259,1.098-0.259,1.743v27.954
			c0,1.356,0.323,2.26,0.969,2.971c0.323,0.322,0.774,0.516,1.355,0.516c1.227,0,1.808-0.774,2.066-1.743
			c0.193-0.451,0.258-1.032,0.258-1.743V229.537z"/>
	</g>
</g>
<g id="small">
	<path fill="#FFFFFF" d="M122.255,310.614l-20.01-133.977l-1.16-8.99h-1.74v142.967H70.346V97.469h38.279l18.56,97.438l1.45,11.31
		h0.58l1.449-11.31l18.56-97.438h38.279v213.145h-28.999V167.647h-1.74l-1.16,8.99l-20.009,133.977H122.255z"/>
	<path fill="#FFFFFF" d="M255.653,310.614h-24.359l-28.71-213.145h29l12.47,110.778l0.58,6.959h2.319l0.87-6.959l13.34-110.778
		h22.619l13.34,110.778l0.87,6.959h2.32l0.58-6.959l12.47-110.778h28.999l-28.71,213.145h-24.359l-14.499-100.918l-1.74-12.469
		h-1.16l-1.739,12.469L255.653,310.614z"/>
</g>
</svg>
