<?xml version="1.0" encoding="utf-8"?>
<!-- Generator: Adobe Illustrator 16.0.4, SVG Export Plug-In . SVG Version: 6.00 Build 0)  -->
<!DOCTYPE svg PUBLIC "-//W3C//DTD SVG 1.1//EN" "http://www.w3.org/Graphics/SVG/1.1/DTD/svg11.dtd">
<svg version="1.1" id="TX" xmlns="http://www.w3.org/2000/svg" xmlns:xlink="http://www.w3.org/1999/xlink" x="0px" y="0px"
	 width="400px" height="400px" viewBox="0 0 400 400" enable-background="new 0 0 400 400" xml:space="preserve">
<style type="text/css">
    @media screen and (min-width: 400px) {
        #small {display: none;}
    }
    @media screen and (max-width: 399px) {
        #large {display: none;}
    }
</style>
<circle fill="#9248B8" cx="200" cy="200" r="184"/>
<g id="large">
	<polyline opacity="0.2" fill="#FFFFFF" points="54.21,74.384 102.728,75.037 133.417,74.514 200.507,71.002 229.432,67.972 
		231.546,71.905 238.646,77.3 241.481,81.248 243.257,81.97 241.456,85.525 240.714,89.445 240.67,96.583 242.053,104.082 
		243.463,105.876 245.562,113.38 247.676,117.317 248.725,120.89 253.7,124.487 257.242,128.439 261.15,130.955 262.557,134.535 
		271.797,140.297 275.347,143.174 277.468,146.758 281.286,163.191 284.12,166.774 288.051,165.729 290.216,162.176 
		292.001,161.829 295.919,163.28 299.479,163.661 306.588,168.341 306.578,169.769 304.053,174.389 304.37,180.816 301.483,186.51 
		299.658,192.919 297.496,196.473 297.114,200.394 297.809,203.966 304.538,211.498 315.552,219.057 317.695,219.069 
		318.378,223.715 322.313,221.955 328.712,225.922 330.826,229.854 334.382,232.374 338.298,233.83 338.959,242.037 
		343.196,249.199 342.462,253.12 339.94,257.03 344.53,264.548 350.194,272.074 353.771,270.315 359.101,273.203 359.796,276.416 
		359.057,280.335 360.098,285.695 356.508,288.527 358.273,292.104 356.454,297.444 352.545,295.994 348.604,297.755 
		347.511,302.384 343.921,305.217 344.655,302.368 342.891,298.789 341.44,302.706 342.132,306.634 343.533,310.214 
		339.604,311.612 341.719,315.551 336.698,319.085 340.246,322.679 338.08,326.231 335.548,332.284 308.777,334.971 
		307.016,331.035 308.822,327.479 311.696,323.572 315.639,321.452 318.512,317.909 318.535,313.98 317.486,310.407 
		314.657,306.824 311.104,304.662 227.586,309.5 154.427,312.26 108.397,313.046 107.864,284.144 105.77,160.326 101.863,157.451 
		98.661,156.363 92.996,149.189 93.02,145.266 88.76,142.384 85.218,137.727 83.811,134.147 88.132,128.11 89.581,124.553 
		93.503,124.934 93.867,123.862 93.175,119.933 90.702,115.994 87.854,114.906 84.272,117.381 73.976,109.47 69.712,106.235 
		70.092,102.666 67.26,99.082 66.567,95.153 63.022,92.634 59.831,89.043 57.377,81.896 54.186,78.31 54.21,74.384 	"/>
	<g>
		<path fill="#FFFFFF" d="M104.224,153.897c0-2.112-0.088-4.488-0.704-6.335c-0.616-1.76-1.584-2.992-3.08-2.992
			c-2.464,0.088-3.256,2.64-3.256,6.424c0,2.2,0.968,4.488,2.376,6.952c1.408,2.464,3.256,5.016,5.104,7.744
			c2.2,3.256,4.4,6.6,6.072,9.855s2.816,6.6,2.816,10.12c0,4.312-0.704,8.36-2.728,11.352c-2.024,2.992-5.28,4.928-10.472,4.928
			c-6.072,0-9.503-2.288-11.439-5.808c-1.936-3.52-2.376-8.184-2.376-13.023l9.328-0.88c0,2.728,0.088,5.456,0.792,7.479
			c0.616,2.112,1.672,3.52,3.696,3.52c2.816,0,3.872-2.992,3.872-7.128c0-2.112-1.056-4.576-2.464-7.127
			c-0.792-1.232-1.584-2.552-2.464-3.872c-1.848-2.64-3.872-5.632-5.984-8.888s-3.696-6.6-4.664-10.032
			c-0.528-1.672-0.792-3.432-0.792-5.192c0-3.52,0.792-7.304,2.816-10.208c2.024-2.816,5.104-4.84,9.592-4.928
			c5.72-0.088,9.064,2.288,10.912,5.72c1.848,3.52,2.376,7.832,2.376,11.439L104.224,153.897z"/>
		<path fill="#FFFFFF" d="M115.312,146.33v-9.768h27.456v9.768h-8.976v54.91h-9.503v-54.91H115.312z"/>
		<path fill="#FFFFFF" d="M145.231,191.473h9.24v9.768h-9.24V191.473z"/>
		<path fill="#FFFFFF" d="M173.831,136.562h9.503v55.878h12.584v8.8h-22.087V136.562z"/>
		<path fill="#FFFFFF" d="M224.518,187.953c-0.088,2.64-0.616,5.016-1.584,7.04c-0.792,1.76-2.023,3.432-3.784,4.752
			c-1.76,1.408-4.136,2.2-7.304,2.2s-5.632-0.792-7.392-2.2c-1.76-1.32-2.903-2.992-3.696-4.752
			c-0.967-2.024-1.496-4.399-1.583-7.04V149.85c0.088-2.552,0.616-4.928,1.583-6.952c0.793-1.76,1.937-3.52,3.696-4.84
			s4.224-2.2,7.392-2.2s5.544,0.88,7.304,2.2c1.761,1.32,2.992,3.08,3.784,4.84c0.968,2.024,1.496,4.4,1.584,6.952V187.953z
			 M215.014,149.85c0-1.76-0.352-2.992-1.231-4.048c-0.44-0.44-1.145-0.704-1.937-0.704c-1.672,0-2.464,1.232-2.815,2.376
			c-0.264,0.704-0.353,1.496-0.353,2.376v38.103c0,1.848,0.44,3.08,1.32,4.048c0.44,0.44,1.056,0.704,1.848,0.704
			c1.672,0,2.464-1.056,2.816-2.376c0.264-0.616,0.352-1.408,0.352-2.376V149.85z"/>
		<path fill="#FFFFFF" d="M256.197,136.562v51.391c-0.088,2.64-0.616,5.016-1.584,7.04c-0.792,1.76-2.024,3.432-3.784,4.752
			c-1.76,1.408-4.136,2.2-7.304,2.2s-5.632-0.792-7.392-2.2c-1.76-1.32-2.904-2.992-3.696-4.752
			c-0.968-2.024-1.496-4.399-1.584-7.04v-51.391h9.504v51.391c0,1.848,0.44,3.08,1.32,4.048c0.439,0.44,1.056,0.704,1.848,0.704
			c1.672,0,2.464-1.056,2.816-2.376c0.264-0.616,0.352-1.408,0.352-2.376v-51.391H256.197z"/>
		<path fill="#FFFFFF" d="M263.149,136.562h9.504v64.678h-9.504V136.562z"/>
		<path fill="#FFFFFF" d="M295.444,153.897c0-2.112-0.088-4.488-0.704-6.335c-0.616-1.76-1.584-2.992-3.08-2.992
			c-2.464,0.088-3.256,2.64-3.256,6.424c0,2.2,0.968,4.488,2.376,6.952s3.256,5.016,5.104,7.744c2.2,3.256,4.4,6.6,6.072,9.855
			s2.816,6.6,2.816,10.12c0,4.312-0.704,8.36-2.729,11.352c-2.023,2.992-5.279,4.928-10.472,4.928
			c-6.071,0-9.504-2.288-11.439-5.808c-1.936-3.52-2.376-8.184-2.376-13.023l9.328-0.88c0,2.728,0.088,5.456,0.792,7.479
			c0.615,2.112,1.672,3.52,3.695,3.52c2.816,0,3.872-2.992,3.872-7.128c0-2.112-1.056-4.576-2.464-7.127
			c-0.792-1.232-1.584-2.552-2.464-3.872c-1.848-2.64-3.872-5.632-5.984-8.888c-2.111-3.256-3.695-6.6-4.663-10.032
			c-0.528-1.672-0.792-3.432-0.792-5.192c0-3.52,0.792-7.304,2.815-10.208c2.024-2.816,5.104-4.84,9.592-4.928
			c5.72-0.088,9.063,2.288,10.912,5.72c1.848,3.52,2.376,7.832,2.376,11.439L295.444,153.897z"/>
		<path fill="#FFFFFF" d="M317.531,201.24l-4.84,11.439h-4.4l3.08-11.439h-3.08v-9.768h9.24V201.24z"/>
		<path fill="#FFFFFF" d="M131.634,267.24l-4.455-29.827l-0.258-2.001h-0.387v31.828h-6.456v-47.451h8.522l4.132,21.691l0.323,2.519
			h0.129l0.323-2.519l4.132-21.691h8.522v47.451h-6.456v-31.828h-0.387l-0.258,2.001l-4.455,29.827H131.634z"/>
		<path fill="#FFFFFF" d="M151.326,219.789h6.972v47.451h-6.972V219.789z"/>
		<path fill="#FFFFFF" d="M175.02,232.507c0-1.549-0.064-3.292-0.517-4.648c-0.452-1.291-1.162-2.194-2.26-2.194
			c-1.808,0.064-2.389,1.937-2.389,4.713c0,1.613,0.71,3.292,1.743,5.1c1.033,1.808,2.389,3.68,3.745,5.682
			c1.614,2.389,3.228,4.842,4.455,7.23s2.066,4.842,2.066,7.425c0,3.163-0.517,6.133-2.001,8.328
			c-1.485,2.194-3.874,3.615-7.683,3.615c-4.455,0-6.972-1.679-8.393-4.261c-1.42-2.583-1.743-6.005-1.743-9.556l6.843-0.646
			c0,2.002,0.064,4.003,0.581,5.488c0.452,1.549,1.227,2.582,2.711,2.582c2.066,0,2.841-2.195,2.841-5.229
			c0-1.549-0.775-3.356-1.808-5.229c-0.581-0.903-1.162-1.872-1.808-2.84c-1.356-1.938-2.841-4.132-4.39-6.521
			c-1.549-2.389-2.711-4.842-3.422-7.359c-0.387-1.227-0.581-2.518-0.581-3.809c0-2.583,0.581-5.359,2.066-7.489
			c1.485-2.066,3.745-3.551,7.037-3.615c4.196-0.064,6.65,1.679,8.005,4.196c1.356,2.582,1.743,5.746,1.743,8.393L175.02,232.507z"
			/>
		<path fill="#FFFFFF" d="M197.164,232.507c0-1.549-0.064-3.292-0.517-4.648c-0.452-1.291-1.162-2.194-2.26-2.194
			c-1.808,0.064-2.389,1.937-2.389,4.713c0,1.613,0.71,3.292,1.743,5.1c1.033,1.808,2.389,3.68,3.745,5.682
			c1.614,2.389,3.228,4.842,4.455,7.23s2.066,4.842,2.066,7.425c0,3.163-0.518,6.133-2.002,8.328
			c-1.484,2.194-3.874,3.615-7.683,3.615c-4.455,0-6.972-1.679-8.393-4.261c-1.42-2.583-1.743-6.005-1.743-9.556l6.843-0.646
			c0,2.002,0.064,4.003,0.581,5.488c0.452,1.549,1.227,2.582,2.711,2.582c2.066,0,2.841-2.195,2.841-5.229
			c0-1.549-0.775-3.356-1.808-5.229c-0.581-0.903-1.162-1.872-1.808-2.84c-1.356-1.938-2.841-4.132-4.39-6.521
			c-1.549-2.389-2.711-4.842-3.422-7.359c-0.387-1.227-0.581-2.518-0.581-3.809c0-2.583,0.581-5.359,2.066-7.489
			c1.485-2.066,3.745-3.551,7.037-3.615c4.196-0.064,6.649,1.679,8.005,4.196c1.356,2.582,1.744,5.746,1.744,8.393L197.164,232.507z
			"/>
		<path fill="#FFFFFF" d="M225.894,257.491c-0.064,1.938-0.452,3.681-1.162,5.165c-0.581,1.291-1.484,2.518-2.776,3.486
			c-1.291,1.033-3.034,1.614-5.358,1.614s-4.132-0.581-5.423-1.614c-1.291-0.969-2.13-2.195-2.711-3.486
			c-0.711-1.484-1.098-3.228-1.162-5.165v-27.954c0.064-1.872,0.451-3.615,1.162-5.101c0.581-1.291,1.42-2.582,2.711-3.551
			c1.291-0.968,3.099-1.613,5.423-1.613s4.067,0.646,5.358,1.613c1.292,0.969,2.195,2.26,2.776,3.551
			c0.71,1.485,1.098,3.229,1.162,5.101V257.491z M218.921,229.537c0-1.291-0.258-2.195-0.903-2.97
			c-0.323-0.322-0.84-0.517-1.421-0.517c-1.227,0-1.808,0.904-2.065,1.743c-0.193,0.517-0.259,1.098-0.259,1.743v27.954
			c0,1.356,0.323,2.26,0.969,2.971c0.323,0.322,0.774,0.516,1.355,0.516c1.227,0,1.808-0.774,2.066-1.743
			c0.193-0.451,0.258-1.032,0.258-1.743V229.537z"/>
		<path fill="#FFFFFF" d="M249.136,219.789v37.702c-0.064,1.938-0.452,3.681-1.162,5.165c-0.581,1.291-1.485,2.518-2.776,3.486
			c-1.291,1.033-3.034,1.614-5.358,1.614s-4.132-0.581-5.423-1.614c-1.291-0.969-2.131-2.195-2.712-3.486
			c-0.71-1.484-1.098-3.228-1.162-5.165v-37.702h6.973v37.702c0,1.356,0.323,2.26,0.969,2.971c0.322,0.322,0.774,0.516,1.355,0.516
			c1.227,0,1.808-0.774,2.066-1.743c0.193-0.451,0.258-1.032,0.258-1.743v-37.702H249.136z"/>
		<path fill="#FFFFFF" d="M266.696,267.24l-3.615-20.014h-1.872v20.014h-6.973v-47.451h6.973c8.328,0,11.879,4.713,11.879,13.687
			c0,4.713-1.227,8.974-3.873,10.781l4.454,22.983H266.696z M261.209,240.771c0.969,0,2.26-0.129,3.293-1.033
			c1.033-0.903,1.872-2.646,1.872-6.004c0-3.356-0.839-5.165-1.872-6.068c-1.033-0.904-2.324-0.969-3.293-0.969V240.771z"/>
		<path fill="#FFFFFF" d="M277.543,219.789h6.973v47.451h-6.973V219.789z"/>
	</g>
</g>
<g id="small">
	<path fill="#FFFFFF" d="M144.296,310.964l-20.01-133.977l-1.16-8.99h-1.74v142.967H92.387V97.819h38.279l18.56,97.438l1.45,11.31
		h0.58l1.449-11.31l18.56-97.438h38.279v213.145h-28.999V167.997h-1.74l-1.16,8.99l-20.009,133.977H144.296z"/>
	<path fill="#FFFFFF" d="M314.233,267.175c-0.29,8.7-2.03,16.529-5.22,23.199c-2.61,5.8-6.67,11.311-12.47,15.66
		c-5.8,4.64-13.63,7.25-24.069,7.25c-10.44,0-18.56-2.61-24.359-7.25c-5.8-4.35-9.57-9.86-12.18-15.66
		c-3.19-6.67-4.931-14.499-5.221-23.199V141.608c0.29-8.41,2.03-16.24,5.221-22.91c2.609-5.8,6.38-11.6,12.18-15.95
		c5.8-4.35,13.919-7.25,24.359-7.25c10.439,0,18.27,2.9,24.069,7.25c5.8,4.35,9.859,10.15,12.47,15.95
		c3.189,6.67,4.93,14.5,5.22,22.91V267.175z M282.914,141.608c0-5.8-1.16-9.86-4.06-13.34c-1.45-1.45-3.771-2.32-6.38-2.32
		c-5.51,0-8.12,4.06-9.28,7.83c-0.87,2.32-1.16,4.93-1.16,7.83v125.567c0,6.09,1.45,10.149,4.351,13.34
		c1.449,1.45,3.479,2.32,6.09,2.32c5.51,0,8.119-3.48,9.279-7.83c0.87-2.03,1.16-4.64,1.16-7.83V141.608z"/>
</g>
</svg>
