<?xml version="1.0" encoding="utf-8"?>
<!-- Generator: Adobe Illustrator 16.0.4, SVG Export Plug-In . SVG Version: 6.00 Build 0)  -->
<!DOCTYPE svg PUBLIC "-//W3C//DTD SVG 1.1//EN" "http://www.w3.org/Graphics/SVG/1.1/DTD/svg11.dtd">
<svg version="1.1" id="SC" xmlns="http://www.w3.org/2000/svg" xmlns:xlink="http://www.w3.org/1999/xlink" x="0px" y="0px"
	 width="400px" height="400px" viewBox="0 0 400 400" enable-background="new 0 0 400 400" xml:space="preserve">
<style type="text/css">
    @media screen and (min-width: 400px) {
        #small {display: none;}
    }
    @media screen and (max-width: 399px) {
        #large {display: none;}
    }
</style>
<circle fill="#00446A" cx="200" cy="200" r="184"/>
<g id="large">
	<path id="outline" opacity="0.2" fill="#FFFFFF" d="M377.056,149.92l-18.382-14.768l-55.864-33.665l-12.893-3.578l-55.865,6.442
		l-19.058,2.704l-7.442-14.879l-11.685-8.315l-71.393,1.869l-34.447,3.582l-40.385,20.331l-12.656,5.127
		c-6.984,13.304-12.387,27.565-15.959,42.54l16.783,10.07l15.043-0.714l15.039,22.917l2.15,6.447l10.742,12.889l2.146,6.445
		l20.053,7.88l13.611,10.029l10.025,12.892l10.029,5.729l9.311,8.592l5.727,11.462l9.312,8.594l18.621,8.596l12.176,26.5
		l7.165,21.485l11.46,2.864l10.025,9.311l5.728,15.757l2.869,9.311l10.872,5.439c0.629-0.139,1.259-0.271,1.885-0.416l6.574-3.587
		l9.311-5.728l22.202-24.354l-4.299-14.326l12.893-0.714l15.757-15.043l7.164-3.578l10.025-15.044l12.175-12.174l9.311-15.757
		l10.742-2.865l5.015-12.175l7.166-3.583l2.146-27.932l11.461-27.213l4.329-4.36C383.073,176.798,380.777,163.061,377.056,149.92z"
		/>
	<g>
		<path fill="#FFFFFF" d="M76.19,157.867v-10.406c0-1.842-0.368-3.131-1.289-4.236c-0.46-0.46-1.197-0.737-2.026-0.737
			c-1.75,0-2.579,1.29-2.947,2.486c-0.276,0.737-0.368,1.565-0.368,2.486v40.703c0,1.934,0.46,3.223,1.381,4.236
			c0.46,0.46,1.105,0.737,1.934,0.737c1.75,0,2.579-1.105,2.947-2.486c0.276-0.645,0.368-1.474,0.368-2.486v-12.248h-3.959v-8.38
			h13.905v33.704h-5.894l-1.197-3.223c-1.842,2.302-4.512,3.959-7.735,3.959s-5.433-0.828-7.091-2.302
			c-1.657-1.381-2.763-3.131-3.499-4.973c-0.829-2.118-1.197-4.604-1.105-7.367v-39.874c0.092-2.67,0.645-5.157,1.657-7.275
			c0.829-1.842,2.026-3.683,3.868-5.064s4.42-2.302,7.735-2.302s5.801,0.921,7.643,2.302s3.131,3.223,3.96,5.064
			c1.013,2.118,1.565,4.604,1.658,7.275v10.406H76.19z"/>
		<path fill="#FFFFFF" d="M111.182,201.24l-5.157-28.547h-2.67v28.547h-9.945v-67.684h9.945c11.879,0,16.944,6.722,16.944,19.522
			c0,6.723-1.75,12.8-5.525,15.379l6.354,32.783H111.182z M103.354,163.485c1.381,0,3.223-0.185,4.696-1.474
			c1.474-1.289,2.67-3.775,2.67-8.564s-1.197-7.367-2.67-8.656c-1.473-1.289-3.315-1.381-4.696-1.381V163.485z"/>
		<path fill="#FFFFFF" d="M126.651,133.557h22.745v10.222h-12.8v17.772h9.208v10.866h-9.208v18.602h12.8v10.222h-22.745V133.557z"/>
		<path fill="#FFFFFF" d="M154.92,133.557h22.745v10.222h-12.8v17.772h9.208v10.866h-9.208v18.602h12.8v10.222H154.92V133.557z"/>
		<path fill="#FFFFFF" d="M193.687,165.971l-0.829-3.131h-0.552v38.4h-9.117v-67.684h8.84l9.669,35.269l0.828,3.131h0.553v-38.4
			h9.116v67.684h-8.84L193.687,165.971z"/>
		<path fill="#FFFFFF" d="M237.611,133.557h9.669l-10.313,67.684h-9.945l-10.313-67.684h9.669l4.973,37.203l0.368,2.855h0.553
			l0.368-2.855L237.611,133.557z"/>
		<path fill="#FFFFFF" d="M251.791,133.557h9.945v67.684h-9.945V133.557z"/>
		<path fill="#FFFFFF" d="M269.102,133.557h9.945v58.475h13.168v9.208h-23.113V133.557z"/>
		<path fill="#FFFFFF" d="M296.267,133.557h9.945v58.475h13.168v9.208h-23.113V133.557z"/>
		<path fill="#FFFFFF" d="M323.432,133.557h22.745v10.222h-12.8v17.772h9.209v10.866h-9.209v18.602h12.8v10.222h-22.745V133.557z"/>
		<path fill="#FFFFFF" d="M67.943,232.507c0-1.549-0.064-3.292-0.517-4.648c-0.452-1.291-1.162-2.194-2.259-2.194
			c-1.808,0.064-2.389,1.937-2.389,4.713c0,1.613,0.71,3.292,1.743,5.1c1.033,1.808,2.389,3.68,3.745,5.682
			c1.614,2.389,3.228,4.842,4.455,7.23s2.066,4.842,2.066,7.425c0,3.163-0.517,6.133-2.001,8.328
			c-1.485,2.194-3.874,3.615-7.683,3.615c-4.455,0-6.972-1.679-8.393-4.261c-1.42-2.583-1.743-6.005-1.743-9.556l6.843-0.646
			c0,2.002,0.064,4.003,0.581,5.488c0.452,1.549,1.227,2.582,2.711,2.582c2.066,0,2.841-2.195,2.841-5.229
			c0-1.549-0.775-3.356-1.808-5.229c-0.581-0.903-1.162-1.872-1.808-2.84c-1.356-1.938-2.841-4.132-4.39-6.521
			c-1.549-2.389-2.711-4.842-3.422-7.359c-0.387-1.227-0.581-2.518-0.581-3.809c0-2.583,0.581-5.359,2.066-7.489
			c1.485-2.066,3.745-3.551,7.037-3.615c4.196-0.064,6.65,1.679,8.005,4.196c1.356,2.582,1.743,5.746,1.743,8.393L67.943,232.507z"
			/>
		<path fill="#FFFFFF" d="M96.672,257.491c-0.064,1.938-0.452,3.681-1.162,5.165c-0.581,1.291-1.485,2.518-2.776,3.486
			c-1.291,1.033-3.034,1.614-5.358,1.614s-4.132-0.581-5.423-1.614c-1.291-0.969-2.13-2.195-2.711-3.486
			c-0.71-1.484-1.098-3.228-1.162-5.165v-27.954c0.064-1.872,0.452-3.615,1.162-5.101c0.581-1.291,1.42-2.582,2.711-3.551
			c1.292-0.968,3.099-1.613,5.423-1.613s4.067,0.646,5.358,1.613c1.291,0.969,2.195,2.26,2.776,3.551
			c0.71,1.485,1.098,3.229,1.162,5.101V257.491z M89.7,229.537c0-1.291-0.258-2.195-0.904-2.97c-0.323-0.322-0.839-0.517-1.42-0.517
			c-1.227,0-1.808,0.904-2.066,1.743c-0.194,0.517-0.258,1.098-0.258,1.743v27.954c0,1.356,0.323,2.26,0.968,2.971
			c0.323,0.322,0.775,0.516,1.356,0.516c1.227,0,1.808-0.774,2.066-1.743c0.193-0.451,0.258-1.032,0.258-1.743V229.537z"/>
		<path fill="#FFFFFF" d="M119.915,219.789v37.702c-0.065,1.938-0.452,3.681-1.162,5.165c-0.581,1.291-1.485,2.518-2.776,3.486
			c-1.291,1.033-3.034,1.614-5.358,1.614s-4.132-0.581-5.423-1.614c-1.292-0.969-2.131-2.195-2.712-3.486
			c-0.71-1.484-1.097-3.228-1.162-5.165v-37.702h6.972v37.702c0,1.356,0.323,2.26,0.968,2.971c0.323,0.322,0.775,0.516,1.356,0.516
			c1.227,0,1.808-0.774,2.066-1.743c0.194-0.451,0.258-1.032,0.258-1.743v-37.702H119.915z"/>
		<path fill="#FFFFFF" d="M122.562,226.955v-7.166h20.143v7.166h-6.585v40.285h-6.972v-40.285H122.562z"/>
		<path fill="#FFFFFF" d="M157.813,246.581h-5.423v20.659h-6.972v-47.451h6.972v19.626h5.423v-19.626h6.972v47.451h-6.972V246.581z"
			/>
		<path fill="#FFFFFF" d="M198.035,250.971v6.521c-0.064,1.938-0.452,3.681-1.162,5.165c-0.581,1.291-1.485,2.518-2.776,3.486
			c-1.292,1.033-3.034,1.614-5.358,1.614s-4.132-0.581-5.423-1.614c-1.291-0.969-2.13-2.195-2.711-3.486
			c-0.71-1.484-1.098-3.228-1.162-5.165v-27.954c0.064-1.872,0.452-3.615,1.162-5.101c0.581-1.291,1.42-2.582,2.711-3.551
			c1.292-0.968,3.099-1.613,5.423-1.613s4.067,0.646,5.358,1.613c1.291,0.969,2.195,2.26,2.776,3.551
			c0.71,1.485,1.098,3.229,1.162,5.101v6.521h-6.521v-6.521c0-1.291-0.323-2.195-1.033-2.97c-0.323-0.322-0.904-0.517-1.614-0.517
			c-1.227,0-1.808,0.904-2.13,1.743c-0.194,0.517-0.258,1.098-0.323,1.743v27.954c0.064,1.356,0.452,2.26,1.098,2.971
			c0.323,0.322,0.774,0.516,1.355,0.516c1.485,0,2.066-0.774,2.389-1.743c0.194-0.451,0.258-1.032,0.258-1.743v-6.521H198.035z"/>
		<path fill="#FFFFFF" d="M200.295,267.24l7.167-47.451h8.521l7.166,47.451h-6.778l-1.291-9.684h-6.715l-1.291,9.684H200.295z
			 M212.11,235.219l-0.194-1.227h-0.387l-0.194,1.227l-2.001,14.978h4.777L212.11,235.219z"/>
		<path fill="#FFFFFF" d="M238.838,267.24l-3.615-20.014h-1.872v20.014h-6.973v-47.451h6.973c8.328,0,11.879,4.713,11.879,13.687
			c0,4.713-1.227,8.974-3.873,10.781l4.454,22.983H238.838z M233.351,240.771c0.969,0,2.26-0.129,3.293-1.033
			c1.033-0.903,1.872-2.646,1.872-6.004c0-3.356-0.839-5.165-1.872-6.068c-1.033-0.904-2.324-0.969-3.293-0.969V240.771z"/>
		<path fill="#FFFFFF" d="M267.827,257.491c-0.064,1.938-0.452,3.681-1.162,5.165c-0.581,1.291-1.484,2.518-2.776,3.486
			c-1.291,1.033-3.034,1.614-5.358,1.614s-4.132-0.581-5.423-1.614c-1.291-0.969-2.13-2.195-2.711-3.486
			c-0.711-1.484-1.098-3.228-1.162-5.165v-27.954c0.064-1.872,0.451-3.615,1.162-5.101c0.581-1.291,1.42-2.582,2.711-3.551
			c1.291-0.968,3.099-1.613,5.423-1.613s4.067,0.646,5.358,1.613c1.292,0.969,2.195,2.26,2.776,3.551
			c0.71,1.485,1.098,3.229,1.162,5.101V257.491z M260.854,229.537c0-1.291-0.258-2.195-0.903-2.97
			c-0.323-0.322-0.84-0.517-1.421-0.517c-1.227,0-1.808,0.904-2.065,1.743c-0.193,0.517-0.259,1.098-0.259,1.743v27.954
			c0,1.356,0.323,2.26,0.969,2.971c0.323,0.322,0.774,0.516,1.355,0.516c1.227,0,1.808-0.774,2.066-1.743
			c0.193-0.451,0.258-1.032,0.258-1.743V229.537z"/>
		<path fill="#FFFFFF" d="M272.54,219.789h6.973v40.995h9.232v6.456H272.54V219.789z"/>
		<path fill="#FFFFFF" d="M291.586,219.789h6.973v47.451h-6.973V219.789z"/>
		<path fill="#FFFFFF" d="M311.084,242.514l-0.581-2.195h-0.388v26.922h-6.392v-47.451h6.198l6.778,24.727l0.581,2.194h0.388
			v-26.921h6.392v47.451h-6.198L311.084,242.514z"/>
		<path fill="#FFFFFF" d="M327.289,267.24l7.166-47.451h8.522l7.166,47.451h-6.779l-1.291-9.684h-6.714l-1.291,9.684H327.289z
			 M339.104,235.219l-0.193-1.227h-0.388l-0.193,1.227l-2.002,14.978h4.777L339.104,235.219z"/>
	</g>
</g>
<g id="small">
	<path fill="#FFFFFF" d="M169.262,154.947c0-6.959-0.29-14.79-2.32-20.879c-2.03-5.8-5.22-9.86-10.149-9.86
		c-8.12,0.29-10.73,8.7-10.73,21.17c0,7.25,3.19,14.79,7.83,22.909c4.64,8.12,10.729,16.53,16.819,25.52
		c7.25,10.729,14.5,21.749,20.01,32.479c5.51,10.729,9.28,21.749,9.28,33.349c0,14.21-2.32,27.55-8.99,37.409
		c-6.67,9.86-17.399,16.24-34.509,16.24c-20.01,0-31.319-7.54-37.699-19.14s-7.83-26.97-7.83-42.919l30.739-2.9
		c0,8.99,0.29,17.979,2.61,24.649c2.029,6.96,5.51,11.6,12.18,11.6c9.279,0,12.76-9.859,12.76-23.489c0-6.96-3.48-15.08-8.12-23.489
		c-2.61-4.06-5.22-8.41-8.12-12.76c-6.09-8.7-12.76-18.56-19.719-29.289c-6.96-10.73-12.18-21.75-15.37-33.06
		c-1.74-5.51-2.61-11.31-2.61-17.109c0-11.6,2.61-24.07,9.28-33.64c6.67-9.28,16.819-15.949,31.609-16.239
		c18.85-0.29,29.869,7.54,35.959,18.85c6.09,11.6,7.83,25.809,7.83,37.699L169.262,154.947z"/>
	<path fill="#FFFFFF" d="M216.818,97.819h71.629v32.189h-40.31v55.969h28.999v34.22h-28.999v58.578h40.31v32.189h-71.629V97.819z"/>
</g>
</svg>
