<?xml version="1.0" encoding="utf-8"?>
<!-- Generator: Adobe Illustrator 16.0.4, SVG Export Plug-In . SVG Version: 6.00 Build 0)  -->
<!DOCTYPE svg PUBLIC "-//W3C//DTD SVG 1.1//EN" "http://www.w3.org/Graphics/SVG/1.1/DTD/svg11.dtd">
<svg version="1.1" id="TX" xmlns="http://www.w3.org/2000/svg" xmlns:xlink="http://www.w3.org/1999/xlink" x="0px" y="0px"
	 width="400px" height="400px" viewBox="0 0 400 400" enable-background="new 0 0 400 400" xml:space="preserve">
<style type="text/css">
    @media screen and (min-width: 400px) {
        #small {display: none;}
    }
    @media screen and (max-width: 399px) {
        #large {display: none;}
    }
</style>
<circle fill="#FEC429" cx="200" cy="200" r="184"/>
<g id="large">
	<path id="outline" opacity="0.2" fill="#FFFFFF" d="M273.202,327.453l-0.078,7.774l1.814,9.136l4.442,10.572l1.134,7.713
		l0.358,2.165l-1.313,0.435l-1.409-10.612l-4.682-10.562l-1.402-10.489l1.651-12.473l4.426-10.554l4.78-8.387l4.441-5.575
		l0.989,0.312l-6.623,10.304l-6.025,10.154L273.202,327.453z M338.958,259.4l3.034-2.345l3.721-3.109l1.303-2.984l14.417-7.557
		l8.359-2.819l-0.716-5.225l1.991-5.119l0.419-11.146l0.761-3.551l-2.465-3.105l3.907-7.729l0.435-12.611l-1.18-1.117l-0.541-4.697
		l-6.752-7.964l-1.735-7.346l-4.354-6.41l-1.339-5.346l-1.775-14.23l-0.704-14.537l-1.327-9.103l-4.121-1.493l-4.455,2.227
		l-3.822-2.799l-2.329-1.079l-4.348-0.988l-5.435-2.785l-3.104-3.448l-2.829-0.462l-2.116,3.159L315.782,114l-1.403-2.339
		l-1.655,0.021l-4.027,3.376l-2.783-1.252l-6.674,0.284l-0.873,3.824l-2.681,1.605l-5.224-1.522l-5.088-1.419l-5.941-0.688
		l-2.004-3.003l-1.362-0.049l-0.511,0.026l-1.906,6.376l-2.323,1.273l-9.647-2.669l-1.589-3.575l-3.343,0.123l-3.242-0.753
		l-3.331,3.261l-3.378-1.012l0.084-2.959l-1.636-0.394l-3.58-4.658l-5.628-0.627l-3.02,3.276l-3.731-2.926l-5.965-0.476
		l-4.477-1.563l-6.132,0.181l0.227-5.972l-1.739-0.522l-2.578-1.318l0.119,2.168l-3.168,0.1l-1.851-2.612l-0.415,2.751l-1.731,0.933
		l-3.089-2.012l-6.808-5.378l-0.267-3.114l-0.983-27.219l1.652-35.324l-46.671,0.734l-13.118,0.061
		c-7.437,2.945-14.63,6.369-21.555,10.218l-0.589,18.019l-1.45,83.533l-1.814,29.332l-43.624-0.111l-43.713-1.825l-0.766-0.025
		c-0.8,4.562-1.431,9.183-1.888,13.854l1.525,3.883l7.202,3.021l2.191,4.743l11.28,11.307l2.064,2.321l7.673,2.752l1.861,3.059
		l2.498,1.326l0.943,4.08l5.351,9.433l0.637,12.109l3.761,6.845l11.75,11.041l7.916,2.741l2.817,2.766l0.05,0.969l5.99,3.085
		l2.958,0.815l2.755,1.557l3.95,1.249l3.443-3.823l6.056-9.545l1.159-5.649l3.137-5.021l5.214-2.46l6.641-3.02l4.78,3.148
		l11.192,0.384l10.261,1.16l4.04,2.946l0.087,1.694l4.119,4.397l9.381,7.521l0.358,2.169l2.815,2.765l1.542,6.232l8.958,17.986
		l-0.089,2.92l6.5,3.543l5.849,9.65l5.431,6.271l4.943,1.685l2.603,3.263l-1.594,6.642l1.044,1.401l1.988,0.868l-0.217,5.11
		l-0.917,1.021l1.146,3.339l4.997,2.652l2.446,9.585l3.454,5.647l11.647,4.488l7.841,1.287l6.538,4.271l4.896,0.713l1.897-0.827
		l8.323,1.262l5.914,3.614c2.893-1.188,5.747-2.447,8.563-3.776l-2.788-3.853l-1.937-9.125l-3.21-10.274l-1.402-3.57l0.854-6.845
		l1.389-5.901l1.583-6.883l1.746-8.348l-3.543-2.729l1.299-2.98l6.03-0.803l5.381-8.541l5.034-1.234l8.438-5.788l2.55-2.319
		l9.179-5.581l8.283-4.079l7.739-5.264l3.95-3.366l8.056-8.436L338.958,259.4z"/>
	<g>
		<path fill="#FFFFFF" d="M72.06,146.33H58.948v16.983h8.8v9.768h-8.8v28.159h-9.503v-64.678H72.06V146.33z"/>
		<path fill="#FFFFFF" d="M100.659,187.953c-0.088,2.64-0.616,5.016-1.584,7.04c-0.792,1.76-2.024,3.432-3.784,4.752
			c-1.76,1.408-4.136,2.2-7.304,2.2s-5.632-0.792-7.392-2.2c-1.76-1.32-2.904-2.992-3.696-4.752
			c-0.968-2.024-1.496-4.399-1.584-7.04V149.85c0.088-2.552,0.616-4.928,1.584-6.952c0.792-1.76,1.936-3.52,3.696-4.84
			c1.76-1.32,4.224-2.2,7.392-2.2s5.543,0.88,7.304,2.2c1.76,1.32,2.992,3.08,3.784,4.84c0.968,2.024,1.496,4.4,1.584,6.952V187.953
			z M91.156,149.85c0-1.76-0.352-2.992-1.232-4.048c-0.44-0.44-1.144-0.704-1.936-0.704c-1.672,0-2.464,1.232-2.816,2.376
			c-0.264,0.704-0.352,1.496-0.352,2.376v38.103c0,1.848,0.44,3.08,1.32,4.048c0.44,0.44,1.056,0.704,1.848,0.704
			c1.672,0,2.464-1.056,2.816-2.376c0.264-0.616,0.352-1.408,0.352-2.376V149.85z"/>
		<path fill="#FFFFFF" d="M124.066,201.24l-4.928-27.279h-2.552v27.279h-9.503v-64.678h9.503c11.352,0,16.192,6.424,16.192,18.656
			c0,6.424-1.672,12.231-5.28,14.695l6.072,31.327H124.066z M116.586,165.161c1.32,0,3.08-0.176,4.488-1.408
			c1.408-1.232,2.552-3.608,2.552-8.184c0-4.576-1.144-7.04-2.552-8.271c-1.408-1.232-3.168-1.32-4.488-1.32V165.161z"/>
		<path fill="#FFFFFF" d="M135.506,146.33v-9.768h27.456v9.768h-8.976v54.91h-9.503v-54.91H135.506z"/>
		<path fill="#FFFFFF" d="M193.849,201.24h-7.392l-8.711-64.678h8.8l3.784,33.615l0.176,2.112h0.704l0.264-2.112l4.048-33.615h6.864
			l4.047,33.615l0.265,2.112h0.704l0.176-2.112l3.784-33.615h8.8l-8.712,64.678h-7.392l-4.4-30.623l-0.528-3.784h-0.352
			l-0.528,3.784L193.849,201.24z"/>
		<path fill="#FFFFFF" d="M249.464,187.953c-0.088,2.64-0.616,5.016-1.584,7.04c-0.792,1.76-2.023,3.432-3.784,4.752
			c-1.76,1.408-4.136,2.2-7.304,2.2s-5.632-0.792-7.392-2.2c-1.76-1.32-2.903-2.992-3.695-4.752
			c-0.969-2.024-1.496-4.399-1.584-7.04V149.85c0.088-2.552,0.615-4.928,1.584-6.952c0.792-1.76,1.936-3.52,3.695-4.84
			s4.224-2.2,7.392-2.2s5.544,0.88,7.304,2.2c1.761,1.32,2.992,3.08,3.784,4.84c0.968,2.024,1.496,4.4,1.584,6.952V187.953z
			 M239.96,149.85c0-1.76-0.352-2.992-1.231-4.048c-0.44-0.44-1.145-0.704-1.937-0.704c-1.672,0-2.464,1.232-2.815,2.376
			c-0.264,0.704-0.353,1.496-0.353,2.376v38.103c0,1.848,0.44,3.08,1.32,4.048c0.44,0.44,1.056,0.704,1.848,0.704
			c1.672,0,2.464-1.056,2.816-2.376c0.264-0.616,0.352-1.408,0.352-2.376V149.85z"/>
		<path fill="#FFFFFF" d="M272.871,201.24l-4.928-27.279h-2.552v27.279h-9.504v-64.678h9.504c11.352,0,16.191,6.424,16.191,18.656
			c0,6.424-1.672,12.231-5.279,14.695l6.071,31.327H272.871z M265.392,165.161c1.32,0,3.08-0.176,4.488-1.408
			s2.552-3.608,2.552-8.184c0-4.576-1.144-7.04-2.552-8.271s-3.168-1.32-4.488-1.32V165.161z"/>
		<path fill="#FFFFFF" d="M284.312,146.33v-9.768h27.455v9.768h-8.976v54.91h-9.504v-54.91H284.312z"/>
		<path fill="#FFFFFF" d="M332.358,173.081h-7.392v28.159h-9.504v-64.678h9.504v26.751h7.392v-26.751h9.504v64.678h-9.504V173.081z"
			/>
		<path fill="#FFFFFF" d="M356.559,201.24l-4.84,11.439h-4.4l3.08-11.439h-3.08v-9.768h9.24V201.24z"/>
		<path fill="#FFFFFF" d="M147.871,226.955v-7.166h20.143v7.166h-6.585v40.285h-6.972v-40.285H147.871z"/>
		<path fill="#FFFFFF" d="M170.726,219.789h15.946v7.166h-8.974v12.46h6.456v7.618h-6.456v13.041h8.974v7.166h-15.946V219.789z"/>
		<path fill="#FFFFFF" d="M195.324,267.24h-6.843l7.683-24.92l-7.554-22.531h6.843l3.809,12.008l0.194,0.581h0.258l0.193-0.581
			l3.81-12.008h6.843l-7.554,22.531l7.683,24.92h-6.843l-4.003-14.139l-0.129-0.581h-0.258l-0.129,0.581L195.324,267.24z"/>
		<path fill="#FFFFFF" d="M211.852,267.24l7.166-47.451h8.522l7.166,47.451h-6.779l-1.291-9.684h-6.714l-1.291,9.684H211.852z
			 M223.666,235.219l-0.193-1.227h-0.388l-0.193,1.227l-2.002,14.978h4.777L223.666,235.219z"/>
		<path fill="#FFFFFF" d="M248.846,232.507c0-1.549-0.064-3.292-0.517-4.648c-0.452-1.291-1.162-2.194-2.26-2.194
			c-1.808,0.064-2.389,1.937-2.389,4.713c0,1.613,0.71,3.292,1.743,5.1s2.389,3.68,3.745,5.682c1.613,2.389,3.228,4.842,4.454,7.23
			s2.066,4.842,2.066,7.425c0,3.163-0.517,6.133-2.002,8.328c-1.484,2.194-3.873,3.615-7.683,3.615
			c-4.454,0-6.973-1.679-8.393-4.261c-1.42-2.583-1.743-6.005-1.743-9.556l6.844-0.646c0,2.002,0.064,4.003,0.581,5.488
			c0.451,1.549,1.227,2.582,2.711,2.582c2.066,0,2.841-2.195,2.841-5.229c0-1.549-0.774-3.356-1.808-5.229
			c-0.581-0.903-1.162-1.872-1.808-2.84c-1.355-1.938-2.841-4.132-4.391-6.521c-1.549-2.389-2.711-4.842-3.421-7.359
			c-0.388-1.227-0.581-2.518-0.581-3.809c0-2.583,0.581-5.359,2.065-7.489c1.485-2.066,3.744-3.551,7.037-3.615
			c4.196-0.064,6.649,1.679,8.006,4.196c1.355,2.582,1.743,5.746,1.743,8.393L248.846,232.507z"/>
	</g>
</g>
<g id="small">
	<path fill="#FFFFFF" d="M98.071,130.008V97.819h90.478v32.189H158.97v180.956H127.65V130.008H98.071z"/>
	<path fill="#FFFFFF" d="M222.189,310.964H191.45l34.509-111.938L192.03,97.819h30.739l17.109,53.938l0.87,2.61h1.159l0.87-2.61
		l17.11-53.938h30.739l-33.93,101.208l34.509,111.938h-30.739l-17.979-63.509l-0.58-2.609h-1.159l-0.58,2.609L222.189,310.964z"/>
</g>
</svg>
