<svg id="CA" xmlns="http://www.w3.org/2000/svg" width="400" height="400" viewBox="0 0 400 400"><style>@media screen and (min-width:400px){#small{display:none}}@media screen and (max-width:399px){#large{display:none}}</style><circle fill="#F05032" cx="200" cy="200" r="184"/><g id="large" fill="#FFF"><path id="outline" opacity=".3" d="M343.772 314.165l-.796-3.314-1.796-.48-2.055-1.233-4.307-8.621-6.254-6.381-.621-5.708-4.212-.566-152.282-132.837.515-113.485-69.625 2.664A184.885 184.885 0 0 0 61.255 79.31l-.992 6.788-3.682 5.348-.018 1.903-2.427 2.022-.467 7.175.125 5.387 6.085 5.375 4.318 5.861 3.291 5.06 2.264 10.22L68.296 140l1.484 9.349.079 6.212 4.435 5.286 6.222 5.879 5.606 6.592 3.747 5.747.881 5.179-.295.895.9 3.276 11.521 7.407.281 3.986-.038 3.805-.177 3.302 3.783 12.784 4.869 4.896 4.132 3.202 4.492-.42 2.69 3.868-.243 6.03-2.583 3.421-1.764.485.401 6.394 2.002 4.33 6.912 5.42 4.803 7.622 4.277 6.687 3.332 4.234 7.787 7.619 3.375 3.407 2.002 4.33 2.935.819 1.039 3.783-.43 3.369.273 11.851.076 3.231 4.958 3.247 6.759-1.045 7.818.834 6.95 1.614 4.536-1.246 5.853 3.541 6.11 6.454 2.731 3.043 6.948 1.615 7.908-.818 3.168 2.654 2.395 4.765-1.992 1.63.918 1.374 5.388-.125 4.354-.926 4.203-3.983 7.849 4.892 2.229 3.184 5.831 5.445 1.891 4.9 4.017 14.619 1.516 2.564 7.586-.945c26.262-10.277 49.579-26.418 68.354-46.808l1.693-3.394 4.648-3.855c.088-.106.18-.21.268-.316l1.783-3.026z"/><path d="M118.089 187.335c-.092 2.763-.645 5.249-1.658 7.367a12.674 12.674 0 0 1-3.96 4.973c-1.842 1.474-4.328 2.302-7.643 2.302s-5.894-.828-7.735-2.302c-1.842-1.381-3.039-3.131-3.868-4.973-1.013-2.118-1.565-4.604-1.657-7.367v-39.874c.092-2.67.645-5.157 1.657-7.275.829-1.842 2.026-3.683 3.868-5.064s4.42-2.302 7.735-2.302 5.801.921 7.643 2.302 3.131 3.223 3.96 5.064c1.013 2.118 1.565 4.604 1.658 7.275v39.874zm-9.945-39.874c0-1.842-.368-3.131-1.289-4.236-.46-.46-1.197-.737-2.026-.737-1.75 0-2.579 1.29-2.947 2.486-.276.737-.368 1.565-.368 2.486v39.874c0 1.934.46 3.223 1.381 4.236.46.46 1.105.736 1.934.736 1.75 0 2.579-1.105 2.947-2.486.276-.645.368-1.473.368-2.486v-39.873zM135.308 165.971l-.829-3.131h-.552v38.4h-9.117v-67.684h8.84l9.669 35.269.829 3.131h.553v-38.4h9.117v67.684h-8.84l-9.67-35.269zM157.683 143.778v-10.222h28.731v10.222h-9.393v57.462h-9.945v-57.462h-9.393zM185.493 201.24l10.222-67.684h12.155l10.222 67.684h-9.669l-1.842-13.813h-9.577l-1.842 13.813h-9.669zm16.853-45.675l-.277-1.75h-.553l-.275 1.75-2.855 21.364h6.815l-2.855-21.364zM240.468 201.24l-5.156-28.547h-2.671v28.547h-9.945v-67.684h9.945c11.879 0 16.944 6.722 16.944 19.522 0 6.723-1.75 12.8-5.525 15.379l6.354 32.783h-9.946zm-7.827-37.755c1.381 0 3.223-.185 4.696-1.474s2.671-3.775 2.671-8.564-1.197-7.367-2.671-8.656-3.315-1.381-4.696-1.381v20.075zM255.938 133.557h9.945v67.684h-9.945v-67.684zM299.124 187.335c-.092 2.763-.645 5.249-1.657 7.367a12.674 12.674 0 0 1-3.96 4.973c-1.842 1.474-4.328 2.302-7.643 2.302-3.315 0-5.894-.828-7.735-2.302-1.842-1.381-3.039-3.131-3.868-4.973-1.013-2.118-1.565-4.604-1.657-7.367v-39.874c.092-2.67.645-5.157 1.657-7.275.829-1.842 2.026-3.683 3.868-5.064s4.42-2.302 7.735-2.302c3.314 0 5.801.921 7.643 2.302s3.131 3.223 3.96 5.064c1.013 2.118 1.565 4.604 1.657 7.275v39.874zm-9.945-39.874c0-1.842-.368-3.131-1.289-4.236-.46-.46-1.197-.737-2.025-.737-1.75 0-2.579 1.29-2.947 2.486-.276.737-.368 1.565-.368 2.486v39.874c0 1.934.46 3.223 1.381 4.236.461.46 1.105.736 1.935.736 1.749 0 2.578-1.105 2.946-2.486.276-.645.368-1.473.368-2.486v-39.873zM313.856 201.24l-5.065 11.972h-4.604l3.223-11.972h-3.223v-10.222h9.669v10.222zM120.496 250.971v6.521c-.064 1.938-.452 3.681-1.162 5.165a8.882 8.882 0 0 1-2.776 3.486c-1.292 1.033-3.034 1.614-5.358 1.614s-4.132-.581-5.423-1.614c-1.291-.969-2.13-2.195-2.711-3.486-.71-1.484-1.098-3.228-1.162-5.165v-27.954c.064-1.872.452-3.615 1.162-5.101.581-1.291 1.42-2.582 2.711-3.551 1.292-.968 3.099-1.613 5.423-1.613s4.067.646 5.358 1.613c1.291.969 2.195 2.26 2.776 3.551.71 1.485 1.098 3.229 1.162 5.101v6.521h-6.521v-6.521c0-1.291-.323-2.195-1.033-2.97-.323-.322-.904-.517-1.614-.517-1.227 0-1.808.904-2.13 1.743-.194.517-.258 1.098-.323 1.743v27.954c.064 1.356.452 2.26 1.098 2.971.323.322.774.516 1.355.516 1.485 0 2.066-.774 2.389-1.743.194-.451.258-1.032.258-1.743v-6.521h6.521zM122.756 267.24l7.166-47.451h8.522l7.167 47.451h-6.779l-1.292-9.684h-6.714l-1.292 9.684h-6.778zm11.815-32.021l-.193-1.227h-.388l-.193 1.227-2.001 14.978h4.777l-2.002-14.978zM148.84 219.789h6.972v40.995h9.232v6.456H148.84v-47.451zM167.886 219.789h6.972v47.451h-6.972v-47.451zM196.615 226.955h-9.62v12.46h6.456v7.166h-6.456v20.659h-6.972v-47.451h16.592v7.166zM217.598 257.491c-.064 1.938-.452 3.681-1.162 5.165a8.873 8.873 0 0 1-2.776 3.486c-1.291 1.033-3.034 1.614-5.358 1.614s-4.132-.581-5.423-1.614c-1.291-.969-2.13-2.195-2.712-3.486-.709-1.484-1.097-3.228-1.162-5.165v-27.954c.064-1.872.452-3.615 1.162-5.101.582-1.291 1.421-2.582 2.712-3.551 1.291-.968 3.099-1.613 5.423-1.613s4.067.646 5.358 1.613c1.292.969 2.195 2.26 2.776 3.551.71 1.485 1.098 3.229 1.162 5.101v27.954zm-6.973-27.954c0-1.291-.258-2.195-.903-2.97-.323-.322-.84-.517-1.421-.517-1.227 0-1.808.904-2.065 1.743-.193.517-.259 1.098-.259 1.743v27.954c0 1.356.323 2.26.969 2.971.323.322.774.516 1.355.516 1.227 0 1.808-.774 2.066-1.743.193-.451.258-1.032.258-1.743v-27.954zM234.771 267.24l-3.615-20.014h-1.872v20.014h-6.973v-47.451h6.973c8.328 0 11.879 4.713 11.879 13.687 0 4.713-1.227 8.974-3.873 10.781l4.454 22.983h-6.973zm-5.488-26.469c.969 0 2.26-.129 3.293-1.033 1.033-.903 1.872-2.646 1.872-6.004 0-3.356-.839-5.165-1.872-6.068-1.033-.904-2.324-.969-3.293-.969v14.074zM252.978 242.514l-.581-2.195h-.388v26.922h-6.392V219.79h6.198l6.778 24.727.581 2.194h.388V219.79h6.392v47.451h-6.198l-6.778-24.727zM271.119 219.789h6.973v47.451h-6.973v-47.451zM281.32 267.24l7.166-47.451h8.522l7.166 47.451h-6.779l-1.291-9.684h-6.714l-1.291 9.684h-6.779zm11.815-32.021l-.193-1.227h-.388l-.193 1.227-2.002 14.978h4.777l-2.001-14.978z"/></g><g id="small" fill="#FFF"><path d="M190.984 237.886v29.289c-.29 8.7-2.03 16.529-5.22 23.199-2.61 5.8-6.67 11.311-12.47 15.66-5.8 4.64-13.63 7.25-24.069 7.25-10.44 0-18.56-2.61-24.359-7.25-5.8-4.35-9.57-9.86-12.18-15.66-3.19-6.67-4.931-14.499-5.221-23.199V141.608c.29-8.41 2.03-16.24 5.221-22.91 2.609-5.8 6.38-11.6 12.18-15.95s13.919-7.25 24.359-7.25c10.439 0 18.27 2.9 24.069 7.25 5.8 4.35 9.859 10.15 12.47 15.95 3.189 6.67 4.93 14.5 5.22 22.91v29.289h-29.289v-29.289c0-5.8-1.45-9.86-4.641-13.34-1.449-1.45-4.06-2.32-7.249-2.32-5.511 0-8.12 4.06-9.57 7.83-.87 2.32-1.16 4.93-1.45 7.83v125.567c.29 6.09 2.03 10.149 4.931 13.34 1.449 1.45 3.479 2.32 6.09 2.32 6.67 0 9.279-3.48 10.729-7.83.87-2.03 1.16-4.64 1.16-7.83v-29.289h29.289zM201.135 310.964l32.188-213.145h38.279l32.189 213.145h-30.449l-5.8-43.499h-30.159l-5.8 43.499h-30.448zm53.068-143.837l-.87-5.51h-1.74l-.869 5.51-8.99 67.278h21.46l-8.991-67.278z"/></g></svg>