<svg id="TX" xmlns="http://www.w3.org/2000/svg" width="400" height="400" viewBox="0 0 400 400"><style>@media screen and (min-width:400px){#small{display:none}}@media screen and (max-width:399px){#large{display:none}}</style><circle fill="#9248B8" cx="200" cy="200" r="184"/><g id="large" fill="#FFF"><path opacity=".2" d="M54.21 74.384l48.518.653 30.689-.523 67.09-3.512 28.925-3.03 2.114 3.933 7.1 5.395 2.835 3.948 1.776.722-1.801 3.555-.742 3.92-.044 7.138 1.383 7.499 1.41 1.794 2.099 7.504 2.114 3.937 1.049 3.573 4.975 3.597 3.542 3.952 3.908 2.516 1.407 3.58 9.24 5.762 3.55 2.877 2.121 3.584 3.818 16.433 2.834 3.583 3.931-1.045 2.165-3.553 1.785-.347 3.918 1.451 3.56.381 7.109 4.68-.01 1.428-2.525 4.62.317 6.427-2.887 5.694-1.825 6.409-2.162 3.554-.382 3.921.695 3.572 6.729 7.532 11.014 7.559 2.143.012.683 4.646 3.935-1.76 6.399 3.967 2.114 3.932 3.556 2.52 3.916 1.456.661 8.207 4.237 7.162-.734 3.921-2.522 3.91 4.59 7.518 5.664 7.526 3.577-1.759 5.33 2.888.695 3.213-.739 3.919 1.041 5.36-3.59 2.832 1.765 3.577-1.819 5.34-3.909-1.45-3.941 1.761-1.093 4.629-3.59 2.833.734-2.849-1.764-3.579-1.451 3.917.692 3.928 1.401 3.58-3.929 1.398 2.115 3.939-5.021 3.534 3.548 3.594-2.166 3.552-2.532 6.053-26.771 2.687-1.761-3.936 1.806-3.556 2.874-3.907 3.943-2.12 2.873-3.543.023-3.929-1.049-3.573-2.829-3.583-3.553-2.162-83.518 4.838-73.159 2.76-46.03.786-.533-28.902-2.094-123.818-3.907-2.875-3.202-1.088-5.665-7.174.024-3.923-4.26-2.882-3.542-4.657-1.407-3.58 4.321-6.037 1.449-3.557 3.922.381.364-1.072-.692-3.929-2.473-3.939-2.848-1.088-3.582 2.475-10.296-7.911-4.264-3.235.38-3.569-2.832-3.584-.693-3.929-3.545-2.519-3.191-3.591-2.454-7.147-3.191-3.586.024-3.926"/><path d="M104.224 153.897c0-2.112-.088-4.488-.704-6.335-.616-1.76-1.584-2.992-3.08-2.992-2.464.088-3.256 2.64-3.256 6.424 0 2.2.968 4.488 2.376 6.952 1.408 2.464 3.256 5.016 5.104 7.744 2.2 3.256 4.4 6.6 6.072 9.855s2.816 6.6 2.816 10.12c0 4.312-.704 8.36-2.728 11.352-2.024 2.992-5.28 4.928-10.472 4.928-6.072 0-9.503-2.288-11.439-5.808s-2.376-8.184-2.376-13.023l9.328-.88c0 2.728.088 5.456.792 7.479.616 2.112 1.672 3.52 3.696 3.52 2.816 0 3.872-2.992 3.872-7.128 0-2.112-1.056-4.576-2.464-7.127-.792-1.232-1.584-2.552-2.464-3.872-1.848-2.64-3.872-5.632-5.984-8.888s-3.696-6.6-4.664-10.032a17.28 17.28 0 0 1-.792-5.192c0-3.52.792-7.304 2.816-10.208 2.024-2.816 5.104-4.84 9.592-4.928 5.72-.088 9.064 2.288 10.912 5.72 1.848 3.52 2.376 7.832 2.376 11.439l-9.329.88zM115.312 146.33v-9.768h27.456v9.768h-8.976v54.91h-9.503v-54.91h-8.977zM145.231 191.473h9.24v9.768h-9.24v-9.768zM173.831 136.562h9.503v55.878h12.584v8.8h-22.087v-64.678zM224.518 187.953c-.088 2.64-.616 5.016-1.584 7.04a12.099 12.099 0 0 1-3.784 4.752c-1.76 1.408-4.136 2.2-7.304 2.2s-5.632-.792-7.392-2.2c-1.76-1.32-2.903-2.992-3.696-4.752-.967-2.024-1.496-4.399-1.583-7.04V149.85c.088-2.552.616-4.928 1.583-6.952.793-1.76 1.937-3.52 3.696-4.84s4.224-2.2 7.392-2.2 5.544.88 7.304 2.2c1.761 1.32 2.992 3.08 3.784 4.84.968 2.024 1.496 4.4 1.584 6.952v38.103zm-9.504-38.103c0-1.76-.352-2.992-1.231-4.048-.44-.44-1.145-.704-1.937-.704-1.672 0-2.464 1.232-2.815 2.376-.264.704-.353 1.496-.353 2.376v38.103c0 1.848.44 3.08 1.32 4.048.44.44 1.056.704 1.848.704 1.672 0 2.464-1.056 2.816-2.376.264-.616.352-1.408.352-2.376V149.85zM256.197 136.562v51.391c-.088 2.64-.616 5.016-1.584 7.04a12.108 12.108 0 0 1-3.784 4.752c-1.76 1.408-4.136 2.2-7.304 2.2s-5.632-.792-7.392-2.2c-1.76-1.32-2.904-2.992-3.696-4.752-.968-2.024-1.496-4.399-1.584-7.04v-51.391h9.504v51.391c0 1.848.44 3.08 1.32 4.048.439.44 1.056.704 1.848.704 1.672 0 2.464-1.056 2.816-2.376.264-.616.352-1.408.352-2.376v-51.391h9.504zM263.149 136.562h9.504v64.678h-9.504v-64.678zM295.444 153.897c0-2.112-.088-4.488-.704-6.335-.616-1.76-1.584-2.992-3.08-2.992-2.464.088-3.256 2.64-3.256 6.424 0 2.2.968 4.488 2.376 6.952s3.256 5.016 5.104 7.744c2.2 3.256 4.4 6.6 6.072 9.855s2.816 6.6 2.816 10.12c0 4.312-.704 8.36-2.729 11.352-2.023 2.992-5.279 4.928-10.472 4.928-6.071 0-9.504-2.288-11.439-5.808-1.936-3.52-2.376-8.184-2.376-13.023l9.328-.88c0 2.728.088 5.456.792 7.479.615 2.112 1.672 3.52 3.695 3.52 2.816 0 3.872-2.992 3.872-7.128 0-2.112-1.056-4.576-2.464-7.127-.792-1.232-1.584-2.552-2.464-3.872a305.434 305.434 0 0 1-5.984-8.888c-2.111-3.256-3.695-6.6-4.663-10.032a17.28 17.28 0 0 1-.792-5.192c0-3.52.792-7.304 2.815-10.208 2.024-2.816 5.104-4.84 9.592-4.928 5.72-.088 9.063 2.288 10.912 5.72 1.848 3.52 2.376 7.832 2.376 11.439l-9.327.88zM317.531 201.24l-4.84 11.439h-4.4l3.08-11.439h-3.08v-9.768h9.24v9.768zM131.634 267.24l-4.455-29.827-.258-2.001h-.387v31.828h-6.456v-47.451h8.522l4.132 21.691.323 2.519h.129l.323-2.519 4.132-21.691h8.522v47.451h-6.456v-31.828h-.387l-.258 2.001-4.455 29.827h-2.971zM151.326 219.789h6.972v47.451h-6.972v-47.451zM175.02 232.507c0-1.549-.064-3.292-.517-4.648-.452-1.291-1.162-2.194-2.26-2.194-1.808.064-2.389 1.937-2.389 4.713 0 1.613.71 3.292 1.743 5.1 1.033 1.808 2.389 3.68 3.745 5.682 1.614 2.389 3.228 4.842 4.455 7.23s2.066 4.842 2.066 7.425c0 3.163-.517 6.133-2.001 8.328-1.485 2.194-3.874 3.615-7.683 3.615-4.455 0-6.972-1.679-8.393-4.261-1.42-2.583-1.743-6.005-1.743-9.556l6.843-.646c0 2.002.064 4.003.581 5.488.452 1.549 1.227 2.582 2.711 2.582 2.066 0 2.841-2.195 2.841-5.229 0-1.549-.775-3.356-1.808-5.229-.581-.903-1.162-1.872-1.808-2.84a224.022 224.022 0 0 1-4.39-6.521c-1.549-2.389-2.711-4.842-3.422-7.359a12.69 12.69 0 0 1-.581-3.809c0-2.583.581-5.359 2.066-7.489 1.485-2.066 3.745-3.551 7.037-3.615 4.196-.064 6.65 1.679 8.005 4.196 1.356 2.582 1.743 5.746 1.743 8.393l-6.841.644zM197.164 232.507c0-1.549-.064-3.292-.517-4.648-.452-1.291-1.162-2.194-2.26-2.194-1.808.064-2.389 1.937-2.389 4.713 0 1.613.71 3.292 1.743 5.1 1.033 1.808 2.389 3.68 3.745 5.682 1.614 2.389 3.228 4.842 4.455 7.23s2.066 4.842 2.066 7.425c0 3.163-.518 6.133-2.002 8.328-1.484 2.194-3.874 3.615-7.683 3.615-4.455 0-6.972-1.679-8.393-4.261-1.42-2.583-1.743-6.005-1.743-9.556l6.843-.646c0 2.002.064 4.003.581 5.488.452 1.549 1.227 2.582 2.711 2.582 2.066 0 2.841-2.195 2.841-5.229 0-1.549-.775-3.356-1.808-5.229-.581-.903-1.162-1.872-1.808-2.84a224.022 224.022 0 0 1-4.39-6.521c-1.549-2.389-2.711-4.842-3.422-7.359a12.69 12.69 0 0 1-.581-3.809c0-2.583.581-5.359 2.066-7.489 1.485-2.066 3.745-3.551 7.037-3.615 4.196-.064 6.649 1.679 8.005 4.196 1.356 2.582 1.744 5.746 1.744 8.393l-6.841.644zM225.894 257.491c-.064 1.938-.452 3.681-1.162 5.165a8.873 8.873 0 0 1-2.776 3.486c-1.291 1.033-3.034 1.614-5.358 1.614s-4.132-.581-5.423-1.614c-1.291-.969-2.13-2.195-2.711-3.486-.711-1.484-1.098-3.228-1.162-5.165v-27.954c.064-1.872.451-3.615 1.162-5.101.581-1.291 1.42-2.582 2.711-3.551 1.291-.968 3.099-1.613 5.423-1.613s4.067.646 5.358 1.613c1.292.969 2.195 2.26 2.776 3.551.71 1.485 1.098 3.229 1.162 5.101v27.954zm-6.973-27.954c0-1.291-.258-2.195-.903-2.97-.323-.322-.84-.517-1.421-.517-1.227 0-1.808.904-2.065 1.743-.193.517-.259 1.098-.259 1.743v27.954c0 1.356.323 2.26.969 2.971.323.322.774.516 1.355.516 1.227 0 1.808-.774 2.066-1.743.193-.451.258-1.032.258-1.743v-27.954zM249.136 219.789v37.702c-.064 1.938-.452 3.681-1.162 5.165a8.882 8.882 0 0 1-2.776 3.486c-1.291 1.033-3.034 1.614-5.358 1.614s-4.132-.581-5.423-1.614c-1.291-.969-2.131-2.195-2.712-3.486-.71-1.484-1.098-3.228-1.162-5.165v-37.702h6.973v37.702c0 1.356.323 2.26.969 2.971.322.322.774.516 1.355.516 1.227 0 1.808-.774 2.066-1.743.193-.451.258-1.032.258-1.743V219.79h6.972zM266.696 267.24l-3.615-20.014h-1.872v20.014h-6.973v-47.451h6.973c8.328 0 11.879 4.713 11.879 13.687 0 4.713-1.227 8.974-3.873 10.781l4.454 22.983h-6.973zm-5.487-26.469c.969 0 2.26-.129 3.293-1.033 1.033-.903 1.872-2.646 1.872-6.004 0-3.356-.839-5.165-1.872-6.068-1.033-.904-2.324-.969-3.293-.969v14.074zM277.543 219.789h6.973v47.451h-6.973v-47.451z"/></g><g id="small" fill="#FFF"><path d="M144.296 310.964l-20.01-133.977-1.16-8.99h-1.74v142.967H92.387V97.819h38.279l18.56 97.438 1.45 11.31h.58l1.449-11.31 18.56-97.438h38.279v213.145h-28.999V167.997h-1.74l-1.16 8.99-20.009 133.977h-13.34zM314.233 267.175c-.29 8.7-2.03 16.529-5.22 23.199-2.61 5.8-6.67 11.311-12.47 15.66-5.8 4.64-13.63 7.25-24.069 7.25-10.44 0-18.56-2.61-24.359-7.25-5.8-4.35-9.57-9.86-12.18-15.66-3.19-6.67-4.931-14.499-5.221-23.199V141.608c.29-8.41 2.03-16.24 5.221-22.91 2.609-5.8 6.38-11.6 12.18-15.95s13.919-7.25 24.359-7.25c10.439 0 18.27 2.9 24.069 7.25 5.8 4.35 9.859 10.15 12.47 15.95 3.189 6.67 4.93 14.5 5.22 22.91v125.567zm-31.319-125.567c0-5.8-1.16-9.86-4.06-13.34-1.45-1.45-3.771-2.32-6.38-2.32-5.51 0-8.12 4.06-9.28 7.83-.87 2.32-1.16 4.93-1.16 7.83v125.567c0 6.09 1.45 10.149 4.351 13.34 1.449 1.45 3.479 2.32 6.09 2.32 5.51 0 8.119-3.48 9.279-7.83.87-2.03 1.16-4.64 1.16-7.83V141.608z"/></g></svg>