<svg id="OH" xmlns="http://www.w3.org/2000/svg" width="400" height="400" viewBox="0 0 400 400"><style>@media screen and (min-width:400px){#small{display:none}}@media screen and (max-width:399px){#large{display:none}}</style><circle fill="#AAC016" cx="200" cy="200" r="184"/><g id="large"><path id="outline" opacity=".1" d="M332.123 191.708l-2.509-11.685 1.867-4.494 7.769-6.064-5.124-36.233-2.586-61.712a185.565 185.565 0 0 0-10.44-9.882l-15.645 8.14-16.075 7.194-14.796 13.07-17.386 13.429-12.944 1.791-11.544.67-22.517 7.777-8.261-.25-11.943-13.402-20.438.349-9.473-6.759-8.715-6.264-19.369.69-40.383 2.025-41.675 3.561a183.518 183.518 0 0 0-3.011 4.382l-1.022 53.448 1.164 54.312.245 92.471.043 4.659a184.662 184.662 0 0 0 11.512 15.275l4.745.36 9.795-2.13 12.48 7.271 6.238 17.887 20.044 2.089 6.485 9.056 6.892.484 10.458-4.162 9.609 2.499 20.93 4.156 7.63-7.589 9.687-4.058 8.358-1.787 1.366 10.988 6.525 4.526 12.565 10.598 8.542.604 5.403-1.359 1.878-10.688 6.791-5.008 2.401-18.644 5.715-15.59 5.318-1.801 4.67 5.034 1.385 6.841 7.136-3.325 2.326-5.507-3.556-7.893 1.23-8.995 3.371-3.867 9.782-11.98 4.739-5.578 7.989 2.773 9.505-5.351 13.398-11.944 12.516-14.742 3.371-19.569 3.996-19.335 1.543-20.762z"/><g fill="#FFF"><path d="M81.763 178.034v9.301c-.092 2.763-.645 5.249-1.658 7.367a12.674 12.674 0 0 1-3.96 4.973c-1.842 1.474-4.328 2.302-7.643 2.302s-5.894-.828-7.735-2.302c-1.842-1.381-3.039-3.131-3.868-4.973-1.013-2.118-1.565-4.604-1.657-7.367v-39.874c.092-2.67.645-5.157 1.657-7.275.829-1.842 2.026-3.683 3.868-5.064s4.42-2.302 7.735-2.302 5.801.921 7.643 2.302 3.131 3.223 3.96 5.064c1.013 2.118 1.565 4.604 1.658 7.275v9.301h-9.301v-9.301c0-1.842-.46-3.131-1.474-4.236-.46-.46-1.289-.737-2.302-.737-1.75 0-2.578 1.29-3.039 2.486-.276.737-.369 1.565-.46 2.486v39.874c.092 1.934.645 3.223 1.565 4.236.46.46 1.105.736 1.934.736 2.118 0 2.947-1.105 3.407-2.486.276-.645.369-1.473.369-2.486v-9.301h9.301zM87.748 133.557h9.945v67.684h-9.945v-67.684zM115.556 165.971l-.829-3.131h-.552v38.4h-9.117v-67.684h8.84l9.669 35.269.829 3.131h.553v-38.4h9.117v67.684h-8.84l-9.67-35.269zM167.308 178.034v9.301c-.092 2.763-.645 5.249-1.658 7.367a12.674 12.674 0 0 1-3.96 4.973c-1.841 1.474-4.328 2.302-7.643 2.302s-5.894-.828-7.735-2.302c-1.842-1.381-3.039-3.131-3.868-4.973-1.013-2.118-1.565-4.604-1.657-7.367v-39.874c.092-2.67.645-5.157 1.657-7.275.829-1.842 2.026-3.683 3.868-5.064s4.42-2.302 7.735-2.302 5.802.921 7.643 2.302c1.842 1.381 3.131 3.223 3.96 5.064 1.013 2.118 1.565 4.604 1.658 7.275v9.301h-9.301v-9.301c0-1.842-.46-3.131-1.474-4.236-.46-.46-1.289-.737-2.302-.737-1.75 0-2.578 1.29-3.039 2.486-.276.737-.369 1.565-.46 2.486v39.874c.092 1.934.645 3.223 1.565 4.236.46.46 1.105.736 1.934.736 2.118 0 2.947-1.105 3.407-2.486.276-.645.369-1.473.369-2.486v-9.301h9.301zM173.292 133.557h9.945v67.684h-9.945v-67.684zM201.101 165.971l-.829-3.131h-.552v38.4h-9.117v-67.684h8.84l9.669 35.269.829 3.131h.552v-38.4h9.117v67.684h-8.841l-9.668-35.269zM237.474 165.971l-.829-3.131h-.553v38.4h-9.116v-67.684h8.84l9.67 35.269.828 3.131h.553v-38.4h9.116v67.684h-8.84l-9.669-35.269zM260.585 201.24l10.222-67.684h12.155l10.222 67.684h-9.669l-1.842-13.813h-9.577l-1.842 13.813h-9.669zm16.852-45.675l-.276-1.75h-.552l-.276 1.75-2.854 21.364h6.814l-2.856-21.364zM292.264 143.778v-10.222h28.73v10.222h-9.393v57.462h-9.945v-57.462h-9.392zM324.861 133.557h9.945v67.684h-9.945v-67.684zM350.184 201.24l-5.065 11.972h-4.604l3.223-11.972h-3.223v-10.222h9.669v10.222zM181.83 257.491c-.064 1.938-.452 3.681-1.162 5.165a8.882 8.882 0 0 1-2.776 3.486c-1.292 1.033-3.034 1.614-5.358 1.614s-4.132-.581-5.423-1.614c-1.291-.969-2.13-2.195-2.711-3.486-.71-1.484-1.098-3.228-1.162-5.165v-27.954c.064-1.872.452-3.615 1.162-5.101.581-1.291 1.42-2.582 2.711-3.551 1.292-.968 3.099-1.613 5.423-1.613s4.067.646 5.358 1.613c1.291.969 2.195 2.26 2.776 3.551.71 1.485 1.098 3.229 1.162 5.101v27.954zm-6.972-27.954c0-1.291-.258-2.195-.904-2.97-.323-.322-.839-.517-1.42-.517-1.227 0-1.808.904-2.066 1.743-.194.517-.258 1.098-.258 1.743v27.954c0 1.356.323 2.26.968 2.971.323.322.775.516 1.356.516 1.227 0 1.808-.774 2.066-1.743.193-.451.258-1.032.258-1.743v-27.954zM198.939 246.581h-5.423v20.659h-6.972v-47.451h6.972v19.626h5.423v-19.626h6.973v47.451h-6.973v-20.659zM211.077 219.789h6.973v47.451h-6.973v-47.451zM241.356 257.491c-.064 1.938-.452 3.681-1.162 5.165a8.873 8.873 0 0 1-2.776 3.486c-1.291 1.033-3.034 1.614-5.358 1.614s-4.132-.581-5.423-1.614c-1.291-.969-2.13-2.195-2.711-3.486-.711-1.484-1.098-3.228-1.162-5.165v-27.954c.064-1.872.451-3.615 1.162-5.101.581-1.291 1.42-2.582 2.711-3.551 1.291-.968 3.099-1.613 5.423-1.613s4.067.646 5.358 1.613c1.292.969 2.195 2.26 2.776 3.551.71 1.485 1.098 3.229 1.162 5.101v27.954zm-6.972-27.954c0-1.291-.258-2.195-.903-2.97-.323-.322-.84-.517-1.421-.517-1.227 0-1.808.904-2.065 1.743-.193.517-.259 1.098-.259 1.743v27.954c0 1.356.323 2.26.969 2.971.323.322.774.516 1.355.516 1.227 0 1.808-.774 2.066-1.743.193-.451.258-1.032.258-1.743v-27.954z"/></g></g><g id="small" fill="#FFF"><path d="M122.255 310.614l-20.01-133.977-1.16-8.99h-1.74v142.967H70.346V97.469h38.279l18.56 97.438 1.45 11.31h.58l1.449-11.31 18.56-97.438h38.279v213.145h-28.999V167.647h-1.74l-1.16 8.99-20.009 133.977h-13.34zM255.653 310.614h-24.359l-28.71-213.145h29l12.47 110.778.58 6.959h2.319l.87-6.959 13.34-110.778h22.619l13.34 110.778.87 6.959h2.32l.58-6.959 12.47-110.778h28.999l-28.71 213.145h-24.359l-14.499-100.918-1.74-12.469h-1.16l-1.739 12.469-14.501 100.918z"/></g></svg>