<svg id="SC" xmlns="http://www.w3.org/2000/svg" width="400" height="400" viewBox="0 0 400 400"><style>@media screen and (min-width:400px){#small{display:none}}@media screen and (max-width:399px){#large{display:none}}</style><circle fill="#00446A" cx="200" cy="200" r="184"/><g id="large" fill="#FFF"><path id="outline" opacity=".2" d="M377.056 149.92l-18.382-14.768-55.864-33.665-12.893-3.578-55.865 6.442-19.058 2.704-7.442-14.879-11.685-8.315-71.393 1.869-34.447 3.582-40.385 20.331-12.656 5.127a182.67 182.67 0 0 0-15.959 42.54l16.783 10.07 15.043-.714 15.039 22.917 2.15 6.447 10.742 12.889 2.146 6.445 20.053 7.88 13.611 10.029 10.025 12.892 10.029 5.729 9.311 8.592 5.727 11.462 9.312 8.594 18.621 8.596 12.176 26.5 7.165 21.485 11.46 2.864 10.025 9.311 5.728 15.757 2.869 9.311 10.872 5.439c.629-.139 1.259-.271 1.885-.416l6.574-3.587 9.311-5.728 22.202-24.354-4.299-14.326 12.893-.714 15.757-15.043 7.164-3.578 10.025-15.044 12.175-12.174 9.311-15.757 10.742-2.865 5.015-12.175 7.166-3.583 2.146-27.932 11.461-27.213 4.329-4.36a183.684 183.684 0 0 0-6.715-41.036z"/><path d="M76.19 157.867v-10.406c0-1.842-.368-3.131-1.289-4.236-.46-.46-1.197-.737-2.026-.737-1.75 0-2.579 1.29-2.947 2.486-.276.737-.368 1.565-.368 2.486v40.703c0 1.934.46 3.223 1.381 4.236.46.46 1.105.737 1.934.737 1.75 0 2.579-1.105 2.947-2.486.276-.645.368-1.474.368-2.486v-12.248h-3.959v-8.38h13.905v33.704h-5.894l-1.197-3.223c-1.842 2.302-4.512 3.959-7.735 3.959s-5.433-.828-7.091-2.302c-1.657-1.381-2.763-3.131-3.499-4.973-.829-2.118-1.197-4.604-1.105-7.367V147.46c.092-2.67.645-5.157 1.657-7.275.829-1.842 2.026-3.683 3.868-5.064s4.42-2.302 7.735-2.302 5.801.921 7.643 2.302 3.131 3.223 3.96 5.064c1.013 2.118 1.565 4.604 1.658 7.275v10.406H76.19zM111.182 201.24l-5.157-28.547h-2.67v28.547H93.41v-67.684h9.945c11.879 0 16.944 6.722 16.944 19.522 0 6.723-1.75 12.8-5.525 15.379l6.354 32.783h-9.946zm-7.828-37.755c1.381 0 3.223-.185 4.696-1.474 1.474-1.289 2.67-3.775 2.67-8.564s-1.197-7.367-2.67-8.656c-1.473-1.289-3.315-1.381-4.696-1.381v20.075zM126.651 133.557h22.745v10.222h-12.8v17.772h9.208v10.866h-9.208v18.602h12.8v10.222h-22.745v-67.684zM154.92 133.557h22.745v10.222h-12.8v17.772h9.208v10.866h-9.208v18.602h12.8v10.222H154.92v-67.684zM193.687 165.971l-.829-3.131h-.552v38.4h-9.117v-67.684h8.84l9.669 35.269.828 3.131h.553v-38.4h9.116v67.684h-8.84l-9.668-35.269zM237.611 133.557h9.669l-10.313 67.684h-9.945l-10.313-67.684h9.669l4.973 37.203.368 2.855h.553l.368-2.855 4.971-37.203zM251.791 133.557h9.945v67.684h-9.945v-67.684zM269.102 133.557h9.945v58.475h13.168v9.208h-23.113v-67.683zM296.267 133.557h9.945v58.475h13.168v9.208h-23.113v-67.683zM323.432 133.557h22.745v10.222h-12.8v17.772h9.209v10.866h-9.209v18.602h12.8v10.222h-22.745v-67.684zM67.943 232.507c0-1.549-.064-3.292-.517-4.648-.452-1.291-1.162-2.194-2.259-2.194-1.808.064-2.389 1.937-2.389 4.713 0 1.613.71 3.292 1.743 5.1 1.033 1.808 2.389 3.68 3.745 5.682 1.614 2.389 3.228 4.842 4.455 7.23s2.066 4.842 2.066 7.425c0 3.163-.517 6.133-2.001 8.328-1.485 2.194-3.874 3.615-7.683 3.615-4.455 0-6.972-1.679-8.393-4.261-1.42-2.583-1.743-6.005-1.743-9.556l6.843-.646c0 2.002.064 4.003.581 5.488.452 1.549 1.227 2.582 2.711 2.582 2.066 0 2.841-2.195 2.841-5.229 0-1.549-.775-3.356-1.808-5.229-.581-.903-1.162-1.872-1.808-2.84a224.022 224.022 0 0 1-4.39-6.521c-1.549-2.389-2.711-4.842-3.422-7.359a12.69 12.69 0 0 1-.581-3.809c0-2.583.581-5.359 2.066-7.489 1.485-2.066 3.745-3.551 7.037-3.615 4.196-.064 6.65 1.679 8.005 4.196 1.356 2.582 1.743 5.746 1.743 8.393l-6.842.644zM96.672 257.491c-.064 1.938-.452 3.681-1.162 5.165a8.882 8.882 0 0 1-2.776 3.486c-1.291 1.033-3.034 1.614-5.358 1.614s-4.132-.581-5.423-1.614c-1.291-.969-2.13-2.195-2.711-3.486-.71-1.484-1.098-3.228-1.162-5.165v-27.954c.064-1.872.452-3.615 1.162-5.101.581-1.291 1.42-2.582 2.711-3.551 1.292-.968 3.099-1.613 5.423-1.613s4.067.646 5.358 1.613c1.291.969 2.195 2.26 2.776 3.551.71 1.485 1.098 3.229 1.162 5.101v27.954zM89.7 229.537c0-1.291-.258-2.195-.904-2.97-.323-.322-.839-.517-1.42-.517-1.227 0-1.808.904-2.066 1.743-.194.517-.258 1.098-.258 1.743v27.954c0 1.356.323 2.26.968 2.971.323.322.775.516 1.356.516 1.227 0 1.808-.774 2.066-1.743.193-.451.258-1.032.258-1.743v-27.954zM119.915 219.789v37.702c-.065 1.938-.452 3.681-1.162 5.165a8.882 8.882 0 0 1-2.776 3.486c-1.291 1.033-3.034 1.614-5.358 1.614s-4.132-.581-5.423-1.614c-1.292-.969-2.131-2.195-2.712-3.486-.71-1.484-1.097-3.228-1.162-5.165v-37.702h6.972v37.702c0 1.356.323 2.26.968 2.971.323.322.775.516 1.356.516 1.227 0 1.808-.774 2.066-1.743.194-.451.258-1.032.258-1.743V219.79h6.973zM122.562 226.955v-7.166h20.143v7.166h-6.585v40.285h-6.972v-40.285h-6.586zM157.813 246.581h-5.423v20.659h-6.972v-47.451h6.972v19.626h5.423v-19.626h6.972v47.451h-6.972v-20.659zM198.035 250.971v6.521c-.064 1.938-.452 3.681-1.162 5.165a8.882 8.882 0 0 1-2.776 3.486c-1.292 1.033-3.034 1.614-5.358 1.614s-4.132-.581-5.423-1.614c-1.291-.969-2.13-2.195-2.711-3.486-.71-1.484-1.098-3.228-1.162-5.165v-27.954c.064-1.872.452-3.615 1.162-5.101.581-1.291 1.42-2.582 2.711-3.551 1.292-.968 3.099-1.613 5.423-1.613s4.067.646 5.358 1.613c1.291.969 2.195 2.26 2.776 3.551.71 1.485 1.098 3.229 1.162 5.101v6.521h-6.521v-6.521c0-1.291-.323-2.195-1.033-2.97-.323-.322-.904-.517-1.614-.517-1.227 0-1.808.904-2.13 1.743-.194.517-.258 1.098-.323 1.743v27.954c.064 1.356.452 2.26 1.098 2.971.323.322.774.516 1.355.516 1.485 0 2.066-.774 2.389-1.743.194-.451.258-1.032.258-1.743v-6.521h6.521zM200.295 267.24l7.167-47.451h8.521l7.166 47.451h-6.778l-1.291-9.684h-6.715l-1.291 9.684h-6.779zm11.815-32.021l-.194-1.227h-.387l-.194 1.227-2.001 14.978h4.777l-2.001-14.978zM238.838 267.24l-3.615-20.014h-1.872v20.014h-6.973v-47.451h6.973c8.328 0 11.879 4.713 11.879 13.687 0 4.713-1.227 8.974-3.873 10.781l4.454 22.983h-6.973zm-5.487-26.469c.969 0 2.26-.129 3.293-1.033 1.033-.903 1.872-2.646 1.872-6.004 0-3.356-.839-5.165-1.872-6.068-1.033-.904-2.324-.969-3.293-.969v14.074zM267.827 257.491c-.064 1.938-.452 3.681-1.162 5.165a8.873 8.873 0 0 1-2.776 3.486c-1.291 1.033-3.034 1.614-5.358 1.614s-4.132-.581-5.423-1.614c-1.291-.969-2.13-2.195-2.711-3.486-.711-1.484-1.098-3.228-1.162-5.165v-27.954c.064-1.872.451-3.615 1.162-5.101.581-1.291 1.42-2.582 2.711-3.551 1.291-.968 3.099-1.613 5.423-1.613s4.067.646 5.358 1.613c1.292.969 2.195 2.26 2.776 3.551.71 1.485 1.098 3.229 1.162 5.101v27.954zm-6.973-27.954c0-1.291-.258-2.195-.903-2.97-.323-.322-.84-.517-1.421-.517-1.227 0-1.808.904-2.065 1.743-.193.517-.259 1.098-.259 1.743v27.954c0 1.356.323 2.26.969 2.971.323.322.774.516 1.355.516 1.227 0 1.808-.774 2.066-1.743.193-.451.258-1.032.258-1.743v-27.954zM272.54 219.789h6.973v40.995h9.232v6.456H272.54v-47.451zM291.586 219.789h6.973v47.451h-6.973v-47.451zM311.084 242.514l-.581-2.195h-.388v26.922h-6.392V219.79h6.198l6.778 24.727.581 2.194h.388V219.79h6.392v47.451h-6.198l-6.778-24.727zM327.289 267.24l7.166-47.451h8.522l7.166 47.451h-6.779l-1.291-9.684h-6.714l-1.291 9.684h-6.779zm11.815-32.021l-.193-1.227h-.388l-.193 1.227-2.002 14.978h4.777l-2.001-14.978z"/></g><g id="small" fill="#FFF"><path d="M169.262 154.947c0-6.959-.29-14.79-2.32-20.879-2.03-5.8-5.22-9.86-10.149-9.86-8.12.29-10.73 8.7-10.73 21.17 0 7.25 3.19 14.79 7.83 22.909 4.64 8.12 10.729 16.53 16.819 25.52 7.25 10.729 14.5 21.749 20.01 32.479 5.51 10.729 9.28 21.749 9.28 33.349 0 14.21-2.32 27.55-8.99 37.409-6.67 9.86-17.399 16.24-34.509 16.24-20.01 0-31.319-7.54-37.699-19.14s-7.83-26.97-7.83-42.919l30.739-2.9c0 8.99.29 17.979 2.61 24.649 2.029 6.96 5.51 11.6 12.18 11.6 9.279 0 12.76-9.859 12.76-23.489 0-6.96-3.48-15.08-8.12-23.489-2.61-4.06-5.22-8.41-8.12-12.76-6.09-8.7-12.76-18.56-19.719-29.289-6.96-10.73-12.18-21.75-15.37-33.06-1.74-5.51-2.61-11.31-2.61-17.109 0-11.6 2.61-24.07 9.28-33.64 6.67-9.28 16.819-15.949 31.609-16.239 18.85-.29 29.869 7.54 35.959 18.85 6.09 11.6 7.83 25.809 7.83 37.699l-30.74 2.899zM216.818 97.819h71.629v32.189h-40.31v55.969h28.999v34.22h-28.999v58.578h40.31v32.189h-71.629V97.819z"/></g></svg>