<svg id="TX" xmlns="http://www.w3.org/2000/svg" width="400" height="400" viewBox="0 0 400 400"><style>@media screen and (min-width:400px){#small{display:none}}@media screen and (max-width:399px){#large{display:none}}</style><circle fill="#FEC429" cx="200" cy="200" r="184"/><g id="large" fill="#FFF"><path id="outline" opacity=".2" d="M273.202 327.453l-.078 7.774 1.814 9.136 4.442 10.572 1.134 7.713.358 2.165-1.313.435-1.409-10.612-4.682-10.562-1.402-10.489 1.651-12.473 4.426-10.554 4.78-8.387 4.441-5.575.989.312-6.623 10.304-6.025 10.154-2.503 10.087zm65.756-68.053l3.034-2.345 3.721-3.109 1.303-2.984 14.417-7.557 8.359-2.819-.716-5.225 1.991-5.119.419-11.146.761-3.551-2.465-3.105 3.907-7.729.435-12.611-1.18-1.117-.541-4.697-6.752-7.964-1.735-7.346-4.354-6.41-1.339-5.346-1.775-14.23-.704-14.537-1.327-9.103-4.121-1.493-4.455 2.227-3.822-2.799-2.329-1.079-4.348-.988-5.435-2.785-3.104-3.448-2.829-.462-2.116 3.159-6.076.318-1.403-2.339-1.655.021-4.027 3.376-2.783-1.252-6.674.284-.873 3.824-2.681 1.605-5.224-1.522-5.088-1.419-5.941-.688-2.004-3.003-1.362-.049-.511.026-1.906 6.376-2.323 1.273-9.647-2.669-1.589-3.575-3.343.123-3.242-.753-3.331 3.261-3.378-1.012.084-2.959-1.636-.394-3.58-4.658-5.628-.627-3.02 3.276-3.731-2.926-5.965-.476-4.477-1.563-6.132.181.227-5.972-1.739-.522-2.578-1.318.119 2.168-3.168.1-1.851-2.612-.415 2.751-1.731.933-3.089-2.012-6.808-5.378-.267-3.114-.983-27.219 1.652-35.324-46.671.734-13.118.061a183.245 183.245 0 0 0-21.555 10.218l-.589 18.019-1.45 83.533-1.814 29.332-43.624-.111-43.713-1.825-.766-.025a183.85 183.85 0 0 0-1.888 13.854l1.525 3.883 7.202 3.021 2.191 4.743 11.28 11.307 2.064 2.321 7.673 2.752 1.861 3.059 2.498 1.326.943 4.08 5.351 9.433.637 12.109 3.761 6.845 11.75 11.041 7.916 2.741 2.817 2.766.05.969 5.99 3.085 2.958.815 2.755 1.557 3.95 1.249 3.443-3.823 6.056-9.545 1.159-5.649 3.137-5.021 5.214-2.46 6.641-3.02 4.78 3.148 11.192.384 10.261 1.16 4.04 2.946.087 1.694 4.119 4.397 9.381 7.521.358 2.169 2.815 2.765 1.542 6.232 8.958 17.986-.089 2.92 6.5 3.543 5.849 9.65 5.431 6.271 4.943 1.685 2.603 3.263-1.594 6.642 1.044 1.401 1.988.868-.217 5.11-.917 1.021 1.146 3.339 4.997 2.652 2.446 9.585 3.454 5.647 11.647 4.488 7.841 1.287 6.538 4.271 4.896.713 1.897-.827 8.323 1.262 5.914 3.614a182.402 182.402 0 0 0 8.563-3.776l-2.788-3.853-1.937-9.125-3.21-10.274-1.402-3.57.854-6.845 1.389-5.901 1.583-6.883 1.746-8.348-3.543-2.729 1.299-2.98 6.03-.803 5.381-8.541 5.034-1.234 8.438-5.788 2.55-2.319 9.179-5.581 8.283-4.079 7.739-5.264 3.95-3.366 8.056-8.436 1.876-1.309z"/><path d="M72.06 146.33H58.948v16.983h8.8v9.768h-8.8v28.159h-9.503v-64.678H72.06v9.768zM100.659 187.953c-.088 2.64-.616 5.016-1.584 7.04a12.108 12.108 0 0 1-3.784 4.752c-1.76 1.408-4.136 2.2-7.304 2.2s-5.632-.792-7.392-2.2c-1.76-1.32-2.904-2.992-3.696-4.752-.968-2.024-1.496-4.399-1.584-7.04V149.85c.088-2.552.616-4.928 1.584-6.952.792-1.76 1.936-3.52 3.696-4.84 1.76-1.32 4.224-2.2 7.392-2.2s5.543.88 7.304 2.2c1.76 1.32 2.992 3.08 3.784 4.84.968 2.024 1.496 4.4 1.584 6.952v38.103zm-9.503-38.103c0-1.76-.352-2.992-1.232-4.048-.44-.44-1.144-.704-1.936-.704-1.672 0-2.464 1.232-2.816 2.376-.264.704-.352 1.496-.352 2.376v38.103c0 1.848.44 3.08 1.32 4.048.44.44 1.056.704 1.848.704 1.672 0 2.464-1.056 2.816-2.376.264-.616.352-1.408.352-2.376V149.85zM124.066 201.24l-4.928-27.279h-2.552v27.279h-9.503v-64.678h9.503c11.352 0 16.192 6.424 16.192 18.656 0 6.424-1.672 12.231-5.28 14.695l6.072 31.327h-9.504zm-7.48-36.079c1.32 0 3.08-.176 4.488-1.408 1.408-1.232 2.552-3.608 2.552-8.184 0-4.576-1.144-7.04-2.552-8.271-1.408-1.232-3.168-1.32-4.488-1.32v19.183zM135.506 146.33v-9.768h27.456v9.768h-8.976v54.91h-9.503v-54.91h-8.977zM193.849 201.24h-7.392l-8.711-64.678h8.8l3.784 33.615.176 2.112h.704l.264-2.112 4.048-33.615h6.864l4.047 33.615.265 2.112h.704l.176-2.112 3.784-33.615h8.8l-8.712 64.678h-7.392l-4.4-30.623-.528-3.784h-.352l-.528 3.784-4.401 30.623zM249.464 187.953c-.088 2.64-.616 5.016-1.584 7.04a12.099 12.099 0 0 1-3.784 4.752c-1.76 1.408-4.136 2.2-7.304 2.2s-5.632-.792-7.392-2.2c-1.76-1.32-2.903-2.992-3.695-4.752-.969-2.024-1.496-4.399-1.584-7.04V149.85c.088-2.552.615-4.928 1.584-6.952.792-1.76 1.936-3.52 3.695-4.84s4.224-2.2 7.392-2.2 5.544.88 7.304 2.2c1.761 1.32 2.992 3.08 3.784 4.84.968 2.024 1.496 4.4 1.584 6.952v38.103zm-9.504-38.103c0-1.76-.352-2.992-1.231-4.048-.44-.44-1.145-.704-1.937-.704-1.672 0-2.464 1.232-2.815 2.376-.264.704-.353 1.496-.353 2.376v38.103c0 1.848.44 3.08 1.32 4.048.44.44 1.056.704 1.848.704 1.672 0 2.464-1.056 2.816-2.376.264-.616.352-1.408.352-2.376V149.85zM272.871 201.24l-4.928-27.279h-2.552v27.279h-9.504v-64.678h9.504c11.352 0 16.191 6.424 16.191 18.656 0 6.424-1.672 12.231-5.279 14.695l6.071 31.327h-9.503zm-7.479-36.079c1.32 0 3.08-.176 4.488-1.408s2.552-3.608 2.552-8.184c0-4.576-1.144-7.04-2.552-8.271s-3.168-1.32-4.488-1.32v19.183zM284.312 146.33v-9.768h27.455v9.768h-8.976v54.91h-9.504v-54.91h-8.975zM332.358 173.081h-7.392v28.159h-9.504v-64.678h9.504v26.751h7.392v-26.751h9.504v64.678h-9.504v-28.159zM356.559 201.24l-4.84 11.439h-4.4l3.08-11.439h-3.08v-9.768h9.24v9.768zM147.871 226.955v-7.166h20.143v7.166h-6.585v40.285h-6.972v-40.285h-6.586zM170.726 219.789h15.946v7.166h-8.974v12.46h6.456v7.618h-6.456v13.041h8.974v7.166h-15.946v-47.451zM195.324 267.24h-6.843l7.683-24.92-7.554-22.531h6.843l3.809 12.008.194.581h.258l.193-.581 3.81-12.008h6.843l-7.554 22.531 7.683 24.92h-6.843l-4.003-14.139-.129-.581h-.258l-.129.581-4.003 14.139zM211.852 267.24l7.166-47.451h8.522l7.166 47.451h-6.779l-1.291-9.684h-6.714l-1.291 9.684h-6.779zm11.814-32.021l-.193-1.227h-.388l-.193 1.227-2.002 14.978h4.777l-2.001-14.978zM248.846 232.507c0-1.549-.064-3.292-.517-4.648-.452-1.291-1.162-2.194-2.26-2.194-1.808.064-2.389 1.937-2.389 4.713 0 1.613.71 3.292 1.743 5.1s2.389 3.68 3.745 5.682c1.613 2.389 3.228 4.842 4.454 7.23s2.066 4.842 2.066 7.425c0 3.163-.517 6.133-2.002 8.328-1.484 2.194-3.873 3.615-7.683 3.615-4.454 0-6.973-1.679-8.393-4.261-1.42-2.583-1.743-6.005-1.743-9.556l6.844-.646c0 2.002.064 4.003.581 5.488.451 1.549 1.227 2.582 2.711 2.582 2.066 0 2.841-2.195 2.841-5.229 0-1.549-.774-3.356-1.808-5.229-.581-.903-1.162-1.872-1.808-2.84a228.048 228.048 0 0 1-4.391-6.521c-1.549-2.389-2.711-4.842-3.421-7.359a12.659 12.659 0 0 1-.581-3.809c0-2.583.581-5.359 2.065-7.489 1.485-2.066 3.744-3.551 7.037-3.615 4.196-.064 6.649 1.679 8.006 4.196 1.355 2.582 1.743 5.746 1.743 8.393l-6.84.644z"/></g><g id="small" fill="#FFF"><path d="M98.071 130.008V97.819h90.478v32.189H158.97v180.956h-31.32V130.008H98.071zM222.189 310.964H191.45l34.509-111.938L192.03 97.819h30.739l17.109 53.938.87 2.61h1.159l.87-2.61 17.11-53.938h30.739l-33.93 101.208 34.509 111.938h-30.739l-17.979-63.509-.58-2.609h-1.159l-.58 2.609-17.979 63.508z"/></g></svg>