<?xml version="1.0" encoding="utf-8"?>
<!-- Generator: Adobe Illustrator 16.0.0, SVG Export Plug-In . SVG Version: 6.00 Build 0)  -->
<!DOCTYPE svg PUBLIC "-//W3C//DTD SVG 1.1//EN" "http://www.w3.org/Graphics/SVG/1.1/DTD/svg11.dtd">
<svg version="1.1" xmlns="http://www.w3.org/2000/svg" xmlns:xlink="http://www.w3.org/1999/xlink" x="0px" y="0px"
	 width="967.451px" height="628.468px" viewBox="-14.385 -26.393 967.451 628.468"
	 enable-background="new -14.385 -26.393 967.451 628.468" xml:space="preserve">
<style>
    .locations-map a {
        transform-origin: bottom center;
        transition: all .3s ease;
    }
    .locations-map a:active,
    .locations-map a:focus,
    .locations-map a:hover { 
        transform:scale(1.1);
    }
</style>
<g id="map" xmlns:svg="http://www.w3.org/2000/svg">
	<path fill="#D3D3D3" d="M805.216,266.062l0.202-0.659l4.312-0.062l3.071,0.97l2.102,0.324l0.97-2.102l-1.455-2.102v-1.778
		l-2.425-2.102l-2.102-5.497l1.293-5.335l-0.161-2.102l-1.293-1.293c0,0,1.454-1.617,1.454-2.264c0-0.646,0.485-2.102,0.485-2.102
		l1.94-1.293l1.939-1.617l0.485,0.97l-1.455,1.616l-1.294,3.718l0.324,1.132l1.777,0.323l0.485,5.497l-2.102,0.97l0.323,3.557
		l0.485-0.162l1.132-1.94l1.616,1.778l-1.616,1.293l-0.324,3.395l2.587,3.395l3.88,0.485l1.617-0.808l3.236,4.183l1.358,0.536
		l0.697,0.31l0.144,1.947l-0.767,3.098l-1.587,4.183l-0.446,5.449l1.471,4.641l2.164-1.916l1.828-4.978l-0.462-3.391l0.418-4.586
		l2.92-3.779l0.771-3.218l-0.497-0.557l2.008-4.023l0.227-4.864l-0.226-0.714l-2.265-7.355l-0.97,0.485l-3.557-2.425l-1.778-4.688
		l-1.939-3.557l-2.264-0.97l-2.102-3.556l0.499-2.102l0.511,0.504l1.092,2.244l3.233,2.91l4.85,2.264l4.042,0.646l0.161,1.455
		l-0.808,0.97l0.323,2.748h0.808l2.102-2.425l0.809-4.85l2.748-4.042l3.072-6.466l1.131-5.497l-0.646-1.132l-0.161-9.376
		l-1.617-3.395l-1.132,0.808l-2.748,0.324l-0.484-0.485l1.131-0.97l2.102-1.94l0.063-1.094l0.54-0.086l1.175,0.533l4.042-1.131
		l5.819-1.94l2.587-0.97l7.113-5.335l3.88-2.91l3.395-3.556l-4.203-1.617l-1.293,1.455l-2.91,2.748l-7.922,3.88l-2.263-0.162
		l-1.617-0.647l-1.131,0.647l-2.264,2.586l-1.455,1.293l-1.293,0.323l-0.323-1.293l1.939-1.778l-0.796-1.678l1.014,0.23l4.956-3.401
		l3.556-3.233l1.94-2.102l0.809,0.646l2.748-1.455l5.173-1.132l7.045-3.491l0.877-0.227l2.909-0.97l2.425-1.94l1.132-1.778
		l1.294,0.162l2.91-1.536l0.52-0.373l2.066-1l-0.485-2.263l0.809-1.455l2.91-1.455l0.808,3.072l-0.484,1.778l-2.425,1.455v0.97
		l1.939-1.455l3.88-4.526l3.88-1.94l4.203-1.455l-0.323-2.425l-0.97-2.91l-1.94-2.425l-1.778-0.808l-2.102,0.162l-0.484,0.485
		l0.97,1.293l1.455-0.809l2.102,1.617l0.809,2.749l-1.778,1.778l-2.264,0.97l-3.557-0.485l-3.88-5.981l-2.263-2.586h-1.778
		l-1.132,0.808l-1.94-2.586l0.324-1.455l2.425-5.173l-2.89-4.413l-0.566-0.492l0.869-1.077l1.09-3.291l0.373-1.119l1.124-6.259
		l0.161-4.365l1.455-1.293l-0.97-3.233l3.071-3.556l1.617,1.455l1.293-0.485l5.335-3.071l0.323-2.91l2.91-0.485l1.616-2.586
		l-0.162-1.617l-0.323-3.072l0.809-1.293l-0.323-1.132l-1.293-1.455l2.102-1.293l1.778,3.233l1.454-0.323l0.323,1.293v1.617
		l1.94,0.162l0.485-2.749l0.484-0.646l-1.616-1.455l0.97-1.455l2.425-1.455l0.97-1.455l1.778-0.162c0,0,0.323,2.102,0.971,2.102
		c0.646,0,1.293,0,1.293,0l4.85-5.497l3.395-3.071l1.94-0.647l2.102-4.688v-1.94l-2.264-3.718l-1.939-2.102l-2.748,0.162
		l0.484,1.132l-0.161,0.485h-0.809l-2.91-2.263l-0.161-4.85l-0.809-1.94h-5.981l-9.053-29.907l-1.94-0.97l-5.981-2.425l-1.454-0.162
		l-1.778,1.778l-4.042,2.91v0.97l-0.809,0.808l-2.748-0.646l-1.293-2.263v-1.132l-1.293-0.162h-1.294l-2.102,4.203l-2.909,8.892
		l-1.778,4.85l0.161,4.85l0.162,1.455l-0.809,2.749l-0.809,0.97v5.981l1.94,2.425l-1.455,4.042l-2.587,4.688l-0.809,5.496v2.587
		l-1.514-0.41l-1.42,0.118l-0.857,0.458l-0.896-0.005l-0.646,1.617l-0.646-0.485l-0.971-0.97l-1.455,1.94l-0.048,5.032l-0.921,0.302
		l-26.247,6.748l-0.622,0.396l-7.565,2.071l-4.526,1.455l-3.233-0.162l-5.496,1.293l-3.082,1.246l-2.415,1.826l-2.102,2.425
		l-2.748,3.718l-2.91,4.526l-1.454,2.91l-0.647,0.808l-5.819,5.497l0.162,2.586l0.808,1.132l1.778,0.808h1.778v1.455l-1.132,2.102
		l0.323,1.455l1.455,2.102l-0.161,2.263l-1.94,1.131h-2.102l-1.616,1.94l-1.778,3.233l-2.102,1.778l-5.173,0.485l-2.587,1.131
		l-2.102,1.293l-1.617-0.162l-1.939-1.293l-6.305,0.161l-3.233,0.485l-4.041,1.293l-4.365,1.455l-2.91,1.778l1.94,6.143l1.778,0.162
		l1.293,3.072l0.162,0.97l-1.132,0.97l-2.102,2.748l-0.485,1.617l-1.939,1.778l-1.778,1.131l-0.971,1.617l-1.293,1.132l-1.428,1.125
		l-1.006,0.519l-5.487,5.63l-1.294,0.485l-4.202,3.009l-1.021-0.111l-6.093,4.053l-3.88,2.263l-3.396,3.718l-4.041,3.88
		l-3.233,0.808l-2.91,0.485l-5.496,2.586l-2.102,0.162l-3.395-3.071l-5.174,0.646l-2.586-1.455l-2.382-1.351l-1.151-0.325
		l0.138-0.587l0.162-1.455l2.102-3.718l2-1.738l-0.222-5.052l1.597-1.597l1.091-0.343l0.222-3.557l1.536-3.031l1.051,0.606
		l0.162,0.646l0.808,0.162l1.94-0.97l-0.323-9.538l-3.233-8.245l-2.264-9.053l-2.425-3.233l-2.586-1.778l-1.617,1.132l-3.88,1.778
		l-1.939,5.011l-2.748,3.718l-1.132,0.646l-1.455-0.646c0,0-2.587-1.455-2.425-2.102c0.161-0.646,0.484-5.012,0.484-5.012
		l3.396-1.293l0.808-3.395l0.647-2.586l2.425-1.617l-0.323-10.023l-1.617-2.263l-1.293-0.809l-0.809-2.102l0.809-0.808l1.616,0.323
		l0.162-1.617l-2.425-2.263l-1.294-2.586h-2.586l-4.526-1.455l-5.497-3.395h-2.748l-0.646,0.647l-0.97-0.485l-3.072-2.264
		l-2.909,1.778l-2.91,2.263l0.323,3.557l0.97,0.323l2.102,0.485l0.485,0.809l-2.587,0.808l-2.586,0.324l-1.455,1.778l-0.323,2.102
		l0.323,1.616l0.323,5.497l-3.557,2.102l-0.646-0.162v-4.203l1.293-2.425l0.646-2.425l-0.808-0.809l-1.94,0.809l-0.97,4.203
		l-2.748,1.131l-1.778,1.94l-0.162,0.97l0.646,0.809l-0.646,2.586l-2.263,0.485v1.132l0.808,2.425l-1.131,6.143l-1.617,4.042
		l0.646,4.688l0.485,1.131l-0.809,2.425l-0.323,0.808l-0.323,2.748l3.557,5.981l2.91,6.466l1.455,4.85l-0.809,4.688l-0.97,5.981
		l-2.425,5.173l-0.324,2.748l-3.259,3.085l-1.024,0.794l-2.829,1.617l-2.102,1.94l-1.132,0.323l-1.455-0.97l-3.071-0.889
		l-0.859,0.194l-0.272-0.921l-0.809-2.587l-1.293-3.718l-1.617-1.778l-1.454-2.587l-0.233-5.489l-0.299-1.079l0.37-2.97
		l-1.616-4.527l-0.646-6.143l-1.132-2.425l0.97-3.072l0.809-2.91l1.455-2.586l-0.647-3.395l-0.646-3.557l0.485-1.778l1.939-2.425
		l0.162-2.748l-0.809-1.293l0.646-2.586l0.485-3.233l2.748-5.658l2.91-6.79l0.161-2.263l-0.323-0.97l-0.808,0.485l-4.203,6.305
		l-2.749,4.042l-1.939,1.778l-0.809,2.263l-1.455,0.808l-1.131,1.94l-1.455-0.323l-0.162-1.778l1.294-2.425l2.102-4.688l1.777-1.617
		l1.102-2.292l0.567-0.892l3.182-7.001l0.97-4.042l1.939-4.365l0.809-0.162l1.132,1.617h0.646l4.526-2.425l1.455,1.617l0.485,0.162
		l1.293-1.131l1.132-3.072l2.425-0.808l6.951-0.647l1.94-2.586l5.173-0.162l5.819,1.293h1.778l3.233-1.455l2.264,0.162l2.102-0.647
		l3.718,0.485l0.809,0.323l1.293-0.323l-1.293-0.97l-1.294-0.646l-3.232-3.072v-6.951l-1.455-0.485l-1.132,1.131l-6.144,1.617
		l-1.939,0.485l-2.91-0.808l-0.484-0.323v-5.658l-1.455-0.162l-2.587,1.293l-4.526,1.94l-6.628,0.323l-3.395,1.131l-4.042,3.557
		l-1.616,0.97h-1.132l-1.293,0.808l-1.617-0.485l-1.616-1.293l-1.455,0.97l-3.88,0.161l-2.748-2.748l-1.455-3.071l-1.455-1.132
		l-3.233-0.97h-2.263l-1.294-1.293l-3.557,2.91l-0.97,1.132l-0.809-0.485l0.324-2.587l2.425-3.233l0.484-2.425l2.264-0.809
		l1.455-3.071l3.718-0.97l0.323-0.97l-1.132-1.132l-4.688,0.485l-4.365,2.425l-2.263,2.264l-1.294,1.778l-1.778,0.808l-1.939,2.91
		l-0.162,1.293l-4.364,2.102l-2.425,1.94l-5.981,0.97l-0.647,0.646v0.97l-3.556,2.263l-2.749,0.809l-0.716,0.581l-1.018,0.421
		l-0.529,1.261l-1.132-0.162l-0.646-1.132l-2.748-0.808l-1.132,0.162l-1.778,0.97l-0.97-0.647l0.646-1.94l1.939-3.071l1.132-1.132
		l-1.939-1.455l-2.102,0.808l-2.91,1.94l-7.437,3.233l-2.91,0.646l-2.909-0.485l-0.982-0.878l-0.435-0.553l3.842-2.934l1.293-0.162
		l4.526-5.011l1.778-0.809l2.264-3.88l2.425-3.556l3.071-2.587l4.774-2.007l9.246-4.061l3.938-1.837l0.612-2.28l-4.439,0.371
		l-0.714,1.084h-0.646l-1.778-3.071l-8.892,0.323l-0.97,0.808h-0.97l-0.485-1.293l-0.809-1.778l-2.586,0.485l-3.233,3.233
		l-1.617,0.809h-3.071l-2.587-0.97v-2.102l-1.293-0.162l-0.484,0.485l-2.587-1.293l-0.485-2.91l-1.455,0.485l-0.484,0.97
		l-2.425-0.485l-5.335-2.425l-3.88-2.587h-2.91l-1.293-0.97l-2.264,0.646l-1.132,1.132l-0.323,1.293h-4.85v-2.102l-6.305-0.323
		l-0.323-1.455h-4.85l-1.617-1.616l-1.454-6.143l-0.809-5.497l-1.94-0.809l-2.263-0.485l-0.646,0.162l-0.323,8.245l-30.133-0.035
		l-1.097-0.047l-28.424-0.564l-18.591-0.646l-26.513-1.293l-24.946-1.884l-1.283-0.481l-30.675-2.808l-29.26-3.556l-29.261-4.042
		l-32.332-5.335l-18.429-3.395l-32.724-6.933l-1.124-0.161l-12.996-2.528l-0.72-0.402l-15.161-3.395l-22.956-5.658l-20.046-5.658
		l-8.568-1.94l-9.7-2.748l-4.365-1.455L92.441,7.17l-0.323,0.809l2.425,4.85l1.132,2.586l-1.778,3.557v2.263l0.646,1.455
		l-0.808,1.778l0.485,3.233l0.97,1.293l-0.162,1.293l-1.455,0.162l-0.646-1.94l-1.132-2.425l-1.778-1.455l0.323-2.102l2.264-0.485
		l-0.324-1.778l-0.323-1.132l-2.102,1.293l-1.293,1.131v2.425l-2.263,0.162l-3.395-0.97l-2.91-1.455l-3.071-0.647l-4.527-2.102
		l-3.233-1.94l-2.749-2.586l-2.425-2.91l-2.102-0.485l-2.263,9.376l1.778,3.233v7.922l-0.646,2.91l1.455,7.113l2.749,2.749
		l-4.365,0.646l-0.162,3.718l2.587,1.132l-1.617,4.042l-2.748,0.323l-0.324,2.91l2.264,2.91l-2.102,2.586l-2.263,6.466
		l-3.233,10.023l-3.233,6.466L44.752,99.64l-6.467,13.58l-8.083,12.61l-1.94,2.91l-0.808,8.568l-1.293,5.981l2.708,3.527
		l-0.481,0.963l-1.58,4.725l-0.162,7.437l-5.173,11.801l-3.072,2.587l-0.323,1.131l-1.778,0.809l-1.455,4.203l-0.809,3.233
		l2.749,4.203l1.616,4.203l1.132,3.557l-0.323,6.467l-1.778,3.071l-0.646,5.82l-0.97,3.718l1.778,3.88l2.748,4.526l2.264,4.85
		l1.293,4.042l-0.323,3.233l-0.323,0.485v2.102l5.658,6.305l-0.485,2.425l-0.646,2.263l-0.646,1.94l0.162,8.245l2.102,3.718
		l1.94,2.586l2.748,0.485l0.97,2.749l-1.132,3.557l-2.102,1.616h-1.131l-0.809,3.88l0.485,2.91l3.233,4.365l1.617,5.334l1.455,4.688
		l1.293,3.071l3.395,5.819l1.455,2.588l0.485,2.909l1.617,0.97v2.426l-0.809,1.939l-1.778,7.113l-0.485,1.939l2.425,2.748
		l4.203,0.485l4.527,1.778l3.88,2.102h2.91l2.91,3.071l2.586,4.851l1.131,2.263l3.88,2.102l4.85,0.808l1.455,2.102l0.646,3.234
		l-1.455,0.646l0.323,0.97l3.233,0.808l2.748,0.162l2.91,4.688l3.88,4.203l0.808,2.263l2.586,4.203l0.324,3.233v9.376l0.485,1.779
		l10.023,1.455l19.723,2.748l13.907,0.975l1.006,0.746l-2.627,2.158l-0.323,1.455l0.485,0.971l18.914,10.669l12.125,7.599
		l14.711,8.567l16.812,10.023l12.286,2.425l25.128,2.705l1.605,0.802l15.46,1.989l1.293-10.022l16.651,2.586l12.456,1.618
		l0.962-0.001l1.94,0.484l2.586,2.91l1.455,4.365l4.688,2.263l1.293,3.233l7.113,7.922l1.293,1.616l5.011,2.102l1.132,2.102
		l1.616,0.97l0.485,2.749l3.233,6.466v8.083l2.263,4.688l7.437,7.76l5.174,2.102l1.777,1.939v0.646l3.88,2.264l1.94,0.646
		l1.778,1.132l2.587,0.97l2.425-2.425l4.364-6.143l0.97-3.719l2.264-3.233l3.557-1.455l4.526-1.777l3.071,2.263l7.437,0.646
		l6.79,1.132l2.587,2.102v1.132l2.586,3.071l5.981,5.335l0.162,1.455l1.778,1.939l0.808,4.203l5.335,12.286l-0.161,1.94l4.203,2.586
		l3.557,6.629l3.395,4.364l3.233,1.294l1.616,2.263l-1.293,4.365l0.646,0.97l1.293,0.646l-0.323,3.395l-0.646,0.647l0.646,2.263
		l3.233,1.94l1.293,6.466l2.102,3.88l7.599,3.396l5.173,1.131l4.203,3.072l3.233,0.646l1.293-0.485l5.497,1.132l5.657,3.88
		l3.072-1.94l0.97-1.454l-1.778-2.749l-0.97-6.143l-1.778-6.951l-0.809-2.425l0.809-4.527l1.132-3.88l1.293-4.526l1.455-5.496
		l-2.264-1.94l0.971-1.939l4.041-0.323l3.88-5.496l3.395-0.647l5.82-3.557l1.778-1.454l6.305-3.396l5.658-2.425l5.335-3.233
		l2.748-2.102l5.658-5.334l1.293-0.809l2.102-1.455l2.587-1.94l0.97-1.939l9.861-4.526l5.665-1.585l0.642-0.128l4.687-1.521
		l8.083-0.323l10.346,3.557l6.467,1.132l3.718-1.455l3.233,1.132l3.233,0.97l0.809-2.102l-3.233-1.132l-2.587,0.485l-2.748-1.617
		c0,0,0.161-1.293,0.809-1.455c0.646-0.161,3.071-0.97,3.071-0.97l1.778,1.455l1.778-0.97l3.233,0.646l1.454,2.425l0.324,2.264
		l4.526,0.323l1.778,1.778l-0.809,1.616l-1.293,0.809l1.616,1.616l8.406,3.557l3.557-1.293l0.97-2.425l2.587-0.647l1.778-1.454
		l1.293,0.97l0.809,2.91l-2.264,0.808l0.646,0.646l3.396-1.293l2.263-3.395l0.809-0.485l-2.102-0.323l0.809-1.616l-0.162-1.455
		l2.102-0.485l1.132-1.293l0.646,0.808c0,0-0.161,3.072,0.646,3.072c0.809,0,4.203,0.646,4.203,0.646l4.042,1.939l0.97,1.455h2.91
		l1.132,0.971l2.263-3.072v-1.455h-1.293l-3.396-2.748l-5.819-0.809l-3.233-2.263l1.132-2.748l2.264,0.323l0.161-0.646l-1.778-0.971
		v-0.484h3.233l1.778-3.071l-1.293-1.94l-0.323-2.748l-1.455,0.161l-1.94,2.102l-0.646,2.587l-3.071-0.646l-0.971-1.778l1.778-1.94
		l2.021-1.777l0.756-0.516l1.103-0.778l2.587-4.203l1.778,0.809l6.79-1.94l2.102,0.323l1.455,0.809h5.173l0.254-1.256l1.039-0.199
		h2.748l0.647,0.162l1.293-2.748l1.455-4.365l2.263,0.646l3.072,5.981v0.97l-2.749,1.94l2.749,0.323l5.542-2.573l0.678,0.114
		l3.479-0.612l5.981-2.102l5.981-0.485l4.365-0.646l7.598,1.778l8.083,3.88l1.616,1.455l2.91,1.132l1.617,1.939l0.323,2.748
		l3.232-1.293h3.88l3.557-1.94l3.719-3.557l3.071,0.162l0.485-1.132l-0.809-0.97l0.161-1.94l4.042-0.808h2.586l2.91,1.455
		l4.203,1.455l2.425,3.718l2.749,0.97l1.131,3.396l3.396,1.616l1.616,2.587l1.94,0.646l5.173,1.293l1.293,3.071l3.072,3.719v9.538
		l-1.455,4.688l0.323,2.748l1.293,4.851l1.778,4.041l0.809-0.484l1.455-4.527l-2.587-0.97l-0.323-0.646l1.616-0.646l4.526,0.97
		l0.162,1.617l-3.233,5.496l-2.102,2.425l3.557,3.718l2.587,3.072l2.909,5.335l2.91,3.879l2.102,5.012l1.778,0.323l1.616-2.102
		l1.778,1.132l2.587,4.042l0.646,3.556l3.071,4.365l0.809-1.293l3.88,0.323l3.557,2.263l3.395,5.174l0.809,3.395l0.323,2.91
		l1.132,0.97l1.293,0.485l2.425-0.971l1.455-1.616l3.88-0.162l3.071-1.454l2.749-3.233l-0.485-1.94l-0.323-2.425l0.646-1.939
		l-0.323-1.94l2.425-1.293l0.323-3.395l-0.646-1.778l-0.485-11.963l-1.293-7.599l-4.526-8.244l-3.557-5.82l-2.587-5.335
		l-2.909-2.909l-2.91-7.437l0.809-1.294l1.131-1.293l-1.616-2.91l-4.042-3.718l-4.85-5.496l-3.718-6.305l-5.335-9.377l-3.729-9.742
		l-2.266-7.318l-0.02-0.89l-0.775-6.299l2.264-10.022l1.455-4.203l-0.485-2.587l3.335-6.244l-0.511-1.352l0.57-0.973l2.103-1.293
		l5.011-5.496l-0.97-3.233l2.91-0.162l3.557-3.395l1.616-0.809l2.264-3.395l2.748-2.748l2.102-3.557l2.425-0.647l1.132-2.748
		l1.616-0.808l0.485-6.306l2.586-6.143l5.422-5.458l0.28-0.804l5.453-1.336l4.688-0.485l0.485-2.425l1.939-6.467l3.396-4.688
		l6.466-5.335l5.174-2.425l2.748-0.646l1.132,0.484h1.293l3.071-4.85l1.94-3.557l-1.294,0.485l-2.263,2.263l-0.646-1.616h-4.203
		l1.939-6.305l-0.809-1.294h-1.939v-0.969l-0.323-1.294l1.616,1.294l1.455,0.161l2.425,0.323l3.719-1.617l1.293-2.909l0.646-2.102
		l2.587-1.294l0.323-4.203l-0.809-0.646l2.425-0.161l-0.646-2.264l-2.425-2.425l-3.557-6.467l-1.71-4.698l-0.92-0.925l-3.608-6.012
		l-5.801,1.686l-1.572-1.494l2.553-1.381l-0.491-2.524l-1.773-1.786l-0.121-1.412l-2.281-1.543l-0.089-1.616l2.694,0.095
		l0.222-1.385l-1.229-0.79l0.479-1.931l-1.374-1.103l0.439-4.69l-0.868-1.2l-3.19-0.402l-2.152-2.088l-4.856-0.942L805.216,266.062z
		"/>
</g>
<g id="pins">
	<g id="pin-MO">
        <a xlink:href="/locations/missouri/">
		<path fill="#FFFFFF" d="M523.999,246.393c-21.743,0-39.361-17.617-39.361-39.361c0-21.743,17.618-39.361,39.361-39.361
			s39.361,17.618,39.361,39.361C563.36,228.776,545.742,246.393,523.999,246.393z"/>
		<path fill="#9248B8" d="M524,151.715c-29.035,0-55.33,23.53-55.33,52.573c0,29.036,23.992,63.704,55.33,113.413
			c31.338-49.709,55.328-84.377,55.328-113.413C579.328,175.246,553.042,151.715,524,151.715z M524,243.404
			c-20.086,0-36.361-16.274-36.361-36.361c0-20.085,16.275-36.361,36.361-36.361s36.361,16.275,36.361,36.361
			C560.361,227.13,544.086,243.404,524,243.404z"/>
		<g>
			<path fill="#9248B8" d="M512.798,228.233l-3.863-25.872l-0.225-1.736h-0.336v27.608h-5.6v-41.16h7.392l3.584,18.816l0.28,2.184
				h0.112l0.279-2.184l3.584-18.816h7.393v41.16h-5.601v-27.608h-0.336l-0.224,1.736l-3.864,25.872H512.798z"/>
			<path fill="#9248B8" d="M545.613,219.777c-0.056,1.68-0.392,3.192-1.008,4.48c-0.504,1.12-1.288,2.184-2.408,3.024
				c-1.119,0.896-2.632,1.4-4.647,1.4c-2.017,0-3.584-0.504-4.704-1.4c-1.12-0.84-1.848-1.904-2.352-3.024
				c-0.616-1.288-0.952-2.8-1.009-4.48v-24.248c0.057-1.624,0.393-3.136,1.009-4.424c0.504-1.12,1.231-2.24,2.352-3.08
				c1.12-0.84,2.688-1.4,4.704-1.4c2.016,0,3.528,0.56,4.647,1.4c1.12,0.84,1.904,1.96,2.408,3.08
				c0.616,1.288,0.952,2.8,1.008,4.424V219.777z M539.565,195.529c0-1.12-0.224-1.904-0.784-2.576
				c-0.279-0.28-0.728-0.448-1.231-0.448c-1.064,0-1.568,0.784-1.792,1.512c-0.168,0.448-0.225,0.952-0.225,1.512v24.248
				c0,1.176,0.28,1.96,0.841,2.576c0.279,0.28,0.672,0.448,1.176,0.448c1.063,0,1.567-0.672,1.792-1.512
				c0.168-0.392,0.224-0.896,0.224-1.512V195.529z"/>
		</g>
        </a>
	</g>
	<g id="pin-CA">
        <a xlink:href="/locations/california/">
		<path fill="#FFFFFF" d="M88.249,275.643c-21.743,0-39.361-17.617-39.361-39.361c0-21.743,17.618-39.361,39.361-39.361
			s39.361,17.618,39.361,39.361C127.61,258.026,109.992,275.643,88.249,275.643z"/>
		<path fill="#F05033" d="M87.809,181.014c-29.036,0-55.33,23.53-55.33,52.573c0,29.036,23.992,63.704,55.33,113.413
			c31.338-49.709,55.329-84.377,55.329-113.413C143.137,204.544,116.851,181.014,87.809,181.014z M87.809,272.703
			c-20.086,0-36.361-16.274-36.361-36.361c0-20.085,16.275-36.361,36.361-36.361s36.361,16.275,36.361,36.361
			C124.169,256.429,107.895,272.703,87.809,272.703z"/>
		<g>
			<path fill="#F05033" d="M85.623,243.42v5.656c-0.056,1.68-0.392,3.192-1.008,4.48c-0.504,1.12-1.288,2.184-2.408,3.024
				c-1.12,0.896-2.632,1.4-4.648,1.4c-2.016,0-3.584-0.504-4.704-1.4c-1.12-0.84-1.848-1.904-2.352-3.024
				c-0.616-1.288-0.952-2.8-1.008-4.48v-24.248c0.056-1.624,0.392-3.136,1.008-4.424c0.504-1.12,1.232-2.24,2.352-3.08
				c1.12-0.84,2.688-1.4,4.704-1.4c2.016,0,3.528,0.56,4.648,1.4c1.12,0.84,1.904,1.96,2.408,3.08
				c0.616,1.288,0.952,2.8,1.008,4.424v5.656h-5.656v-5.656c0-1.12-0.28-1.904-0.896-2.576c-0.28-0.28-0.784-0.448-1.4-0.448
				c-1.064,0-1.568,0.784-1.848,1.512c-0.168,0.448-0.224,0.952-0.28,1.512v24.248c0.056,1.176,0.392,1.96,0.952,2.576
				c0.28,0.28,0.672,0.448,1.176,0.448c1.288,0,1.792-0.672,2.072-1.512c0.168-0.392,0.224-0.896,0.224-1.512v-5.656H85.623z"/>
			<path fill="#F05033" d="M87.583,257.532l6.216-41.16h7.392l6.216,41.16h-5.88l-1.12-8.4h-5.824l-1.12,8.4H87.583z
				 M97.831,229.756l-0.168-1.064h-0.336l-0.168,1.064l-1.736,12.992h4.144L97.831,229.756z"/>
		</g>
        </a>
	</g>
	<g id="pin-MW">
        <a xlink:href="/locations/midwest/">
		<path fill="#FFFFFF" d="M638.396,232.014c-21.743,0-39.361-17.617-39.361-39.361c0-21.743,17.618-39.361,39.361-39.361
			s39.361,17.618,39.361,39.361C677.758,214.397,660.14,232.014,638.396,232.014z"/>
		<path fill="#AAC016" d="M638.343,136.715c-29.035,0-55.329,23.53-55.329,52.573c0,29.036,23.991,63.704,55.329,113.413
			c31.338-49.709,55.328-84.377,55.328-113.413C693.671,160.246,667.385,136.715,638.343,136.715z M638.343,228.404
			c-20.086,0-36.361-16.274-36.361-36.361c0-20.085,16.275-36.361,36.361-36.361s36.361,16.275,36.361,36.361
			C674.704,212.13,658.429,228.404,638.343,228.404z"/>
		<g>
			<path fill="#AAC016" d="M622.885,213.233l-3.863-25.872l-0.225-1.736h-0.336v27.608h-5.6v-41.16h7.392l3.584,18.816l0.28,2.184
				h0.112l0.279-2.184l3.584-18.816h7.393v41.16h-5.601v-27.608h-0.336l-0.224,1.736l-3.864,25.872H622.885z"/>
			<path fill="#AAC016" d="M648.645,213.233h-4.704l-5.544-41.16h5.601l2.407,21.392l0.112,1.344h0.448l0.168-1.344l2.576-21.392
				h4.367l2.576,21.392l0.168,1.344h0.448l0.112-1.344l2.407-21.392h5.601l-5.544,41.16h-4.704l-2.8-19.488l-0.336-2.408h-0.225
				l-0.336,2.408L648.645,213.233z"/>
		</g>
        </a>
	</g>
	<g id="pin-TX">
        <a xlink:href="/locations/texas/">
		<path fill="#FFFFFF" d="M464.999,386.97c-21.743,0-39.361-17.617-39.361-39.36s17.618-39.36,39.361-39.36
			s39.361,17.617,39.361,39.36S486.742,386.97,464.999,386.97z"/>
		<path fill="#FEC429" d="M465,291.671c-29.036,0-55.33,23.53-55.33,52.573c0,29.036,23.992,63.703,55.33,113.413
			c31.338-49.71,55.328-84.377,55.328-113.413C520.328,315.201,494.042,291.671,465,291.671z M465,383.36
			c-20.086,0-36.361-16.274-36.361-36.361c0-20.085,16.275-36.36,36.361-36.36s36.361,16.275,36.361,36.36
			C501.361,367.086,485.086,383.36,465,383.36z"/>
		<g>
			<path fill="#00456A" d="M446.183,333.246v-6.217h17.472v6.217h-5.712v34.943h-6.048v-34.943H446.183z"/>
			<path fill="#00456A" d="M470.15,368.189h-5.936l6.664-21.616l-6.552-19.544h5.936l3.304,10.416l0.168,0.504h0.224l0.168-0.504
				l3.304-10.416h5.936l-6.552,19.544l6.664,21.616h-5.936l-3.472-12.264l-0.112-0.504h-0.224l-0.112,0.504L470.15,368.189z"/>
		</g>
        </a>
	</g>
	<g id="pin-SE">
        <a xlink:href="/locations/southeast/">
		<path fill="#FFFFFF" d="M748.999,297.97c-21.743,0-39.361-17.617-39.361-39.361c0-21.743,17.618-39.361,39.361-39.361
			s39.361,17.618,39.361,39.361C788.36,280.353,770.742,297.97,748.999,297.97z"/>
		<path fill="#00456A" d="M749,202.671c-29.035,0-55.329,23.53-55.329,52.573c0,29.036,23.991,63.703,55.329,113.413
			c31.338-49.71,55.328-84.377,55.328-113.413C804.328,226.202,778.042,202.671,749,202.671z M749,294.36
			c-20.086,0-36.361-16.274-36.361-36.361c0-20.085,16.275-36.361,36.361-36.361s36.361,16.275,36.361,36.361
			C785.361,278.086,769.086,294.36,749,294.36z"/>
		<g>
			<path fill="#00456A" d="M743.062,249.062c0-1.344-0.056-2.856-0.447-4.032c-0.393-1.12-1.009-1.904-1.961-1.904
				c-1.567,0.056-2.071,1.68-2.071,4.088c0,1.4,0.616,2.856,1.512,4.424c0.896,1.568,2.072,3.192,3.248,4.928
				c1.4,2.072,2.8,4.2,3.864,6.272c1.063,2.072,1.792,4.2,1.792,6.44c0,2.744-0.448,5.32-1.736,7.224s-3.36,3.136-6.664,3.136
				c-3.864,0-6.048-1.456-7.28-3.696c-1.231-2.24-1.512-5.208-1.512-8.288l5.937-0.56c0,1.736,0.056,3.472,0.504,4.76
				c0.392,1.344,1.063,2.24,2.352,2.24c1.792,0,2.464-1.904,2.464-4.536c0-1.344-0.672-2.912-1.567-4.536
				c-0.504-0.784-1.009-1.624-1.568-2.464c-1.176-1.68-2.464-3.584-3.808-5.656c-1.345-2.072-2.353-4.2-2.969-6.384
				c-0.336-1.064-0.504-2.184-0.504-3.304c0-2.24,0.504-4.648,1.792-6.496c1.288-1.792,3.248-3.08,6.104-3.136
				c3.64-0.056,5.768,1.456,6.943,3.64c1.177,2.24,1.513,4.984,1.513,7.28L743.062,249.062z"/>
			<path fill="#00456A" d="M752.246,238.03h13.832v6.216h-7.784v10.808h5.6v6.608h-5.6v11.312h7.784v6.216h-13.832V238.03z"/>
		</g>
        </a>
	</g>
</g>
</svg>
