<svg xmlns="http://www.w3.org/2000/svg" xmlns:xlink="http://www.w3.org/1999/xlink" width="967.451" height="628.468" viewBox="-14.385 -26.393 967.451 628.468"><style>.locations-map a{transform-origin:bottom center;transition:all .3s ease}.locations-map a:active,.locations-map a:focus,.locations-map a:hover{transform:scale(1.1)}</style><path fill="#D3D3D3" d="M805.216 266.062l.202-.659 4.312-.062 3.071.97 2.102.324.97-2.102-1.455-2.102v-1.778l-2.425-2.102-2.102-5.497 1.293-5.335-.161-2.102-1.293-1.293s1.454-1.617 1.454-2.264c0-.646.485-2.102.485-2.102l1.94-1.293 1.939-1.617.485.97-1.455 1.616-1.294 3.718.324 1.132 1.777.323.485 5.497-2.102.97.323 3.557.485-.162 1.132-1.94 1.616 1.778-1.616 1.293-.324 3.395 2.587 3.395 3.88.485 1.617-.808 3.236 4.183 1.358.536.697.31.144 1.947-.767 3.098-1.587 4.183-.446 5.449 1.471 4.641 2.164-1.916 1.828-4.978-.462-3.391.418-4.586 2.92-3.779.771-3.218-.497-.557 2.008-4.023.227-4.864-.226-.714-2.265-7.355-.97.485-3.557-2.425-1.778-4.688-1.939-3.557-2.264-.97-2.102-3.556.499-2.102.511.504 1.092 2.244 3.233 2.91 4.85 2.264 4.042.646.161 1.455-.808.97.323 2.748h.808l2.102-2.425.809-4.85 2.748-4.042 3.072-6.466 1.131-5.497-.646-1.132-.161-9.376-1.617-3.395-1.132.808-2.748.324-.484-.485 1.131-.97 2.102-1.94.063-1.094.54-.086 1.175.533 4.042-1.131 5.819-1.94 2.587-.97 7.113-5.335 3.88-2.91 3.395-3.556-4.203-1.617-1.293 1.455-2.91 2.748-7.922 3.88-2.263-.162-1.617-.647-1.131.647-2.264 2.586-1.455 1.293-1.293.323-.323-1.293 1.939-1.778-.796-1.678 1.014.23 4.956-3.401 3.556-3.233 1.94-2.102.809.646 2.748-1.455 5.173-1.132 7.045-3.491.877-.227 2.909-.97 2.425-1.94 1.132-1.778 1.294.162 2.91-1.536.52-.373 2.066-1-.485-2.263.809-1.455 2.91-1.455.808 3.072-.484 1.778-2.425 1.455v.97l1.939-1.455 3.88-4.526 3.88-1.94 4.203-1.455-.323-2.425-.97-2.91-1.94-2.425-1.778-.808-2.102.162-.484.485.97 1.293 1.455-.809 2.102 1.617.809 2.749-1.778 1.778-2.264.97-3.557-.485-3.88-5.981-2.263-2.586h-1.778l-1.132.808-1.94-2.586.324-1.455 2.425-5.173-2.89-4.413-.566-.492.869-1.077 1.09-3.291.373-1.119 1.124-6.259.161-4.365 1.455-1.293-.97-3.233 3.071-3.556 1.617 1.455 1.293-.485 5.335-3.071.323-2.91 2.91-.485 1.616-2.586-.162-1.617-.323-3.072.809-1.293-.323-1.132-1.293-1.455 2.102-1.293 1.778 3.233 1.454-.323.323 1.293v1.617l1.94.162.485-2.749.484-.646-1.616-1.455.97-1.455 2.425-1.455.97-1.455 1.778-.162s.323 2.102.971 2.102h1.293l4.85-5.497 3.395-3.071 1.94-.647 2.102-4.688v-1.94l-2.264-3.718-1.939-2.102-2.748.162.484 1.132-.161.485h-.809l-2.91-2.263-.161-4.85-.809-1.94h-5.981l-9.053-29.907-1.94-.97-5.981-2.425-1.454-.162-1.778 1.778-4.042 2.91v.97l-.809.808-2.748-.646-1.293-2.263v-1.132l-1.293-.162h-1.294l-2.102 4.203-2.909 8.892-1.778 4.85.161 4.85.162 1.455-.809 2.749-.809.97v5.981l1.94 2.425-1.455 4.042-2.587 4.688-.809 5.496v2.587l-1.514-.41-1.42.118-.857.458-.896-.005-.646 1.617-.646-.485-.971-.97-1.455 1.94-.048 5.032-.921.302-26.247 6.748-.622.396-7.565 2.071-4.526 1.455-3.233-.162-5.496 1.293-3.082 1.246-2.415 1.826-2.102 2.425-2.748 3.718-2.91 4.526-1.454 2.91-.647.808-5.819 5.497.162 2.586.808 1.132 1.778.808h1.778v1.455l-1.132 2.102.323 1.455 1.455 2.102-.161 2.263-1.94 1.131h-2.102l-1.616 1.94-1.778 3.233-2.102 1.778-5.173.485-2.587 1.131-2.102 1.293-1.617-.162-1.939-1.293-6.305.161-3.233.485-4.041 1.293-4.365 1.455-2.91 1.778 1.94 6.143 1.778.162 1.293 3.072.162.97-1.132.97-2.102 2.748-.485 1.617-1.939 1.778-1.778 1.131-.971 1.617-1.293 1.132-1.428 1.125-1.006.519-5.487 5.63-1.294.485-4.202 3.009-1.021-.111-6.093 4.053-3.88 2.263-3.396 3.718-4.041 3.88-3.233.808-2.91.485-5.496 2.586-2.102.162-3.395-3.071-5.174.646-2.586-1.455-2.382-1.351-1.151-.325.138-.587.162-1.455 2.102-3.718 2-1.738-.222-5.052 1.597-1.597 1.091-.343.222-3.557 1.536-3.031 1.051.606.162.646.808.162 1.94-.97-.323-9.538-3.233-8.245-2.264-9.053-2.425-3.233-2.586-1.778-1.617 1.132-3.88 1.778-1.939 5.011-2.748 3.718-1.132.646-1.455-.646s-2.587-1.455-2.425-2.102c.161-.646.484-5.012.484-5.012l3.396-1.293.808-3.395.647-2.586 2.425-1.617-.323-10.023-1.617-2.263-1.293-.809-.809-2.102.809-.808 1.616.323.162-1.617-2.425-2.263-1.294-2.586h-2.586l-4.526-1.455-5.497-3.395h-2.748l-.646.647-.97-.485-3.072-2.264-2.909 1.778-2.91 2.263.323 3.557.97.323 2.102.485.485.809-2.587.808-2.586.324-1.455 1.778-.323 2.102.323 1.616.323 5.497-3.557 2.102-.646-.162v-4.203l1.293-2.425.646-2.425-.808-.809-1.94.809-.97 4.203-2.748 1.131-1.778 1.94-.162.97.646.809-.646 2.586-2.263.485v1.132l.808 2.425-1.131 6.143-1.617 4.042.646 4.688.485 1.131-.809 2.425-.323.808-.323 2.748 3.557 5.981 2.91 6.466 1.455 4.85-.809 4.688-.97 5.981-2.425 5.173-.324 2.748-3.259 3.085-1.024.794-2.829 1.617-2.102 1.94-1.132.323-1.455-.97-3.071-.889-.859.194-.272-.921-.809-2.587-1.293-3.718-1.617-1.778-1.454-2.587-.233-5.489-.299-1.079.37-2.97-1.616-4.527-.646-6.143-1.132-2.425.97-3.072.809-2.91 1.455-2.586-.647-3.395-.646-3.557.485-1.778 1.939-2.425.162-2.748-.809-1.293.646-2.586.485-3.233 2.748-5.658 2.91-6.79.161-2.263-.323-.97-.808.485-4.203 6.305-2.749 4.042-1.939 1.778-.809 2.263-1.455.808-1.131 1.94-1.455-.323-.162-1.778 1.294-2.425 2.102-4.688 1.777-1.617 1.102-2.292.567-.892 3.182-7.001.97-4.042 1.939-4.365.809-.162 1.132 1.617h.646l4.526-2.425 1.455 1.617.485.162 1.293-1.131 1.132-3.072 2.425-.808 6.951-.647 1.94-2.586 5.173-.162 5.819 1.293h1.778l3.233-1.455 2.264.162 2.102-.647 3.718.485.809.323 1.293-.323-1.293-.97-1.294-.646-3.232-3.072v-6.951l-1.455-.485-1.132 1.131-6.144 1.617-1.939.485-2.91-.808-.484-.323v-5.658l-1.455-.162-2.587 1.293-4.526 1.94-6.628.323-3.395 1.131-4.042 3.557-1.616.97h-1.132l-1.293.808-1.617-.485-1.616-1.293-1.455.97-3.88.161-2.748-2.748-1.455-3.071-1.455-1.132-3.233-.97h-2.263l-1.294-1.293-3.557 2.91-.97 1.132-.809-.485.324-2.587 2.425-3.233.484-2.425 2.264-.809 1.455-3.071 3.718-.97.323-.97-1.132-1.132-4.688.485-4.365 2.425-2.263 2.264-1.294 1.778-1.778.808-1.939 2.91-.162 1.293-4.364 2.102-2.425 1.94-5.981.97-.647.646v.97l-3.556 2.263-2.749.809-.716.581-1.018.421-.529 1.261-1.132-.162-.646-1.132-2.748-.808-1.132.162-1.778.97-.97-.647.646-1.94 1.939-3.071 1.132-1.132-1.939-1.455-2.102.808-2.91 1.94-7.437 3.233-2.91.646-2.909-.485-.982-.878-.435-.553 3.842-2.934 1.293-.162 4.526-5.011 1.778-.809 2.264-3.88 2.425-3.556 3.071-2.587 4.774-2.007 9.246-4.061 3.938-1.837.612-2.28-4.439.371-.714 1.084h-.646l-1.778-3.071-8.892.323-.97.808h-.97l-.485-1.293-.809-1.778-2.586.485-3.233 3.233-1.617.809h-3.071l-2.587-.97v-2.102l-1.293-.162-.484.485-2.587-1.293-.485-2.91-1.455.485-.484.97-2.425-.485-5.335-2.425-3.88-2.587h-2.91l-1.293-.97-2.264.646-1.132 1.132-.323 1.293h-4.85v-2.102l-6.305-.323-.323-1.455h-4.85l-1.617-1.616-1.454-6.143-.809-5.497-1.94-.809-2.263-.485-.646.162-.323 8.245-30.133-.035-1.097-.047-28.424-.564-18.591-.646-26.513-1.293-24.946-1.884-1.283-.481-30.675-2.808L301.955 50l-29.261-4.042-32.332-5.335-18.429-3.395-32.724-6.933-1.124-.161-12.996-2.528-.72-.402-15.161-3.395-22.956-5.658-20.046-5.658-8.568-1.94-9.7-2.748-4.365-1.455-1.132.82-.323.809 2.425 4.85 1.132 2.586-1.778 3.557v2.263l.646 1.455-.808 1.778.485 3.233.97 1.293-.162 1.293-1.455.162-.646-1.94-1.132-2.425-1.778-1.455.323-2.102 2.264-.485-.324-1.778-.323-1.132-2.102 1.293-1.293 1.131v2.425l-2.263.162-3.395-.97-2.91-1.455-3.071-.647-4.527-2.102-3.233-1.94-2.749-2.586-2.425-2.91-2.102-.485-2.263 9.376 1.778 3.233v7.922l-.646 2.91 1.455 7.113 2.749 2.749-4.365.646-.162 3.718 2.587 1.132-1.617 4.042-2.748.323-.324 2.91 2.264 2.91-2.102 2.586-2.263 6.466-3.233 10.023-3.233 6.466-5.012 14.067-6.467 13.58-8.083 12.61-1.94 2.91-.808 8.568-1.293 5.981 2.708 3.527-.481.963-1.58 4.725-.162 7.437-5.173 11.801-3.072 2.587-.323 1.131-1.778.809-1.455 4.203-.809 3.233 2.749 4.203 1.616 4.203 1.132 3.557-.323 6.467-1.778 3.071-.646 5.82-.97 3.718 1.778 3.88 2.748 4.526 2.264 4.85 1.293 4.042-.323 3.233-.323.485v2.102l5.658 6.305-.485 2.425-.646 2.263-.646 1.94.162 8.245 2.102 3.718 1.94 2.586 2.748.485.97 2.749-1.132 3.557-2.102 1.616h-1.131l-.809 3.88.485 2.91 3.233 4.365 1.617 5.334 1.455 4.688 1.293 3.071 3.395 5.819 1.455 2.588.485 2.909 1.617.97v2.426l-.809 1.939-1.778 7.113-.485 1.939 2.425 2.748 4.203.485L53 328.713l3.88 2.102h2.91l2.91 3.071 2.586 4.851L66.417 341l3.88 2.102 4.85.808 1.455 2.102.646 3.234-1.455.646.323.97 3.233.808 2.748.162 2.91 4.688 3.88 4.203.808 2.263 2.586 4.203.324 3.233v9.376l.485 1.779 10.023 1.455 19.723 2.748 13.907.975 1.006.746-2.627 2.158-.323 1.455.485.971 18.914 10.669 12.125 7.599 14.711 8.567 16.812 10.023 12.286 2.425 25.128 2.705 1.605.802 15.46 1.989 1.293-10.022 16.651 2.586 12.456 1.618.962-.001 1.94.484 2.586 2.91 1.455 4.365 4.688 2.263 1.293 3.233 7.113 7.922 1.293 1.616 5.011 2.102 1.132 2.102 1.616.97.485 2.749 3.233 6.466v8.083l2.263 4.688 7.437 7.76 5.174 2.102 1.777 1.939v.646l3.88 2.264 1.94.646 1.778 1.132 2.587.97 2.425-2.425 4.364-6.143.97-3.719 2.264-3.233 3.557-1.455 4.526-1.777 3.071 2.263 7.437.646 6.79 1.132 2.587 2.102v1.132l2.586 3.071 5.981 5.335.162 1.455 1.778 1.939.808 4.203 5.335 12.286-.161 1.94 4.203 2.586 3.557 6.629 3.395 4.364 3.233 1.294 1.616 2.263-1.293 4.365.646.97 1.293.646-.323 3.395-.646.647.646 2.263 3.233 1.94 1.293 6.466 2.102 3.88 7.599 3.396 5.173 1.131 4.203 3.072 3.233.646 1.293-.485 5.497 1.132 5.657 3.88 3.072-1.94.97-1.454-1.778-2.749-.97-6.143-1.778-6.951-.809-2.425.809-4.527 1.132-3.88 1.293-4.526 1.455-5.496-2.264-1.94.971-1.939 4.041-.323 3.88-5.496 3.395-.647 5.82-3.557 1.778-1.454 6.305-3.396 5.658-2.425 5.335-3.233 2.748-2.102 5.658-5.334 1.293-.809 2.102-1.455 2.587-1.94.97-1.939 9.861-4.526 5.665-1.585.642-.128 4.687-1.521 8.083-.323 10.346 3.557 6.467 1.132 3.718-1.455 3.233 1.132 3.233.97.809-2.102-3.233-1.132-2.587.485-2.748-1.617s.161-1.293.809-1.455c.646-.161 3.071-.97 3.071-.97l1.778 1.455 1.778-.97 3.233.646 1.454 2.425.324 2.264 4.526.323 1.778 1.778-.809 1.616-1.293.809 1.616 1.616 8.406 3.557 3.557-1.293.97-2.425 2.587-.647 1.778-1.454 1.293.97.809 2.91-2.264.808.646.646 3.396-1.293 2.263-3.395.809-.485-2.102-.323.809-1.616-.162-1.455 2.102-.485 1.132-1.293.646.808s-.161 3.072.646 3.072c.809 0 4.203.646 4.203.646l4.042 1.939.97 1.455h2.91l1.132.971 2.263-3.072v-1.455h-1.293l-3.396-2.748-5.819-.809-3.233-2.263 1.132-2.748 2.264.323.161-.646-1.778-.971v-.484h3.233l1.778-3.071-1.293-1.94-.323-2.748-1.455.161-1.94 2.102-.646 2.587-3.071-.646-.971-1.778 1.778-1.94 2.021-1.777.756-.516 1.103-.778 2.587-4.203 1.778.809 6.79-1.94 2.102.323 1.455.809h5.173l.254-1.256 1.039-.199h2.748l.647.162 1.293-2.748 1.455-4.365 2.263.646 3.072 5.981v.97l-2.749 1.94 2.749.323 5.542-2.573.678.114 3.479-.612 5.981-2.102 5.981-.485 4.365-.646 7.598 1.778 8.083 3.88 1.616 1.455 2.91 1.132 1.617 1.939.323 2.748 3.232-1.293h3.88l3.557-1.94 3.719-3.557 3.071.162.485-1.132-.809-.97.161-1.94 4.042-.808h2.586l2.91 1.455 4.203 1.455 2.425 3.718 2.749.97 1.131 3.396 3.396 1.616 1.616 2.587 1.94.646 5.173 1.293 1.293 3.071 3.072 3.719v9.538l-1.455 4.688.323 2.748 1.293 4.851 1.778 4.041.809-.484 1.455-4.527-2.587-.97-.323-.646 1.616-.646 4.526.97.162 1.617-3.233 5.496-2.102 2.425 3.557 3.718 2.587 3.072 2.909 5.335 2.91 3.879 2.102 5.012 1.778.323 1.616-2.102 1.778 1.132 2.587 4.042.646 3.556 3.071 4.365.809-1.293 3.88.323 3.557 2.263 3.395 5.174.809 3.395.323 2.91 1.132.97 1.293.485 2.425-.971 1.455-1.616 3.88-.162 3.071-1.454 2.749-3.233-.485-1.94-.323-2.425.646-1.939-.323-1.94 2.425-1.293.323-3.395-.646-1.778-.485-11.963-1.293-7.599-4.526-8.244-3.557-5.82-2.587-5.335-2.909-2.909-2.91-7.437.809-1.294 1.131-1.293-1.616-2.91-4.042-3.718-4.85-5.496-3.718-6.305-5.335-9.377-3.729-9.742-2.266-7.318-.02-.89-.775-6.299 2.264-10.022 1.455-4.203-.485-2.587 3.335-6.244-.511-1.352.57-.973 2.103-1.293 5.011-5.496-.97-3.233 2.91-.162 3.557-3.395 1.616-.809 2.264-3.395 2.748-2.748 2.102-3.557 2.425-.647 1.132-2.748 1.616-.808.485-6.306 2.586-6.143 5.422-5.458.28-.804 5.453-1.336 4.688-.485.485-2.425 1.939-6.467 3.396-4.688 6.466-5.335 5.174-2.425 2.748-.646 1.132.484h1.293l3.071-4.85 1.94-3.557-1.294.485-2.263 2.263-.646-1.616h-4.203l1.939-6.305-.809-1.294h-1.939v-.969l-.323-1.294 1.616 1.294 1.455.161 2.425.323 3.719-1.617 1.293-2.909.646-2.102 2.587-1.294.323-4.203-.809-.646 2.425-.161-.646-2.264-2.425-2.425-3.557-6.467-1.71-4.698-.92-.925-3.608-6.012-5.801 1.686-1.572-1.494 2.553-1.381-.491-2.524-1.773-1.786-.121-1.412-2.281-1.543-.089-1.616 2.694.095.222-1.385-1.229-.79.479-1.931-1.374-1.103.439-4.69-.868-1.2-3.19-.402-2.152-2.088-4.856-.942-2.952-.971z" id="map" xmlns:svg="http://www.w3.org/2000/svg"/><g id="pins"><a xlink:href="/locations/missouri/" id="pin-MO"><path fill="#FFF" d="M523.999 246.393c-21.743 0-39.361-17.617-39.361-39.361 0-21.743 17.618-39.361 39.361-39.361s39.361 17.618 39.361 39.361c0 21.744-17.618 39.361-39.361 39.361z"/><path fill="#9248B8" d="M524 151.715c-29.035 0-55.33 23.53-55.33 52.573 0 29.036 23.992 63.704 55.33 113.413 31.338-49.709 55.328-84.377 55.328-113.413 0-29.042-26.286-52.573-55.328-52.573zm0 91.689c-20.086 0-36.361-16.274-36.361-36.361 0-20.085 16.275-36.361 36.361-36.361s36.361 16.275 36.361 36.361c0 20.087-16.275 36.361-36.361 36.361z"/><g fill="#9248B8"><path d="M512.798 228.233l-3.863-25.872-.225-1.736h-.336v27.608h-5.6v-41.16h7.392l3.584 18.816.28 2.184h.112l.279-2.184 3.584-18.816h7.393v41.16h-5.601v-27.608h-.336l-.224 1.736-3.864 25.872h-2.575zM545.613 219.777c-.056 1.68-.392 3.192-1.008 4.48a7.705 7.705 0 0 1-2.408 3.024c-1.119.896-2.632 1.4-4.647 1.4-2.017 0-3.584-.504-4.704-1.4-1.12-.84-1.848-1.904-2.352-3.024-.616-1.288-.952-2.8-1.009-4.48v-24.248c.057-1.624.393-3.136 1.009-4.424.504-1.12 1.231-2.24 2.352-3.08 1.12-.84 2.688-1.4 4.704-1.4 2.016 0 3.528.56 4.647 1.4 1.12.84 1.904 1.96 2.408 3.08.616 1.288.952 2.8 1.008 4.424v24.248zm-6.048-24.248c0-1.12-.224-1.904-.784-2.576-.279-.28-.728-.448-1.231-.448-1.064 0-1.568.784-1.792 1.512-.168.448-.225.952-.225 1.512v24.248c0 1.176.28 1.96.841 2.576.279.28.672.448 1.176.448 1.063 0 1.567-.672 1.792-1.512.168-.392.224-.896.224-1.512v-24.248z"/></g></a><a xlink:href="/locations/california/" id="pin-CA"><path fill="#FFF" d="M88.249 275.643c-21.743 0-39.361-17.617-39.361-39.361 0-21.743 17.618-39.361 39.361-39.361s39.361 17.618 39.361 39.361c0 21.744-17.618 39.361-39.361 39.361z"/><path fill="#F05033" d="M87.809 181.014c-29.036 0-55.33 23.53-55.33 52.573 0 29.036 23.992 63.704 55.33 113.413 31.338-49.709 55.329-84.377 55.329-113.413-.001-29.043-26.287-52.573-55.329-52.573zm0 91.689c-20.086 0-36.361-16.274-36.361-36.361 0-20.085 16.275-36.361 36.361-36.361s36.361 16.275 36.361 36.361c-.001 20.087-16.275 36.361-36.361 36.361z"/><g fill="#F05033"><path d="M85.623 243.42v5.656c-.056 1.68-.392 3.192-1.008 4.48a7.705 7.705 0 0 1-2.408 3.024c-1.12.896-2.632 1.4-4.648 1.4-2.016 0-3.584-.504-4.704-1.4-1.12-.84-1.848-1.904-2.352-3.024-.616-1.288-.952-2.8-1.008-4.48v-24.248c.056-1.624.392-3.136 1.008-4.424.504-1.12 1.232-2.24 2.352-3.08 1.12-.84 2.688-1.4 4.704-1.4 2.016 0 3.528.56 4.648 1.4 1.12.84 1.904 1.96 2.408 3.08.616 1.288.952 2.8 1.008 4.424v5.656h-5.656v-5.656c0-1.12-.28-1.904-.896-2.576-.28-.28-.784-.448-1.4-.448-1.064 0-1.568.784-1.848 1.512-.168.448-.224.952-.28 1.512v24.248c.056 1.176.392 1.96.952 2.576.28.28.672.448 1.176.448 1.288 0 1.792-.672 2.072-1.512.168-.392.224-.896.224-1.512v-5.656h5.656zM87.583 257.532l6.216-41.16h7.392l6.216 41.16h-5.88l-1.12-8.4h-5.824l-1.12 8.4h-5.88zm10.248-27.776l-.168-1.064h-.336l-.168 1.064-1.736 12.992h4.144l-1.736-12.992z"/></g></a><a xlink:href="/locations/midwest/" id="pin-MW"><path fill="#FFF" d="M638.396 232.014c-21.743 0-39.361-17.617-39.361-39.361 0-21.743 17.618-39.361 39.361-39.361s39.361 17.618 39.361 39.361c.001 21.744-17.617 39.361-39.361 39.361z"/><path fill="#AAC016" d="M638.343 136.715c-29.035 0-55.329 23.53-55.329 52.573 0 29.036 23.991 63.704 55.329 113.413 31.338-49.709 55.328-84.377 55.328-113.413 0-29.042-26.286-52.573-55.328-52.573zm0 91.689c-20.086 0-36.361-16.274-36.361-36.361 0-20.085 16.275-36.361 36.361-36.361s36.361 16.275 36.361 36.361c0 20.087-16.275 36.361-36.361 36.361z"/><g fill="#AAC016"><path d="M622.885 213.233l-3.863-25.872-.225-1.736h-.336v27.608h-5.6v-41.16h7.392l3.584 18.816.28 2.184h.112l.279-2.184 3.584-18.816h7.393v41.16h-5.601v-27.608h-.336l-.224 1.736-3.864 25.872h-2.575zM648.645 213.233h-4.704l-5.544-41.16h5.601l2.407 21.392.112 1.344h.448l.168-1.344 2.576-21.392h4.367l2.576 21.392.168 1.344h.448l.112-1.344 2.407-21.392h5.601l-5.544 41.16h-4.704l-2.8-19.488-.336-2.408h-.225l-.336 2.408-2.798 19.488z"/></g></a><a xlink:href="/locations/texas/" id="pin-TX"><path fill="#FFF" d="M464.999 386.97c-21.743 0-39.361-17.617-39.361-39.36s17.618-39.36 39.361-39.36 39.361 17.617 39.361 39.36-17.618 39.36-39.361 39.36z"/><path fill="#FEC429" d="M465 291.671c-29.036 0-55.33 23.53-55.33 52.573 0 29.036 23.992 63.703 55.33 113.413 31.338-49.71 55.328-84.377 55.328-113.413 0-29.043-26.286-52.573-55.328-52.573zm0 91.689c-20.086 0-36.361-16.274-36.361-36.361 0-20.085 16.275-36.36 36.361-36.36s36.361 16.275 36.361 36.36c0 20.087-16.275 36.361-36.361 36.361z"/><g fill="#00456A"><path d="M446.183 333.246v-6.217h17.472v6.217h-5.712v34.943h-6.048v-34.943h-5.712zM470.15 368.189h-5.936l6.664-21.616-6.552-19.544h5.936l3.304 10.416.168.504h.224l.168-.504 3.304-10.416h5.936l-6.552 19.544 6.664 21.616h-5.936l-3.472-12.264-.112-.504h-.224l-.112.504-3.472 12.264z"/></g></a><a xlink:href="/locations/southeast/" id="pin-SE"><path fill="#FFF" d="M748.999 297.97c-21.743 0-39.361-17.617-39.361-39.361 0-21.743 17.618-39.361 39.361-39.361s39.361 17.618 39.361 39.361c0 21.744-17.618 39.361-39.361 39.361z"/><path fill="#00456A" d="M749 202.671c-29.035 0-55.329 23.53-55.329 52.573 0 29.036 23.991 63.703 55.329 113.413 31.338-49.71 55.328-84.377 55.328-113.413 0-29.042-26.286-52.573-55.328-52.573zm0 91.689c-20.086 0-36.361-16.274-36.361-36.361 0-20.085 16.275-36.361 36.361-36.361s36.361 16.275 36.361 36.361c0 20.087-16.275 36.361-36.361 36.361z"/><g fill="#00456A"><path d="M743.062 249.062c0-1.344-.056-2.856-.447-4.032-.393-1.12-1.009-1.904-1.961-1.904-1.567.056-2.071 1.68-2.071 4.088 0 1.4.616 2.856 1.512 4.424.896 1.568 2.072 3.192 3.248 4.928 1.4 2.072 2.8 4.2 3.864 6.272 1.063 2.072 1.792 4.2 1.792 6.44 0 2.744-.448 5.32-1.736 7.224s-3.36 3.136-6.664 3.136c-3.864 0-6.048-1.456-7.28-3.696-1.231-2.24-1.512-5.208-1.512-8.288l5.937-.56c0 1.736.056 3.472.504 4.76.392 1.344 1.063 2.24 2.352 2.24 1.792 0 2.464-1.904 2.464-4.536 0-1.344-.672-2.912-1.567-4.536-.504-.784-1.009-1.624-1.568-2.464a194.367 194.367 0 0 1-3.808-5.656c-1.345-2.072-2.353-4.2-2.969-6.384a10.996 10.996 0 0 1-.504-3.304c0-2.24.504-4.648 1.792-6.496 1.288-1.792 3.248-3.08 6.104-3.136 3.64-.056 5.768 1.456 6.943 3.64 1.177 2.24 1.513 4.984 1.513 7.28l-5.938.56zM752.246 238.03h13.832v6.216h-7.784v10.808h5.6v6.608h-5.6v11.312h7.784v6.216h-13.832v-41.16z"/></g></a></g></svg>