<svg xmlns="http://www.w3.org/2000/svg" xmlns:xlink="http://www.w3.org/1999/xlink" width="506" height="324" viewBox="0 0 506 324"><style>.locations-map #pins a{transform-origin: bottom center;transition: all .3s ease;}.locations-map #pins a#pin-MO{transform-origin:bottom right;}.locations-map #pins a#pin-SE{transform-origin:bottom left;}.locations-map #pins a:active,.locations-map #pins a:focus,.locations-map #pins a:hover{transform:scale(1.1);}</style><a xlink:href="/locations/california/"><path fill="#F05132" stroke="#FFF" stroke-width=".5" stroke-miterlimit="10" d="M21.882 97.775l.216-1.44.144-.144-.144-1.512.072-.72-.504-.864.432-.72.504-1.584.36.072 18.72 5.184 15.84 4.032-6.407 26.424-1.945 7.776 27.217 39.672 11.52 16.992-.144.719v.793l.863 1.584.289 1.008.072.721.288.791-.072.864 1.44 1.513.503.719-.647.72-2.52 1.368-.36.72-.72.432-.36 1.369-.072 1.438-.432.721-.288 1.009-1.296 1.584-.792.504-.36.719.288.865-.072.719-.36.791.144.721.792.288.72.432.144.72-.072 1.224-.792.504-.216.72-.72-.145-.288-.215-.36.073-.361.071-23.111-2.376-.36-.072-.217-1.08-.287-.791.36.791.288-.72-.792-.504-.216.576v-.792l.36-1.439.143-1.513-.143-1.513-.504-1.726-.72-1.513-2.448-3.168-.792-.647-.576-.721-.72-1.225-.792-.431-.72-.144-.36.575-.792-.504-.072-.718.215-.721-.071-.721-.576-1.512-.144-.143-2.953-.504-1.512-.937-1.656-1.367-.215-1.511-.721-.649-.576-.721-1.223-.935-1.513-.145-.72-.288-1.44-1.007-.791-.144-.72-.288-2.233-.361-.647-.718-.504-.793-.505-.144.072-.792.504-.792-.143-.792.432-.721v-1.511l.647-1.08.072-.72-.575-.792-.793-.288-.576-.72.145-.792.575-.504-.144-.792-1.368-1.44-.432-1.513-.936-.792-.288-.72-.072-.791-.792-1.44-.144-1.584-.648-.576-.36-1.513-1.224-1.512-.36-.791.216-1.512v-1.584l1.512-.72.288-.72.36.144v-1.584l-.432-1.512-1.44-.144-.792-.649-1.224-2.231-.288-.72v-.72l.288-.505.216-.719-.072-1.512-.432-.72.576-1.512.071-.72.361-.649h.792l.144.289.072.791-.432.721-.072.72.719.504.432.792.721.864.72.144-.576-.792v-1.441l-.216-1.439-.432-.288-.288-.792.216-.72-.504-.72.432-.792h.719l.649-.288.72.575 1.152-.071 2.232 1.08 1.512-.576 1.152 1.584v-.216l-.504-.72-.721-.72-.792.36h-.719l.719-.504.218-.504-.721.575-1.44-.071-.648-.721-.721-.071-.647.359-.72-.431-.576-.792-.72-.648-.792.287-.361.792.144.792-.575.504.36.793-.648.432-.72-.721-.433-.792-.792-.504-.215-.719-.792-.864-.792.504.288-.792.504-.792.144-.792.504 1.512-.216-1.512-.648-1.512-.073-.073-.143.289.072-.72-.144-.792-.36-.72-.649-.721-.504-.792-.792-2.231-.863-1.512-.648-1.512.648-.72.144-1.153-.144-3.023.648-1.44.504-.72v-.936l.144-.72-.144-.792.072-.72-.72-2.304-.504-.72v-.72l-1.584-2.232.216-.792v-1.224l.647-1.512.721-.792.432-.72.792-.36.72-.504-.216-.216.36-.792.504-.72.288-.792-.144-.72 1.8-3.24"/><path fill="#F05132" stroke="#FFF" stroke-width=".5" stroke-miterlimit="10" d="M22.602 90.791l-.72-1.512-.144-2.952.432-.936.143-.72.577-.792.215-.792-.359-1.512v-1.512l1.44-1.872 1.439-3.024.289.72.288-.792.719-.432h.073l.144.576.216-.504-.36-.072v-.072l-.073.072-.287-.072.287-.792.865-1.44.648-.648h.792l-.072-.36-.792.288.216-.72.432-.792 1.511-3.816.434-1.512.431-.72.504-.36.072-.288-.145-.792.649-1.512.288-1.44 1.152-2.16.217-.792.792-1.152.144-.792.36-.792.071-.792.36-.72.072-.576.721.216-.504-.72.36-.792.647-.72-.288-.504-.071-.792.359-.72.145-.72-.072-.144.648-.72.287-1.512.288-.792.721.648.071.216.216.072-.287-.432.071-.216.576.072.215.36.721.072.793-.216.72.576.43.648.074.072.792.36.72-.36.575.216.433.72.791.72.36 1.512-.431 3.816.288.432 1.152.504.792.504.36.072.792.504.72.072 1.512-.144.72-.144.792-.432h.72l.72.288 1.296.072.792.432.72.144.792.576.143.72 1.513-.072.72.288 2.304-.504.792.216.72.648.72.144.792-.072 1.439-.36 1.513-.144 2.376.072.72-.432.576.216 1.728.072.792.288.792.072.792-.432 7.344 1.728 9.432 1.944.143 1.008.361.792.288.432 1.44 1.368.288 1.512-.432.72-1.728 1.944-1.152 2.304-1.296 1.44-.072.648-.432.792-.648.72-1.224.792-.936 1.44-.72.72-.504 2.304.287.432.721.216.72.504.432.72-.576.792-.072 1.008-.648 1.512-.288.216-.36.576-4.32 20.736-10.44-2.232-14.689-3.456-15.84-4.032-18.72-5.184-.36-.072"/><path fill="#F05132" stroke="#FFF" stroke-width=".5" stroke-miterlimit="10" d="M42.042 44.207l-.216-.072-.721-.144-.43-.72-1.584.36-.577-.792-.72.072.936-3.816.145.792-.288 1.44.719-.072.433.648.071-.288-.504-.72.577-.792-.217-.72.504-.72.792.432h.217l-.289-.72-1.512-.504-.144.072-.216-.792.288-1.512.144.792 1.153-.576 1.223-.144-.721-.288-.719-.792-.72-.504-.216.72-.287-.216.287-.792.216-2.232-.288-1.872.361-3.024-.073-.792-.36-1.512-.576-.864-.143-.72v-.792l.216-.72-.073-.72.504-.792.216-.792.216-.144-.216-1.008.793.432 1.367 1.368.793.648.792.432.503.72 1.081.648 1.44.432.792.504 1.511.36.865.576.792-.072.72-.216.216.72.072.792.792-.288.504 1.152.072-.792.792-.576-.216.792.431 1.872-.287.936-.792.72-.36.72v-.72l.216-.72-1.368 1.656-.721.432-1.44 1.296-.504.72.649.648 1.512-.288-.792-.072-.72.144-.145-.792 1.513-1.44 1.511-.432.649-.792 1.728-1.584.36.72-.072.792-.576.432-.792-.144.144.792-.072.72-.72-.216v.792l.72-.144.359.72-1.223 2.736-.792-.504.648-.792-.72.144-.504.72-.144.792-.288.288-.072-.72.36-.72.144-.792-1.513 1.08-.575.72-.72.072.72.216-.073.648.433.576.144-.792.792-.36.432.792.72-.072.72-.576.432-.504 1.44-.576.72-.72-.144-1.584.647-.72-.503-.792.72-.504-.072-.72.864-1.008.792-.72-.072-.792-.432-.72.144-1.512-.072-.288.215-.648-.647-.936-.216-.72-.721.072v-.792l.505.144.792.432.216-.792-.36-.72.72.36.144-.72-.072-.72.144-.72-.72-.36-.577-.792v-.288l-.359-.72-.072-.72.576-.504 10.439 2.808 11.809 2.952 13.68 3.168 7.343 1.512-.071.432-5.616 26.208-.288 2.376-.36.72.503 1.512-.359 2.304.216.72-9.432-1.944-7.344-1.728-.792.432-.792-.072-.792-.288-1.728-.072-.576-.216-.72.432-2.376-.072-1.513.144-1.439.36-.792.072-.72-.144-.72-.648-.792-.216-2.304.504-.72-.288-1.513.072-.143-.72-.792-.576-.72-.144-.792-.432-1.296-.072-.72-.288h-.72l-.792.432-.72.144-1.512.144-.72-.072-.792-.504-.36-.072-.792-.504-1.152-.504-.288-.432.431-3.816-.36-1.512-.791-.72-.433-.72-.575-.216-.72.072-.721-.72-.215-.72-.216-.072-.361-.216M51.115 126.503l6.407-26.424 14.689 3.456 10.44 2.232 13.68 2.808 11.52 2.088-10.368 57.96-1.656 9.145-.721 1.08-.863.863-.792-.145-.288-.864-.648-.72h-.792l-.72-.503-.864.144-.864.575-.36.937.504 1.511-.432.721-.072.72.144 1.513-.288 1.005-.072.793.288 1.512-.144 1.729-.792.648-.144 1.656-11.52-16.992-27.217-39.672 1.945-7.776"/><path fill="#F05132" stroke="#FFF" stroke-width=".5" stroke-miterlimit="10" d="M82.146 217.007l.361-.071.36-.073.288.215.72.145.216-.72.792-.504.072-1.224-.144-.72-.72-.432-.792-.288-.144-.721.36-.791.072-.719-.288-.865.36-.719.792-.504 1.296-1.584.288-1.009.432-.721.072-1.438.36-1.369.72-.432.36-.72 2.52-1.368.647-.72-.503-.719-1.44-1.513.072-.864-.288-.791-.072-.721-.289-1.008-.863-1.584v-.793l.144-.719.144-1.656.792-.648.144-1.729-.288-1.512.072-.793.288-1.005-.144-1.513.072-.72.432-.721-.504-1.511.36-.937.864-.575.864-.144.72.503h.792l.648.72.288.864.792.145.863-.863.721-1.08 1.656-9.145 8.424 1.512 12.456 2.015 12.168 1.801 12.6 1.654-8.28 65.666-.072.36-4.896-.576-14.76-2.088-12.672-7.128-19.368-11.159-2.304-1.369.288-.791 1.079-1.513M82.651 105.767l4.32-20.736.36-.576.288-.216.648-1.512.072-1.008.576-.792-.432-.72-.72-.504-.721-.216-.287-.432.504-2.304.72-.72.936-1.44 1.224-.792.648-.72.432-.792.072-.648 1.296-1.44 1.152-2.304 1.728-1.944.432-.72-.288-1.512-1.44-1.368-.288-.432-.361-.792-.143-1.008-.216-.72.359-2.304-.503-1.512.36-.72.288-2.376 5.616-26.208.071-.432 5.833 1.224 1.728.36-.072.36-2.232 11.088 1.223 2.232v.36l.649 1.512.143.792-.359.792.432.72-.792.144 1.224 1.44.288.72 1.152.648.216.72.504.72.288.792.936 1.512.576.72-.144.36.144.792.72.648.36.792h.72l-.144.72.72.432 1.008-.072.72.288-.792 2.232-.792 1.512-.216.792-.576.72.216.72-.36.792.431.72-.287 1.512-.72.144-.432.72.216.792-.576.72-.216.792.864.288.72 1.008.72-.144 3.024-1.656.143.648.721.72v1.512l.288 2.016.575 1.512.577.72.215.792.073.72-.36 1.008.216.792.576.72.792-.216.792.72.431 1.368-.215.72.432.72-.144.72.432.792.72.72.288-.144.144-.792.719-.36 1.513.288.792.288h.72l.72-.648.432-.144 1.584.576h1.44l.792.432.72-.216 1.44.432v-.504l1.224-1.512.72.216.504 1.368.432.792.72.72-4.248 29.016-10.08-1.512-12.096-2.016-3.312-.648-11.52-2.088-13.68-2.808"/><path fill="#F05132" stroke="#FFF" stroke-width=".5" stroke-miterlimit="10" d="M97.483 168.623l10.368-57.96 3.312.648 12.096 2.016 10.08 1.512-1.728 11.664 17.424 2.376-5.904 46.726-12.6-1.654-12.168-1.801-12.456-2.015-8.424-1.512M106.267 44.567l.359-.792-.143-.792-.649-1.512v-.36l-1.223-2.232 2.232-11.088.072-.36 11.304 2.232 19.872 3.384 17.424 2.52 11.304 1.368 12.024 1.368 15.048 1.368 5.616.432v.288l-2.448 35.064-.648 10.152-.359.792-11.089-.864-16.2-1.584-14.617-1.728-15.047-2.088-.72.504-.792 5.184-.72-.72-.432-.792-.504-1.368-.72-.216-1.224 1.512v.504l-1.44-.432-.72.216-.792-.432h-1.44l-1.584-.576-.432.144-.72.648h-.72l-.792-.288-1.513-.288-.719.36-.144.792-.288.144-.72-.72-.432-.792.144-.72-.432-.72.215-.72-.431-1.368-.792-.72-.792.216-.576-.72-.216-.792.36-1.008-.073-.72-.215-.792-.577-.72-.575-1.512-.288-2.016v-1.512l-.721-.72-.143-.648-3.024 1.656-.72.144-.72-1.008-.864-.288.216-.792.576-.72-.216-.792.432-.72.72-.144.287-1.512-.431-.72.36-.792-.216-.72.576-.72.216-.792.792-1.512.792-2.232-.72-.288-1.008.072-.72-.432.144-.72h-.72l-.36-.792-.72-.648-.144-.792.144-.36-.576-.72-.936-1.512-.288-.792-.504-.72-.216-.72-1.152-.648-.288-.72-1.224-1.44.792-.144-.432-.72"/><path fill="#F05132" stroke="#FFF" stroke-width=".5" stroke-miterlimit="10" d="M133.339 114.839l4.248-29.016.792-5.184.72-.504 15.047 2.088 14.617 1.728 16.2 1.584 11.089.864-1.657 23.328-1.584 23.471-13.68-1.079-7.56-.721-14.184-1.511-8.352-1.008-17.424-2.376 1.728-11.664"/></a><a xlink:href="/locations/texas/"><path fill="#FEC42A" stroke="#FFF" stroke-width=".5" stroke-miterlimit="10" d="M134.779 241.631l.072-.36 8.28-65.666 15.264 1.801 13.608 1.369 16.416 1.368 10.368.648-.36 5.902-.432.146-.072.792-1.728 28.224-.936 10.656-.792 12.169-.648.718h-.361l-8.639-.576-8.569-.718-9.647-.793-7.488-.791v.359l.432 1.439.432.577v.289h-.072l-15.912-1.729-.433.936-.431 3.888-.72.287-7.632-.935"/><path fill="#FEC42A" stroke="#FFF" stroke-width=".5" stroke-miterlimit="10" d="M143.131 175.605l5.904-46.726 8.352 1.008 14.184 1.511 7.56.721 13.68 1.079 7.993.577 8.567.432.792.432-.576 11.376-1.727 35.352-9.073-.576-10.368-.648-16.416-1.368-13.608-1.369-15.264-1.801M159.979 239.184v-.289l-.432-.577-.432-1.439v-.359l7.488.791 9.647.793 8.569.718 8.639.576h.361l.648-.718.792-12.169.936-10.656 1.728-28.224.072-.792.432-.146 12.745.722 9.576.433 3.888.071.792.071.864.433-.648 20.88-.072 1.297.72.071.791.576 1.297 1.441.648.359.792-.359.792.287.72-.073.36-.793.216.434.72.359.504.721v.72l.216.792h.792l.36.144.72-.217.792.504 1.511.504.721-.143h.792l.36.505.576.504.792-.217.72-.576 1.512.144.792-.072-.072.792.431.72.792.144.144.432.073 1.008.719.144.721-.288 1.152-1.151.792.287.288.718h.72l.288.722.72.144 1.224-.576.72.072-.288.721.288.791.216.144.504-.072.288-1.44.792-.506.072-.501.216-.145.721.287.647.721.72.288.72-.576.72.072.504.792.72.432.792.289.72.647.36-.722h.792l.864-.934.792-.071.72-.579.72.506h.793l.647-.506 1.439-.574.792.72.504.144h.793l.504-.29.432-.718h.721l1.727 1.08 1.441 1.152.718.216.791.504 2.09.433.287.214.073.289.72.577.792-.504 2.375.429.217 6.338.358 11.879 1.297 1.152.504.721.576 1.512-.143 1.152.575.72.361.792.287.145.361.718v.792l1.223 1.513.29.071-.073.72.215.792-.359.577.288.72-.288.72.144.793-.431.719-.145.792-.576.72-.359.792.214 1.439-.504.791.361.937.36 1.801-.217.864-.718.792-.073.072-.648.575-.863 1.513 1.079 1.583-2.234.217-2.375 1.079-2.16 1.153-.791.287-.721.432-.792.791h-.215l.431-.791 1.657-1.152.793-.144.142-.216h-1.439l-1.584.433.576-1.515v-1.222l-.721-.143-.719.574-.432.791-1.079-.645-.362.288.362.791-.075.721.721.575v1.081l.792.287-.359.938-.72.359-.504.719-1.224.865-.145 1.295-1.439 1.368-.72.576-1.08.504-1.441 1.008-1.439.143-1.512.504.145.721.718-.505.793-.143-.865.576-1.512.576-2.231 1.225.072-.217 1.511-.864.217-.72-1.512.647.432-.503-.72.073-.288-.721-.792.504-.72-.36-.431-.793-.145.073.646 1.439-.718.288-1.153-.934-.143-.505-.792.072.792 1.512.72.505-.432.718.792-.214.72.431-.144.287-2.231 1.225-.722-.288-1.007-1.441.145.289-.362.791.362.721v.792l-.866 1.008-.718.358.287-.718-.072-.72-.215.72-.722.718-.215-.574-.721.36-.792-.072.217.361-.432.718.72.649.36-.72.719-.504v.648l-.431.793-1.44 2.014-.72-.719-1.584.144-.792.216.432.288.72-.217v.576l.576.721.36.216.216.72-1.512 3.744-1.08.36.72-.576-.72-.216-.504.216-.721.072-.575-.722-.72-.574.359.792.433.432-.144.792 1.512.432 1.44-.36-.216.72v.792l-.36.721-.072.791h-.72l-.072.72.792.936-.72-.288v.719l.72.721.576 2.592-.072.792 1.224 2.52.216 1.512.503.72h-.792l.577 1.009.576-.793-.216.793.864-.721.144.864-.361.072-1.871.503v.721l-.72.07-.792-.574h-.144l-1.44-1.44-.721-.144-.719-.36-1.728.072-3.024-.288-.648-.288-1.44-1.368-.792-.072-.72-.361-.792.145-.432-.288-.504-.72-.721-.504-.431.071-.72-.359-1.512-.145-.432-.214.144-.721-.792-.72-.216-1.584-.576-1.584-.576-.792-.792-1.44-.577-.72-.071-.721.144-.718v-.793l-.792-.577.36-.793.072-.791-.288-.718.072-.721-.216-.359-.72-.577-1.224-.361-1.441-2.015-.143-.72-.576-.792-.648-.504-.217-.72-.647-1.08-.72-.288-.792-.648-.72-1.512-.36-1.513.216-.216-.648-.791-.36-.72-.504-.649v-.287l-.288-.721-.864-1.584-.432-1.942-.576-.72-.864-1.511-2.16-1.659-.072-.647-.72-.359-.792-.649-.289-.722-.72.147-.143-.576-.577-.649-.288-.718-.721-.579-.719-.287-.792.505-2.016-.576h-.792l-.72-.146-.793.146-.719-.216-1.296-.721h-.72l-.432.721-.719.216-.72-.072-.793.359-.72.071-.361.361-.647.936-1.224 3.024-.432.289-.144.791-.288.72-.72.29-.432.719-.792.503-.217.649h-1.223l-.72-.145-.072-.288-.72-.072-.72-.575-.72-.791-2.016-.938-.36-.791-1.512-.361-.72-.287-1.728-1.584-.504-.72-.72-.504-.72-.289-1.008-1.008-1.584-3.743-.072-1.44.216-.793v-.719l-.432-.72-.648-1.514-.36-.287-.216-1.511-.288-.72-.576-.361-.144-.719-.72-.361-1.512-1.367-.72-.289-.792-.576-1.296-1.512-.36-.792-1.44-1.439-1.44-1.945-.72-.719-1.44-.792-.72-.576-.649-1.441-.143-.72-.432-.718-.72-.576-.36-.074-.073-.071-.647-.359"/><path fill="#FEC42A" stroke="#FFF" stroke-width=".5" stroke-miterlimit="10" d="M198.427 186.693l.36-5.902 9.073.576 14.76.649 20.952.504h21.095l11.521-.217.143 5.832 1.657 9.864.36 3.24.144 20.449-2.09-.433-.791-.504-.718-.216-1.441-1.152-1.727-1.08h-.721l-.432.718-.504.29h-.793l-.504-.144-.792-.72-1.439.574-.647.506h-.793l-.72-.506-.72.579-.792.071-.864.934h-.792l-.36.722-.72-.647-.792-.289-.72-.432-.504-.792-.72-.072-.72.576-.72-.288-.647-.721-.721-.287-.216.145-.072.501-.792.506-.288 1.44-.504.072-.216-.144-.288-.791.288-.721-.72-.072-1.224.576-.72-.144-.288-.722h-.72l-.288-.718-.792-.287-1.152 1.151-.721.288-.719-.144-.073-1.008-.144-.432-.792-.144-.431-.72.072-.792-.792.072-1.512-.144-.72.576-.792.217-.576-.504-.36-.505h-.792l-.721.143-1.511-.504-.792-.504-.72.217-.36-.144h-.792l-.216-.792v-.72l-.504-.721-.72-.359-.216-.434-.36.793-.72.073-.792-.287-.792.359-.648-.359-1.297-1.441-.791-.576-.72-.071.072-1.297.648-20.88-.864-.433-.792-.071-3.888-.071-9.576-.433-12.745-.722"/><path fill="#FEC42A" stroke="#FFF" stroke-width=".5" stroke-miterlimit="10" d="M207.86 181.367l1.727-35.352 11.305.576 21.888.576 11.449.072 14.903-.144 2.089 1.584.718-.504.577.216.504.792.144.792-.072.216-.792-.072-.288.72-.866 1.223.29.721.72.936.864.576v.792l1.152 1.44.646.216.793.575.577 24.985-11.521.217h-21.095l-20.952-.504-14.76-.649M276.331 188.135l9.288-.216 14.761-.648 16.848-1.08.72.432.575.72.216.719v.793l-.575.719-.793.433-.575.792-.36.721.36.791 5.399-.577.289.433.144.72-.792.288.432.792-.72.576-.721.359-.431.433v.144l.576.719-.504.433-.361.504-.503.288.431.72-.287.648-.288-.504-.721.287-.143.793.719-.217-.143.937.432 1.944-.144.287-.721.217-.359.72-.72.433-.072.214.287.217.145.791-.72.649-.792.36-.361-.504.217 1.655-.577.073-.215-.791v1.08l.719.431-.719.36-.217-.72-.072 1.152.504.361-.432.935.144.576-.575.791-.432.217h-.721l.144.72-.72.72-.143.431-.792-.215.504.577-.288.214v.72l.36.721-1.872.792.504.431-.145.793.145.648-.145.433h-.792v.575l.792.216-.719.432-.216-.288-.504.288.576.792-.721.504.505.72-.432.792.719-.649.433.504-.72.504.72.217.071-.072-.216.647.288.864.216.145.217 1.225-.072.142h-.72l.144.649-.073 1.007-15.84.866-12.023.431-.217-6.338-2.375-.429-.792.504-.72-.577-.073-.289-.287-.214-.144-20.449-.36-3.24-1.657-9.864"/><path fill="#FEC42A" stroke="#FFF" stroke-width=".5" stroke-miterlimit="10" d="M282.956 229.031l12.023-.431 15.84-.866-.288.361-.143.719.719-.503.577.144.072.72-.649.648.073.791.864.433-.864.935.216.504 1.295-.215-.576.719.504.721-.719-.217-.073.145.361.72.719.36.216.576.721.216.144.144-.073.216h-.575l-.576.72-.792.288-.432.721.72.143.792-.143-.576.863-.073.288-.719.071.719.287.073.146-1.728 1.872-.648.288-.288.72.503.359-.719.72-.144.722-.792.503.72.072-.145.288-.719.576.359 1.512-.863.072.648.721-.217.575-1.079.216.504.791-.144.793.504.718-.72.793 9.792-.577 9.36-.719.071.145-.143.791-.504 1.513-.288 1.297.288.791.432.718 1.08.938.216.792.432.72-.072.36.432.72.503.36.361.216-.864.358-.073-.216-.216.145-.792-.07-.719-.65-.288.217-.504-.288h-.721l-.719-.648-.793-.504-1.008-.145-.719.216-1.008 1.585-.648.721.072.718.935.433h1.153l2.16-.216.72-.288.648-.72.72.431.504-.721.072.721.792-.504.143.073-.359.791-1.585.937.072.216.577.504.719-.145.361.721h.719l.288-.721.073-.791 1.151-.792.217.72.071.863.649.359v.722l-.216.792-.216-.216-.721-.144-.792.719.361.721.504.574-.72-.287-.792.073.216.503-.72.29.288.791.863.214.792.362.361.793.935-.075.792.433 1.441.217.647.432.361.719.719.217.072.216-.719.216.072.432-.36.79-.145.721-1.008-1.223-.576.791-.287.721-.721.719.576-1.513.504-.718-.359-.793-.072.936-.72-.143-.505-.793-.216-.72-.719.216-.865-.143-.504-.793-.719.216h-.792l.504-.791-.36-.287-.721-.364-.719-.141-2.664-1.081-.073.073.145.72 1.512.863.215 1.441-.719.215.504.721-.36.721-.72.574-.649.289-.359-.72.071-1.152-.792-.216-.72.287-.288-.792-.359.144-.721.289-.791.072-.217.791v1.008l-.575.359-.792-.429h-.217l-.791.359-1.44-.936-.792.287-.576-.361.216-.719-.361-.791-.792-.504-.504-.72.073-.792.143-.073-.143-.72v.577l-.216.071-.433.72-1.439-.503h-.792l-.288-1.08-.72-.36-.217-.791-1.511.143-.72.216-.072-.434.144-.791-1.513.504-.792.362-.288.286-.792.073.721.576.504 1.151h-.721l-1.079.578-.721.07-3.744-.575-1.295-.433-.793-.431-1.511-.577-1.512-.359-.792-.073-.72-.286.216-.362.72-.359v-.72l-.288-.722-.648-.718-.144 1.872-.72.576.72.503-.29.434-3.527.358-.719.504-.793-.575.145-.791.721-.362.287-.791-.287-.792h-.073l.073-.072.718-.792.217-.864-.36-1.801-.361-.937.504-.791-.214-1.439.359-.792.576-.72.145-.792.431-.719-.144-.793.288-.72-.288-.72.359-.577-.215-.792.073-.72-.29-.071-1.223-1.513v-.792l-.361-.718-.287-.145-.361-.792-.575-.72.143-1.152-.576-1.512-.504-.721-1.297-1.152-.358-11.879"/><path fill="#FEC42A" stroke="#FFF" stroke-width=".5" stroke-miterlimit="10" d="M310.819 227.734l.073-1.007-.144-.649h.72l.072-.142-.217-1.225-.216-.145-.288-.864.216-.647-.071.072-.72-.217.72-.504-.433-.504-.719.649.432-.792-.505-.72.721-.504-.576-.792.504-.288.216.288.719-.432-.792-.216v-.575h.792l.145-.433-.145-.648.145-.793-.504-.431 1.872-.792-.36-.721v-.72l.288-.214-.504-.577.792.215.143-.431.72-.72-.144-.72h.721l.432-.217.575-.791-.144-.576.432-.935-.504-.361.072-1.152.217.72.719-.36-.719-.431v-1.08l.215.791.577-.073-.217-1.655.361.504.792-.36.72-.649-.145-.791-.287-.217 13.031-1.007 6.912-.648.145.071.359.505.721.432-.649 35.35 2.304 17.354.073.359-.432.791-1.512-.574-.217.287-.719.287-.72-.214-.792-.577-1.225.145 1.081.072-.36.216-1.512.286-1.514.651-.718.071.144-.145-.648.145.144.071-.216.361-.792.648-.288.72-.72.072-.361-.216-.503-.36-.432-.72.072-.36-.432-.72-.216-.792-1.08-.938-.432-.718-.288-.791.288-1.297.504-1.513.143-.791-.071-.145-9.36.719-9.792.577.72-.793-.504-.718.144-.793-.504-.791 1.079-.216.217-.575-.648-.721.863-.072-.359-1.512.719-.576.145-.288-.72-.072.792-.503.144-.722.719-.72-.503-.359.288-.72.648-.288 1.728-1.872-.073-.146-.719-.287.719-.071.073-.288.576-.863-.792.143-.72-.143.432-.721.792-.288.576-.72h.575l.073-.216-.144-.144-.721-.216-.216-.576-.719-.36-.361-.72.073-.145.719.217-.504-.721.576-.719-1.295.215-.216-.504.864-.935-.864-.433-.073-.791.649-.648-.072-.72-.577-.144-.719.503.143-.719.288-.361"/></a><a xlink:href="/locations/missouri/"><path fill="#8850A0" stroke="#FFF" stroke-width=".5" stroke-miterlimit="10" d="M192.811 133.198l1.584-23.471 8.784.648 14.689.792 14.184.504 9.432.144.936.936 3.168 1.728.792-.288.576-.72 1.512.216 3.312-.36 1.224 1.08.721.072.791.36.072.216.721-.072.718.72.793.288.36.792.72.648.72.216.72.144.072.864-.144.504.432.792.216.72-.072.72.648.792.07.719 1.01 1.296v.721l.504.792.145.72-.145.72v.792l.145.719-.075.289h.722v.72l.72.36-.145.864.432.719-.215.937.576.72-.144.791v.937l.431 1.584-.359 2.231.72.504.216.721v.792l.648.72.504 1.439.648.721.719.504.145.792.576.72-.072.72.864.648-14.903.144-11.449-.072-21.888-.576-11.305-.576.576-11.376-.792-.432-8.567-.432-7.993-.577"/><path fill="#8850A0" stroke="#FFF" stroke-width=".5" stroke-miterlimit="10" d="M194.395 109.727l1.657-23.328.359-.792.648-10.152 14.473.936 16.128.72 14.976.36 15.192.072-.432 1.512-.432.792-.72.432-.721.72-.214.576.575.648.864 1.512.72.144.72.432.503.72.145 21.024h-1.296l.216.864.432.72-.072.792-.36.144.217.792.791.72v.72l-.432.72.072.792-.504 1.44-.216.144-.36.72.216.792.72.648.36 1.584-.72-.216-.72-.648-.36-.792-.793-.288-.718-.72-.721.072-.072-.216-.791-.36-.721-.072-1.224-1.08-3.312.36-1.512-.216-.576.72-.792.288-3.168-1.728-.936-.936-9.432-.144-14.184-.504-14.689-.792-8.784-.648"/><path fill="#8850A0" stroke="#FFF" stroke-width=".5" stroke-miterlimit="10" d="M197.059 75.455l2.448-35.064v-.288l12.169.792 18.288.792 15.624.36h6.912l-.145.36v.072l.289.576.503 2.16.289.72-.432 1.44.216 1.368-.144.72.144.432-.073 1.44.145.792.864 2.448-.144.432 1.008 2.232.36 1.584v.792l-.144.72.216.72v1.512l.215 1.584-.071 1.08.431.792-.143.72.072 2.808.36.72-.072.792.288.72.864 1.224.144.72v.792l.216 1.512-.072.72.144.792-15.192-.072-14.976-.36-16.128-.72-14.473-.936"/><path fill="#8850A0" stroke="#FFF" stroke-width=".5" stroke-miterlimit="10" d="M252.5 42.047h10.008l5.903-.144.146-.72-.073-3.6.504.216 1.44.144.648.72.432 2.304.648 2.16-.072 1.08.646.72.722.288h1.512l.72.504 3.24.36.217.72.791.432 1.873-.432.429-.72.505-.072.217-.144.216-.072.721-.072h1.655l3.024 1.224-.217.792.791-.072.722.648.071.72.432.504.793.36.216-1.152 1.151-.144.792.216.288.72 2.16.936.144.576 1.368.72.938.072 1.509-.648.722-.72 1.512-1.008.792-.072-.072.504.431.216.216.72h.721l.792-.216 1.511.072.792-.216 1.513-.144.72.72.072.216.72.36.792-.36h1.8l-.72.504-.721.72-.719.432-2.448 1.296-.792.216-1.44.648-2.305 1.368-2.807 2.736-.792 1.224-1.944 2.232-.793.648-.431.576-.72.648-2.232 1.8-.36.576-.288.36-.072.072-.362.792-.646.072.288 5.976-.146.864-.43.648-1.441.72-1.511 1.08-.145.72-.432.792-.576.648v.792l.504.792.721.072.864 1.512-.792 1.944.145 1.44-.362.792.432 1.584-.07 1.296-.362.792 1.225.864.721.72.791.36 1.297.216.503.792.719.432 1.008.36 1.08.72 1.009 1.584 1.44 1.296.791.432.721.144.72.504.72.72.648.936.288 2.016.216.792-.072.288.289.792-8.785.504-12.096.504-14.544.36-8.712.072-.145-21.024-.503-.72-.72-.432-.72-.144-.864-1.512-.575-.648.214-.576.721-.72.72-.432.432-.792.432-1.512-.144-.792.072-.72-.216-1.512v-.792l-.144-.72-.864-1.224-.288-.72.072-.792-.36-.72-.072-2.808.143-.72-.431-.792.071-1.08-.215-1.584v-1.512l-.216-.72.144-.72v-.792l-.36-1.584-1.008-2.232.144-.432-.864-2.448-.145-.792.073-1.44-.144-.432.144-.72-.216-1.368.432-1.44-.289-.72-.503-2.16-.289-.576v-.072l.145-.36"/><path fill="#8850A0" stroke="#FFF" stroke-width=".5" stroke-miterlimit="10" d="M258.62 117.647l-.36-1.584-.72-.648-.216-.792.36-.72.216-.144.504-1.44-.072-.792.432-.72v-.72l-.791-.72-.217-.792.36-.144.072-.792-.432-.72-.216-.864h1.296l8.712-.072 14.544-.36 12.096-.504 8.785-.504-.073.576.215.288.287.792.577.216.361.72-.721 1.512.288 1.152.145 1.296.505.72.142.936.362.72.791.36 2.232.432.576 1.512-.072.144.576.648 1.512 1.152.143.936.721.576.791.432.721.72.288.792-.288 2.304-1.008 1.368-.144 1.584-.72.648-1.512.576-.72.576-2.808.576-.288.792-.216 1.512 1.368 1.44.143 1.584-1.079 1.439-.144.505v.792l-.217.719-1.8.937-.576.719.505.721-.072.792-.504.504-.36-.144-.577-.793-1.439-1.08-.432-.791-5.833.648-13.535.792-6.191.143-9.793-.071-.216-.721-.72-.504.359-2.231-.431-1.584v-.937l.144-.791-.576-.72.215-.937-.432-.719.145-.864-.72-.36v-.72h-.722l.075-.289-.145-.719v-.792l.145-.72-.145-.72-.504-.792v-.721l-1.01-1.296-.07-.719-.648-.792.072-.72-.216-.72-.432-.792.144-.504-.072-.864-.72-.144"/><path fill="#8850A0" stroke="#FFF" stroke-width=".5" stroke-miterlimit="10" d="M265.1 140.039l9.793.071 6.191-.143 13.535-.792 5.833-.648.432.791 1.439 1.08.577.793.36.144-.36.72-.144.792v1.44l.288 1.512.287.36.433 1.512.431.792.216.72 1.009.719.72.793.792.503.288.721 1.872 1.151.72.576.432.721.791 3.312.576.719.792-.215.433-.72.359-.072.793.288.719.072 1.44.936v.288l-.503.935.072 1.297-.576 1.152-.361 1.296-.431.72-.073.792.145.72 1.367 1.511 2.233 1.512h.432l.144.938.792-.362 1.296.793.431.791.721.504.792.289.143 1.657.865 1.439-.144.792-.504.792.936 1.512 1.152 1.511.72-.359 1.079.576.145.649-.145.791.217 1.08-.721.576.36.721-.36 1.08-.791-.289-.793.36-.215.937-.72.576.144-.576-.36-.721-.288.792.144.792.287.72-.791.288.432.793-1.009.718.721.721-.433.72-.504 1.223-5.399.577-.36-.791.36-.721.575-.792.793-.433.575-.719v-.793l-.216-.719-.575-.72-.72-.432-16.848 1.08-14.761.648-9.288.216-.143-5.832-.577-24.985-.793-.575-.646-.216-1.152-1.44v-.792l-.864-.576-.72-.936-.29-.721.866-1.223.288-.72.792.072.072-.216-.144-.792-.504-.792-.577-.216-.718.504-2.089-1.584-.864-.648.072-.72-.576-.72-.145-.792-.719-.504-.648-.721-.504-1.439-.648-.72v-.792"/><path fill="#8850A0" stroke="#FFF" stroke-width=".5" stroke-miterlimit="10" d="M327.523 177.119l-1.08 1.44v.793l.432.431-1.079-.576-.72.359-1.152-1.511-.936-1.512.504-.792.144-.792-.865-1.439-.143-1.657-.792-.289-.721-.504-.431-.791-1.296-.793-.792.362-.144-.938h-.432l-2.233-1.512-1.367-1.511-.145-.72.073-.792.431-.72.361-1.296.576-1.152-.072-1.297.503-.935v-.288l-1.44-.936-.719-.072-.793-.288-.359.072-.433.72-.792.215-.576-.719-.791-3.312-.432-.721-.72-.576-1.872-1.151-.288-.721-.792-.503-.72-.793-1.009-.719-.216-.72-.431-.792-.433-1.512-.287-.36-.288-1.512v-1.44l.144-.792.36-.72.504-.504.072-.792-.505-.721.576-.719 1.8-.937.217-.719v-.792l.144-.505 1.079-1.439-.143-1.584-1.368-1.44.216-1.512.288-.792 2.808-.576.72-.576 1.512-.576.72-.648.144-1.584 1.008-1.368.288-2.304-.288-.792-.721-.72-.791-.432-.721-.576-.143-.936-1.512-1.152-.576-.648.072-.144 13.608-.792zM307.364 68.255l.355.36.792.288.724.576.86 1.44 7.921 1.512 2.595 1.152.289-.072 1.511.216.721-.216.792.288 1.943.216.721.432.146 1.368.721.072 1.149.36.794.72-.22.216.36.72-.146 1.512-.285.72.285.648.723-.216.792-.072-.436 1.512.072.72.72.648h.072l.359.144-.071-.72.792-1.224 1.079-2.232.433-1.512.437-.792.646-.792.288-1.44.648-1.08-.288.72.288.792.432.72.72-.648.146-.432.72-.792.72-.288.724.144-.072.792-.72.576-.359.936.72.072.504-.792.724-.72.793-.576.068-.864.436-.72.576-.36.792-.144.72.072 1.439-.432h.791l.721-.432.646-1.152 1.439-.216.792.216.721-.072 1.513.504 1.585 1.296.723.288v-1.368l.216-.792.72-.144.724.432.72-.288 3.528.072.721-.216-.433-.72-.796-.36-.068-.72-.723-.36h-.217l-.721-.504-.071-.792-.217-.72-.431-.792-.648-.72-.576.144-.069.072-.435.648-.72.36-.504-.72-1.516.576-1.438-.216-.359-.648-.068-2.664-1.44.216-.72.288-1.439.864-.72.216-3.024.216-.721.288-1.296.288-.719.72-1.517.936-1.148 1.512-.647-.288-.72.072-.792-.144-.721-.648-1.729.648-.72.072-.793-.36-.435-.792-1.364-1.44-.437-.792-.72-.144-.721-.648-.792-.144h-1.516l-.72.288-.505.72-.359.216.647-1.512-.72.72-.724.432-.216.72-.288.288-.216-.72.145-1.512-1.225-1.512-.504-.288-.504-.72-1.584 1.8-.436.72-1.513.648-.792.792-.721.504-.723.288-.79.072-.723.216h-.792l-.792.432-1.367 1.512-2.229 1.008-.713.432"/><path fill="#8850A0" stroke="#FFF" stroke-width=".5" stroke-miterlimit="10" d="M293.54 66.887l.72.72.792.144.72-.144 2.953-1.08 1.439-.864.792-.216.792-.432.72-.576.937-.432.791.576-.144.792-.504.72v.72l-.217.72-.287.504h.792l.721-.432.791.144.725.36 1.296.144.355.36.792.288.724.576.86 1.44 7.92 1.512 2.596 1.152.289-.072 1.511.216.721-.216.792.288 1.943.216.721.432.146 1.368.721.072 1.151.36.791.72-.219.216.36.72-.146 1.512-.285.72.285.648.723-.216.792-.072-.436 1.512.072.72.72.648h.072l.359.144-.215.72v.504l-.725.504-.792.288-.067.72-.437.792-.576 1.512-.216.936.146.72.721.072.359-.72.72-.576.504-.792.145-.72.436-.72.721-.288.792-.576.648.72.355.792-.144.72-.793 2.16-.146 1.44-.216.792.575 1.512-.071.36-.721.576-.359.792-.355 1.512v.72l.355 1.584v.792l-.433.792-.146.792.072.72-.504 1.584-.146 1.44.505 1.656-.217.72.647.792v.72l.504.72.216.72v.792l-.145.72.217 1.584h-.36l-10.296.936-13.604.792-.576-1.512-2.232-.432-.791-.36-.359-.72-.145-.936-.505-.72-.146-1.296-.287-1.152.721-1.512-.359-.72-.576-.216-.287-.792-.217-.288.072-.576-.289-.792.072-.288-.217-.792-.287-2.016-.648-.936-.72-.72-.72-.504-.721-.144-.791-.432-1.44-1.296-1.009-1.584-1.08-.72-1.008-.36-.723-.432-.505-.792-1.295-.216-.793-.36-.722-.72-1.225-.864.359-.792.07-1.296-.434-1.584.358-.792-.146-1.44.791-1.944-.863-1.512-.721-.072-.506-.792v-.792l.576-.648.434-.792.146-.72 1.513-1.08 1.438-.72.433-.648.146-.864-.287-5.976.646-.072.359-.792.07-.072.313-.36"/></a><a xlink:href="/locations/southeast/"><path fill="#03456A" stroke="#FFF" stroke-width=".5" stroke-miterlimit="10" d="M317.588 203.902l.072-.214.72-.433.359-.72.721-.217.144-.287-.432-1.944.143-.937-.719.217.143-.793.721-.287.288.504.287-.648-.431-.72.503-.288.361-.504.504-.433-.576-.719v-.144l.431-.433.721-.359.72-.576-.432-.792.792-.288-.144-.72-.289-.433.504-1.223.433-.72-.721-.721 1.009-.718-.432-.793.791-.288-.287-.72-.144-.792.648-.071-.144.576.72-.576 12.743-1.083.073-.791-.504-1.439h1.584l.863.287 3.889-.503 3.744-.288 4.68-.648 4.536-.216 4.607-.433 2.521-.431 4.103-.216 3.025-.288 2.952-.432 3.313-.217 1.006-.359 2.882-.433 1.512-.071 6.263-.936 3.745-.577 2.952-.719 1.08-.072-.36 1.008.072.792-.289 1.367-.719.289-.648.72-.504 1.584-.72.792-.649-.504-1.439.576-.72.574-.288.722-.721.792h-.504l-.719-.721-.72.433-.288.358-.144.722-.792-.218-.288 1.514-.432.72h-.72l-1.44 1.009-2.088 2.087-.648.288-1.513.072-1.512.863-.647.721-.289.792-.144 1.009-.649.718-1.51.433v3.024l-3.745.287-8.497 1.081-10.584 1.224-13.679 1.08.072.287-.145-.071-6.912.648-13.031 1.007"/><path fill="#03456A" stroke="#FFF" stroke-width=".5" stroke-miterlimit="10" d="M337.676 202.318l-.072-.287 13.679-1.08 10.584-1.224 3.529 11.087 3.528 12.745.217.36.215.792.504.792.576 1.44.935.864.146.288.358.864-.144 1.15.721.362.144.72-.721.577-.432.718.074 1.441-.289.792-.216 1.44.505 1.441.575.791.36 1.08-.217.72.073.719-.216 1.656.216.793.576.719.647 1.152v.361l-15.624 1.872-9.288.935-.719.577-.216.935 1.152 1.512.72.361.719.72-.36 1.079.288.721-.215 1.368-.72.647-.792-.143.143.216-.216.718-.792.289-2.951.504.504-.359.72.071.792-.288.143-.721-.504-.791-.215.145-.792-.434-.36-.718.287-.721-.143-.721-.432-.719-.36-.072-.433-.575.072.36-.287.648-.144.792-.144 2.664h-.72l-1.441-.288-.719.143-.073-.359-2.304-17.354.649-35.35-.721-.432-.359-.505"/><path fill="#03456A" stroke="#FFF" stroke-width=".5" stroke-miterlimit="10" d="M350.203 254.303l-.288-.721.36-1.079-.719-.72-.72-.361-1.152-1.512.216-.935.719-.577 9.288-.935 15.624-1.872 1.08 1.656.145.72.575.721 25.705-1.874.792.504.576 1.512.72.072.721-.504.071-1.584-.144-.719-.431-.72-.072-.72.216-.794h.36l.576-.574.792.287 1.943.433.721.071.359-.071.361-.071.864.287-.145 1.511-.431-.504.431.791.72.722.36.72.217 1.367.791 1.513.216.792 1.152 2.734 1.153 2.235 2.376 3.958 4.176 5.256 1.439 1.512.505.72.36.793-.576.719.216 1.512.432 1.369.36.718 1.584 2.234-.792-.793-1.513-2.375-.503-2.233.144-1.512-.144-.793-.648-.501-.721.287-.792-.721.145-.719-.72-.431h-.288l.504 1.51.935 2.234.433.718 2.231 3.6 2.88 4.104 1.225 2.591.936 1.441v.719l-.144.29.216-.145.719.359 1.224 1.513.145.937.36.214.863 2.809.145 3.455.144.793v2.233l.144 1.51.216.937-.073.72-.287-.792-.217.792.073.719-.576.649-.072.72-.36.791.143.721-.215.432.504 1.44-.504.72-.288.792.288.72-.937-.361.433.361-.792-.432-.721.504-.575.646-.721.362h-.792l-.72-.145-.935.576-1.512.504-.721-.792-.287-.719.576-.72.72.576.936.433.431-.721-.719-.576h-.792l-.648-.216-1.296-1.441-.361-.793-.936-1.294-.719-.577-.216-.718-1.441-.577-.431-.073-.792-.071-.792.216-.72-.433.72-.287h-.576l-1.225-1.514-.791-2.806-.72-.648-.72-.218-.072-.43.576-.72.072-.793.864-1.079-1.008.792-.144.72-.721.792-.719.072.072-.504-.361-.721-.143-.791.072-1.511-.505-.721.792-.504-.144-.144-1.368.719-.359-.505-.792-.07.72.504.431.721.216.718-.288-.143-.72.071-.719-.215-1.153-1.224-.504-.72-1.655-2.735.144-.289-.433-.72-1.439-.72-.504-.721.72.577v-.504l.719-.287.217-1.225 1.296-2.232-.144-.648-.648-.722-.721.722-.215-.722-1.584-.791v.145l.504.576v.72l.215.143h.721l-.36 1.513-.505.72-.071-.287-1.44-.938.792 1.08-.792-.719-.504-.792.359-1.224v-1.512l-.216-.648.793-3.815.072-.864-.216-.721-.145-2.231-.143-.36-.073-.791-.792-.361-.576-.722v-.718l-1.151-1.08-1.512.144-.72-.217-.432-.718-.72-.289-.648-.866-2.16-1.438-.073-.721-.359-.792-1.584-.719-1.08-1.512-1.512-.936-.721-.072-1.656-.864-.431-.073-.792.217-1.441.144-.719.576-.36.72.287.36-1.009-.288.938.432.288.719-.792-.216-.504.216-.792.216-2.233 1.872-.72.071-.143-.358-.792.647-.145.361-.721.071-1.512.432-.288.217-.792.071-.718-.288-.289-.72.073-.791.07.72.289.791.72-.216-.145-.721-.431-.791-.719-.719-.721-.217-.791-.432h.287l-.287-.287-.72-.359-.721-.721 1.513.574.791.506.431-.506-.79.072-.432-.791-.792.145-1.082-.72.361-.648.575-.216.146-.721-1.152.863-.721-.359-.719.145.358.575.721.432.145.721-1.513-.864-1.872-.65-3.023-.646h-.721l-.719-.217 1.51.072.144-.431.721-.144.792.361.648.142-.36-.647-1.295-.575-.793.214-.721.361-.215-.65-1.512 1.369-.361.073-1.943.217-2.304.575-.792.072.215-.146 1.152-.287.577-.718-.792-.721-.144-.721-.289.865-.432.719-.359-1.008-.432.432.072.073.143.288-.359.791-.648 1.009-.72.432-.792.288-.433-.072.36-.72.72-.72-.071-.36-.721-.288"/><path fill="#03456A" stroke="#FFF" stroke-width=".5" stroke-miterlimit="10" d="M361.867 199.727l8.497-1.081 3.745-.287 11.52-1.8-.144.576-1.44 2.088-.217.793.36.718.792.433.721.144 1.44 1.152 1.08-.145.792.649.36.721.72.863.288.72 1.943 2.375 1.513 1.009 1.44.72.719.792.504.864.505.432.792.142 1.08.866.648.36-.073.504.288.72.792.431.145.721.792.287v.145l.719.72.72.215 1.584.937.072.719.865 1.153.36.792v.72l.216.793.72.503 1.08.432.576.792.359.792.576.792-.072.72.145.72.504.72 1.511.216.361.216.359.143.577.073-.36.72-.721.504.073.72-.72.072-.72-.36v.792l.72.504-.577.864-.792.145.144.718.721-.288.071.361-.287.793-.792-.504.359.718-.719.649.36.359.72-.215-.504 1.44-.433-.072v.793h-.719l-.72-.217-.216.072.72.359h.719l.792.287-.216.722-.648 1.152-.72-.432-.288.721 1.008.071-.359.792-.72-.433.72.65-.432.718h.504l-.36.72-.144.72.504.721-.072.793-.361.071-.359.071-.721-.071-1.943-.433-.792-.287-.576.574h-.36l-.216.794.072.72.431.72.144.719-.071 1.584-.721.504-.72-.072-.576-1.512-.792-.504-25.705 1.874-.575-.721-.145-.72-1.08-1.656v-.361l-.647-1.152-.576-.719-.216-.793.216-1.656-.073-.719.217-.72-.36-1.08-.575-.791-.505-1.441.216-1.44.289-.792-.074-1.441.432-.718.721-.577-.144-.72-.721-.362.144-1.15-.358-.864-.146-.288-.935-.864-.576-1.44-.504-.792-.215-.792-.217-.36-3.528-12.745-3.529-11.087"/><path fill="#03456A" stroke="#FFF" stroke-width=".5" stroke-miterlimit="10" d="M374.109 198.359v-3.024l1.51-.433.649-.718.144-1.009.289-.792.647-.721 1.512-.863 1.513-.072.648-.288 2.088-2.087 1.44-1.009h.72l.432-.72.288-1.514.792.218.144-.722.288-.358.72-.433.719.721h.504l.721-.792.288-.722.72-.574 1.439-.576.649.504.72-.792.504-1.584.648-.72.719-.289.289-1.367-.072-.792.36-1.008 1.511.072 2.88-.29 7.416-1.078 20.305-3.744 10.296-2.09 9.071-2.013.145.718.576.721.792.145v.359l1.44 2.16.072.791-.577-1.008-1.511-1.151.504.72.72.72h-.936l-1.513-.936-.792.143.721.217.792.648v.647l-.721.289-.792-.289.577.721-1.081-.217h-.72l.793.505-1.657 1.368-.792-.289-.72.072-.719-1.439.072-.721-.145-.215.073-.144-.361-.432.288.576-.288.648.145.72.433.793.575.719.143.792.792-.144.721-.287.792-.505 1.512.36.144-.721 1.152-.431.792.072.144.72v.864l-.36.721.719.287-.503.721.288.359.719-.72-.215-1.44v-.792l1.08-.144.144-.504-.072-.431.792.718.504.721.143 1.512.216.647-.647.721-.72-.216v.72l-1.008 2.304-.648.72-1.657-.072-.719-.145-.433-.719-.071.792-.792-.216-.721-.648.433-.503-.721.071.072.72.288.72-.504-.144-.719.288-1.441-.071-1.584-.433-.072.143.217.29 3.312.863h.719l1.584.576-.288.792-.792.144-.216.576.721-.144v.72l-1.152 1.439-.504.362-.792-.073-.865-.648-.792-.288-.648-.432.577.72 1.224 1.15 1.511.146 1.512-.937.721.362-.217-.721.576-.145-.072-.071.217-.722.359.722-.215.72.719-.145.36-.793.289-.07.288.575-.288.792-.649.721-.647 1.439-.288.073-.792-.504-.289.792-.36-.792-.575.72-.072.36h-.72l-1.8.935-.792-.287-.721 1.44-.503.718-.216.146-.792-.288.504-.72-.72-.288.36.504-.432.72.432.719-1.585 1.37-1.008 1.509-.648 1.514-.216.792v2.231l-.504-1.798-.359-.721h-.144l.503 1.512-.143 1.511-.72.505h-1.296l-1.44.361-1.513.647-.431.071-.361-.287-11.951-8.496-10.441 1.656-.215-.216-.073-.72-.288-.792-1.223-1.152-.72.289-.721-.721-3.168.216-8.424.936-.719.216-.72.433-1.513.504-1.151 1.08-.792.071-2.376 1.224-11.52 1.8"/><path fill="#03456A" stroke="#FFF" stroke-width=".5" stroke-miterlimit="10" d="M385.629 196.559l2.376-1.224.792-.071 1.151-1.08 1.513-.504.72-.433.719-.216 8.424-.936 3.168-.216.721.721.72-.289 1.223 1.152.288.792.073.72.215.216 10.441-1.656 11.951 8.496.361.287v.433l-.72.433-1.656 1.726-1.584 2.953-.36.792-.072 2.449-.288-.721-.72-.288.504-1.512-.216.144-.433.793-.071.863.72.504.576.718-.648.722-.72-.218.576.289-.576.793-.288.719-.72.217-.721-.217-.504.721.289.792-.504.36-.433.72-.647.72-.72.144-.288-.721h-.648l.287 1.081.72.289-.359.791-.721.36.073.433-.865.214-.72.577-.719-.36.503.36-.719.718-.72.075-.721.359-.935-.216-1.44.648.576-.073.72.362h.791l.288.359-.504.72.721-.72-.36 1.225-.792.575-.721-.433-.504-1.367-.071 1.512-.72-.649-.36-.718-.576-.577.72 1.44.216.721.36.503.72.577-.504.718-.505.073v-.72l-.287.72-.361 1.511-.359-.143-.361-.216-1.511-.216-.504-.72-.145-.72.072-.72-.576-.792-.359-.792-.576-.792-1.08-.432-.72-.503-.216-.793v-.72l-.36-.792-.865-1.153-.072-.719-1.584-.937-.72-.215-.719-.72v-.145l-.792-.287-.145-.721-.792-.431-.288-.72.073-.504-.648-.36-1.08-.866-.792-.142-.505-.432-.504-.864-.719-.792-1.44-.72-1.513-1.009-1.943-2.375-.288-.72-.72-.863-.36-.721-.792-.649-1.08.145-1.44-1.152-.721-.144-.792-.433-.36-.718.217-.793 1.44-2.088.144-.576"/></a><a xlink:href="/locations/midwest/"><path fill="#A9C038" stroke="#FFF" stroke-width=".5" stroke-miterlimit="10" d="M459.573 114.047l.287-.072.865-.648.719-.288 1.584-.936.792-.288.793-.576.719-.072 1.513-1.08.144-.576.792-.144 1.44-1.296.792-.504 1.008-1.224-.792.576-.72.288-.216-.216-.793.216-.719.432-.936 1.512-.504.216-.721.072.504-.72.792-.648v-.792l.721-1.296-2.233 2.664-1.511.648-2.233.504-.72.288-.359.72h-.721l-1.511.792-.648-.144-.721.576.073.72-.721-.216-.287.792-1.297.864-.287.936-.072.72.288.144 1.511-.288-.792.576 1.512-.72 2.665-1.512M324.572 185.688l.215-.937.793-.36.791.289.36-1.08-.36-.721.721-.576-.217-1.08.145-.791-.145-.649-.432-.431v-.793l1.08-1.44.721-.288.791.144.721.36 1.439.433.649.43.718.145.578-.937-.216-.718-.576-.721-.145-.792.217-.72.72-.288.792-.505 1.439-.359.504-.72-.575-.792-.144-.792.504-.72.288-.72v-.288l.791.144.433-.722-.288-.718 1.512.216.719-.432.145.792.719-.287-.215-.721 1.007-.072.721-.362 2.304.866.72.576.432-.72v-.288l.504-.72.72-.288.647-.576.577.792.719.144.792.503.145-.793.576-.718-.072-.792.576-.72.792-.504-.362-.721.721.361.649 1.151.72.289 1.512.144.72-.433.143-.791-.071-.793.504-1.512.792.073.72-.649.216-1.511.791-.432.577-.72.215-.792-.287-.864-.073-.792.721-.072.72-.288.864.576 1.44-1.152 1.583-.432.145-.72-.72-.792.288-.72-.504-.936.36-.361 1.007-.576.72.504 1.226-.359 1.799.72.432.864 1.153 1.511.791.145 1.512-.145.432.073 1.512 1.224.792-.072.504-.72.719-.073.937.145.718.648.721-.36h.721l.434-.72.791-.721.864-.431.576 1.296.72.72.72.072.719.648.576.72.073.504.288.36.072.792-.36 1.44 1.584 1.656.216.719.719.721 1.585 2.016 1.512 1.08 1.511.072-2.879 3.384-2.592 1.944-.504.791-.072.793-.864.649-.073.718-.575.721-.721.359-.72.577-.143.793-1.801.718-.72.577-.792.144-1.441 1.008-1.006.359-3.313.217-2.952.432-3.025.288-4.103.216-2.521.431-4.607.433-4.536.216-4.68.648-3.744.288-3.889.503-.863-.287h-1.584l.504 1.439-.073.791-12.743 1.083"/><path fill="#A9C038" stroke="#FFF" stroke-width=".5" stroke-miterlimit="10" d="M335.948 169.271l-.505-.792.361-.72.071-1.441.145-.071.215-1.513-.143-.143.143-.792.721-.649.575-.719.937-1.584.072-.792.791-1.441.217-.143.143-.792-.503-1.512.143-.792-.647-.72-.577-.936-.072-.792.433-.792-.361-.72.72-.792-2.592-27.288v-.36l1.009.72 1.008.215.792-.215 1.512-.793 1.512-1.079h.36l4.248-.432 12.168-1.512.863.648 1.37 10.871 2.231 19.584-.36.361.504.936-.288.72.72.792-.145.72-1.583.432-1.44 1.152-.864-.576-.72.288-.721.072.073.792.287.864-.215.792-.577.72-.791.432-.216 1.511-.72.649-.792-.073-.504 1.512.071.793-.143.791-.72.433-1.512-.144-.72-.289-.649-1.151-.721-.361.362.721-.792.504-.576.72.072.792-.576.718-.145.793-.792-.503-.719-.144-.577-.792-.647.576-.72.288-.504.72v.288l-.432.72-.72-.576-2.304-.866-.721.362-1.007.072.215.721-.719.287-.145-.792-.719.432-1.512-.216.288.718-.433.722-.791-.144"/><path fill="#A9C038" stroke="#FFF" stroke-width=".5" stroke-miterlimit="10" d="M342.068 121.823l.287-.216.721-.72.504-.792.359-.72.649-2.232.792-1.512.288-.792.432-2.736v-2.232l-.432-3.024-1.008-2.304.432-.72-.721.288-2.088-3.96-.143-.72.288-.72.504-.792-.577-2.232-.431-.72.072-.72.648-.792.864-2.232.072-.792-.144-.72.144-1.296-.433-1.44.72-.576.649-.72-.073-.72.937-1.368.72.216.576-.72.143-.72.504-.72.288-.72.72-.576-.216 2.088-.215.504.36.792-.288.72.143.72.504-.72.217-1.512.287-.072v1.512l-.216.72.649-.72.215-.792.144-.72v-.864l-.359-2.304.504-.72.719-.576.793-.432h1.008l-.072-.648-.721-.432-.359-.792v-.72l.719-.864.433-.792.72-.36.648-.576.791.432.721.216.72.576h.72l.648-.144.72.216.72.432.432.72.721.216h.791l.72.36 1.583.432.792.36h.721l.792.504.216.72.575.72.433.288v.72l-.72.144-.288.936.432.72.792.504.36.72.361 1.512-.073 1.512.288 2.376-.719.72-.721.432-.215.72-.073 1.512-.72 1.152-.792.144-.792.576-.145 1.512.073 1.152.936.864.792.072.721.288.575-.792.361-.72.719-.576.359-1.296-.143-.72.721-.288.792-.72.719-.288 1.153-.864.791.144.719.288.721.72.863 1.512.792 2.952.433.72.432 1.512.433 1.584.359.864.719 1.224h.074l.072.576-.218.288-.145 1.512.217.72-.142 1.584-.432.72-.504.216.143-.216-.216-.72-.36-.504-.792.432-.145.648-.504.72.073 1.584-.577.72-.863.648-.072.144-.216.36-.216.72-.072 2.232-1.296 2.232-.503 1.512-3.529.72-7.849 1.296-.863-.648-12.168 1.512-4.248.432h-.36"/><path fill="#A9C038" stroke="#FFF" stroke-width=".5" stroke-miterlimit="10" d="M359.707 120.527l7.849-1.296 3.529-.72.216.288 1.583.216.72.36 1.08.216.719.576.794.144.719-.72.646.72-1.15.288-.719.72.719.072.721-.648h1.512l.864.432.72.144.719-.576.792-.288.721-.504 1.584-.72.72.144 1.512-.216 1.44-1.296.792-1.152.647-.72.721-.576 1.512-1.08 4.392-2.592.072.432 2.591 15.12-.504.36h-.359l-.217.72.505.647.504 2.233-.288.792-.36 2.232.144.791-.072.937-.359.071.143.721-.143.72.071.792-.288 1.44-.936.863-.936 1.513-1.441 1.296-1.295-.504-.648.936v.719l-1.08.577-.288.72v.791l-.504.793.576.72-.433.72-.288.792-.792-1.152-.718-.288-.505.792-.288.72v.792l-.216.288-.216.792.287.431.145 1.441-.792.504v.792l-.576.72-1.08.503-.72.145-.073-.072-.576-.72-.719-.648-.72-.072-.72-.72-.576-1.296-.864.431-.791.721-.434.72h-.721l-.721.36-.718-.648-.937-.145-.719.073-.504.72-.792.072-1.512-1.224-.432-.073-1.512.145-.791-.145-1.153-1.511-.432-.864-1.799-.72-1.226.359-.72-.504-1.007.576-2.231-19.584-1.37-10.871M377.707 178.631l1.441-1.008.792-.144.72-.577 1.801-.718.143-.793.72-.577.721-.359.575-.721.073-.718.864-.649.072-.793.504-.791 2.592-1.944 2.879-3.384-.072.72.649.792.792.721 1.512.863 1.079.217 1.441-1.009.359-.72 1.225.504.72-.072 1.656-.791.72-.217.215-.649v-.719l1.153.36 1.439-1.225.793.145 1.44-1.008.144-.144-.217-.72.577-.72-.577-.793.288-1.367.792-1.513.72-1.007.36-1.512.073-.792.504-.721.431-1.512.289-.287.144-.793v-1.511l.792-.216.72.647.072.361 1.512.215.719-.287.361-.72.288-1.584.36-.72.144-1.08.288-.72.792.072.72-.216.648-1.512.647-.072.577-.72.503-1.441.504-.791-.072-1.512.289-.792-.144-.72.792-.36 4.104 2.232.504-.792.216-1.368h1.584l.72.504.36.72-.144.72.791.504 1.008-.072.793.359.576.433.648.144.648.36.36.792.072.432.216.791-.721.721.073.359-.217.289-.215.072-.432-.288-.288 2.232.143.72-.287.072.287.72.721.072.504-.217.863-.647h.792v.72l1.225 1.08.432.143.792-.071.216.144 1.44-.289.144.361.719.504v.432h.721v.287l.72.073 1.585.576v.792l-.721-.144.431.72.073.792-.432 1.08-.793-.288-.071-.216-.72-.072-1.512-1.152-.505-.073-.648-.791-.72-.289-.647-.792-.792-.647-.864-.36-.72.072.647.072 1.512.936.433.719.431.433.793.36.575.791 1.513.721.215.432.721.576.719-.072.792.648-.288.216.721.216.72-.072.359 1.367-.143.721-.72-.576-.72-.145-.288.217.649.72-.361.792-1.513-.648-1.44-1.296-.792-.144 1.584 1.224.648.72 1.513.576.792-.216.215.72.793.288.288.72-.217.791-.504.145-.36.431-.72-.791-.791-.289-.72-.647-.576-.792-.72.575-.72-.431-.72-.648-.072.792h-.36l-.792-.648-1.512.288-.721-.145-.216.361h2.304l1.44.576.649-.145.72.288.792-.288.288.721.504.792.072-.072.72.503.719.721-.214.72.791-.72.576.072.72.36-.289-.432.216-.864.721.143 2.088-.072.647 1.513 1.369 2.231-.288.073-.36-.791-.721-.579.072.793.217.721-.36.145-.433-.362.216.362-9.071 2.013-10.296 2.09-20.305 3.744-7.416 1.078-2.88.29-1.511-.072-1.08.072-2.952.719-3.745.577-6.263.936-1.512.071-2.882.433"/><path fill="#A9C038" stroke="#FFF" stroke-width=".5" stroke-miterlimit="10" d="M384.404 156.095l.073.072.72-.145 1.08-.503.576-.72v-.792l.792-.504-.145-1.441-.287-.431.216-.792.216-.288v-.792l.288-.72.505-.792.718.288.792 1.152.288-.792.433-.72-.576-.72.504-.793v-.791l.288-.72 1.08-.577v-.719l.648-.936 1.295.504 1.441-1.296.936-1.513.936-.863.288-1.44-.071-.792.143-.72-.143-.721.359-.071.072-.937-.144-.791.36-2.232.288-.792-.504-2.233-.505-.647.217-.72h.359l.504-.36 1.872 10.656 9.145-1.656 1.008 6.048.648-.792.72-.649.432-.719.72-.792.288-.72.648-.288.72.144 1.007-1.512.073-.72.215-.072.792.72.72.144 1.152-.144.144-.72.648-.792h.792l.361-.792.575-.288.792.288.721.504 1.511-.144.073.071-.216.793.72.144.072.792.647.648.145.432-.216 1.368-.504.792-4.104-2.232-.792.36.144.72-.289.792.072 1.512-.504.791-.503 1.441-.577.72-.647.072-.648 1.512-.72.216-.792-.072-.288.72-.144 1.08-.36.72-.288 1.584-.361.72-.719.287-1.512-.215-.072-.361-.72-.647-.792.216v1.511l-.144.793-.289.287-.431 1.512-.504.721-.073.792-.36 1.512-.72 1.007-.792 1.513-.288 1.367.577.793-.577.72.217.72-.144.144-1.44 1.008-.793-.145-1.439 1.225-1.153-.36v.719l-.215.649-.72.217-1.656.791-.72.072-1.225-.504-.359.72-1.441 1.009-1.079-.217-1.512-.863-.792-.721-.649-.792.072-.72-1.511-.072-1.512-1.08-1.585-2.016-.719-.721-.216-.719-1.584-1.656.36-1.44-.072-.792-.288-.36-.073-.504"/><path fill="#A9C038" stroke="#FFF" stroke-width=".5" stroke-miterlimit="10" d="M395.781 111.743l1.008-.576 1.512-1.224.72-.792.072.216 2.52-2.016.072.288.503 2.736 6.913-1.224 10.584-2.088 11.952-2.52 7.92-1.8.072.144.72.36.36.72.647-.144.792.648.792 1.584.144.72.648.792 1.369.576.719.072.865.36v.288l-.792.936-.289.72v.72l-.864 1.944-.719.72.288.576.288.144.359.72-.216.72-.575.72.216 1.224.647.792.792.288.145.72.72.504.432.144.72.72 1.727 1.296-.431.72-.864.791-.576.793-.216.072v.072l-.073.071-.576.649v.72l-.719.648-.72.216-.72.792-.288-.216-.576-.072-.721.144-.72.432-.431.719-.216.721-17.136 3.672-15.12 2.88-9.145 1.656-1.872-10.656-2.591-15.12-.072-.432"/><path fill="#A9C038" stroke="#FFF" stroke-width=".5" stroke-miterlimit="10" d="M401.613 107.351l.287-.216 1.657-1.656 1.224-1.512.936-.936.576-.72.359-.792 1.296-1.44v-.792l-.935-1.656.36-.504-.072-.288-1.584-.288.072-.576-.433-1.368v-.072l.792-.36.721-.504.791-.216.721-.432 1.584-.648 2.88-.576 3.024-.144 1.943.792 1.512-.864 1.513-.36 1.512-.072.576.216.504-.72.719-.432.649-.72.432-.792.936-.72.791-.864h.792l.505-.72-.072-.792-.288-.72-.073-.504-.719-1.512.719-.288.145-.72.431-.72-1.007.504-.073-1.08-.791.36.144.792-.144-.432-.72-.576.143-.72 1.368-1.44.793-.648.287-.576 1.153-1.512-.072-.936 2.376-3.96 2.664-2.88 1.511-.792h.72l5.257-1.152 5.688-1.584.144.36.216.576-.145.792.577.792.072 1.728.288.792.719.72.217.72-.072.792.287.792.072.72-.287.36v1.512l.504 1.512.432.72.431 1.512-.143 1.296.359.792.361-.864 1.152 1.008 1.655 7.56-.071.504.504.72-.145.792-.072 7.2.288.432 1.513 8.424.504.792v.792l-1.225 1.224v.288l.792.792-.792 1.584-.071.864-.792.288-.361.792h-.288l.361-1.584-.145-2.304-.359-1.152-.792-.504-.216-.72-.072.216.143.72.72.72.505 1.8-7.776-2.52v-.288l-.865-.36-.719-.072-1.369-.576-.648-.792-.144-.72-.792-1.584-.792-.648-.647.144-.36-.72-.72-.36-.072-.144-7.92 1.8-11.952 2.52-10.584 2.088-6.913 1.224-.503-2.736-.072-.288M409.461 136.295l15.12-2.88 17.136-3.672 2.448 8.496 1.224 5.112.431.792 5.328-1.224-.143.288-.36.287.719.649-.359 1.512-.36-.216-.36 1.512-.576.72.072.72-1.584.576-.72.72h-.649l-1.439.504v-.504l.504-.792.288-.72-.72.288-.288-.504-.721.432-.143-.72.647-.792-.504-.217v-1.439l-.647 1.512-.361-.36v-.72l-.288.72.217.792-.648-.288-.72-.576-.72-.36.215.719-.719-.791v-.793l.36-1.439-.792.431.215-.791 1.874.144.502-.721-.719.36-.936-.287-.289-.72-.432-.288-.719.143-.144.792-.36-.72.144-.791.72-.289.72.577-.361-.72.504-.649-.719-.071-.504-.721-.216.288-.649.433-.143.72v-1.512l.648-.144.792-.648-.144-.288v-.72l-.288-.072-.288.72-.504-.792.359-2.233.649-.719.72-.144.719-.36-1.008-.072 1.008-1.512-.215-.288-.721.576.145-.72-.432.216-.72.144-.072.432.504.792-.577.72-.719.216-.073-.72-.288.431v1.153l-.647-.792-.216.432.144.432-.073.936-.72-.145.72.649h-.72l-.216-.144-.792.216 1.801 1.08-.144.792.719.432-.288.072-.791-.144-.144.144.575.431-.071 1.369.288.72-.217.72.433.72.431 1.656 1.441 1.44-.433.72-.359-.504-.721-.216-.792-.504-.792-1.512-.216-.721v.433l.504 1.512.504.72 1.08.576.792.648.721.288.935 1.439-.215.649-.72-.576-.792-.073-.217.145-.647-.72-.72-.072-.792.288-.721-.72-.288-.72-.144.432v.72l-.791-.504-.577-.72-.431-.792-.72.288-.072.504-.576.792-.649-.72-.143-.792.215-.72.217-.144.432-.72.072-.72.575-.721-.143-.935.431-.649.073-.647-.865-.576-.935.504-.648-.144-.576-.433-.793-.359-1.008.072-.791-.504.144-.72-.36-.72-.72-.504h-1.584l-.145-.432-.647-.648-.072-.792-.72-.144.216-.793-.073-.071-1.511.144-.721-.504-.792-.288-.575.288-.361.792h-.792l-.648.792-.144.72-1.152.144-.72-.144-.792-.72-.215.072-.073.72-1.007 1.512-.72-.144-.648.288-.288.72-.72.792-.432.719-.72.649-.648.792-1.008-6.048"/><path fill="#A9C038" stroke="#FFF" stroke-width=".5" stroke-miterlimit="10" d="M441.717 129.743l.216-.721.431-.719.72-.432.721-.144.576.072.288.216-.36.36-.073.72-.288.792-.359.504.576.719-.072.721.432.72.648.72.72.576.503.719.073.793.431 1.152.793.648.287.72 1.441 1.152.792-.072.287.432-.287.719v.721l.36.071-.648.793.36-.216.792-.144.504 1.512h-.217l-.216.072-5.328 1.224-.431-.792-1.224-5.112-2.448-8.496"/><path fill="#A9C038" stroke="#FFF" stroke-width=".5" stroke-miterlimit="10" d="M444.093 130.391l.216-.504.143-1.08.36-.72.72-.648.504-.216.217-.145.792-.575v-.72l.359-.793.073-.071v-.072l.216-.072.576-.793.864-.791.431-.72-1.727-1.296-.72-.72-.432-.144-.72-.504-.145-.72-.792-.288-.647-.792-.216-1.224.575-.72.216-.72-.359-.72-.288-.144-.288-.576.719-.72.864-1.944v-.72l.289-.72.792-.936 7.776 2.52.071.792-.071.792-.288 1.08.071.504-.719.72-.216-.072-.432.864v2.088l.575.144.721-.216 1.512.216.215.936v2.304l.217.72.144 2.231-.073.793-.215-1.512.072-.72-.288-.649-.144.721-.289.144.289.719.144 1.153-.217.72.36.719-.287.721-.504.792-.144.864-.721.288.288.72-.504.72.361.648-.72.071-.576.721-.072.36.36.144-.36.72-.289 1.512-.503.791-.145.721-.432.576-.719.072-.073-.792.288-1.224-.288-.792h-1.511l-.72.359-1.297-1.007-.719-.361-.793-.216-1.439-1.223.144-.361-.073-.071-.431-.721.072-.215M447.261 156.814l.143 1.369-.647 1.44-.792-1.08-.072-1.512.216-.217-.144-.792.071-1.511.577-1.296.072-1.513h.719l.145-.792-.721-.504.649-.719.72-.72 1.584-.576-.217 1.08.073.72-.504 1.08-.288 1.512.071 1.44-.215.792-.072.072-.721-.504-.143.72-.361.719-.143.792M447.693 64.511l2.88-.864 11.879-3.096-.216.36.504 1.08-.431 1.512.143.792.576.72.288.72-.072.72-.575 1.08-1.296 1.44-.289.072-.72.72.074.792.431 1.512-.288 1.296.144.792-.287.72.071.792-.216.72-.433.792.145 1.152-.36.72.648 2.592v1.512l.432 2.232-.361.72v.864l.433.864.72.72-6.552 1.368-.504-.72.071-.504-1.655-7.56-1.152-1.008-.361.864-.359-.792.143-1.296-.431-1.512-.432-.72-.504-1.512v-1.512l.287-.36-.072-.72-.287-.792.072-.792-.217-.72-.719-.72-.288-.792-.072-1.728-.577-.792.145-.792-.216-.576-.144-.36"/><path fill="#A9C038" stroke="#FFF" stroke-width=".5" stroke-miterlimit="10" d="M454.965 89.927l6.552-1.368 9.576-2.232.936-1.08.432-.792.216.072.504-.792.792-.504.359-.072h.361l-.144.72.576.36.144.72.719.576.721-.144-.145-.144.721-.144-.144.792-1.44 1.008-.36.72.143.288-.647.792.36.72h-.793l.504.72.721.432.792-.432.792.144 1.439 1.368.649.792-.721-.36v.72l.721.36.72.144.719 1.44.433.288.792-.072.72.216 1.512-1.152.648-.72-.361-1.224-.647.072-.288-.792-.792-.504-.792-.144.792-.144.72.216.792.576 1.008 1.368.432 1.44-.432.792-.865.288-2.231 1.224-.288-.144-.216.792-.721.504-.791.288-.36-1.512v-.72l-.72.504-.36.72-.72.576-.432 1.224-.72-.072-.504.792-.072-.432-.361-1.08-.647-.216.215-.72v-.792l-.143.72-.576.432-.577-.36-.071-.072-.504-.504-.073-.576-.431-.216-.289-.72-.719-.504-2.88.864-.504-.072-1.008.216-4.32 1.08-.792.36-.432-.072-1.44.504h-.72l-4.969 1.08-.288-.432.072-7.2.145-.792"/><path fill="#A9C038" stroke="#FFF" stroke-width=".5" stroke-miterlimit="10" d="M455.036 98.351l4.969-1.08h.72l1.44-.504.432.072.792-.36 4.32-1.08 1.008-.216.504.072 1.656 5.904.144.792-.216.576.072.288.071.36-.431-.144-1.512.504-1.513.936-.791-.072v-.36l-.36-.144.288.576v.432l-2.305.576-.359.36h-.792l-.721.432-.792.144-1.151 1.512-.432-.288-.577.792-.791.432-1.368 1.512-.721.288-.792-.792v-.288l1.225-1.224v-.792l-.504-.792-1.513-8.424M461.517 88.559l-.72-.72-.433-.864v-.864l.361-.72-.432-2.232v-1.512l-.648-2.592.36-.72-.145-1.152.433-.792.216-.72-.071-.792.287-.72-.144-.792.288-1.296-.431-1.512-.074-.792.72-.72.289-.072 1.296-1.44.575-1.08.072-.72-.288-.72-.576-.72-.143-.792.431-1.512-.504-1.08.216-.36.073-.072-.144-.72.359-1.512v-.72l.721-.576.72.216.719-.792.145.36 5.544 16.848.863 2.232v.792l.217.72.36.72.719.648.792.36.073.72.719.792.361.144.36.216-.36 1.512v.72h-.361l-.359.072-.792.504-.504.792-.216-.072-.432.792-.936 1.08-9.576 2.232"/><path fill="#A9C038" stroke="#FFF" stroke-width=".5" stroke-miterlimit="10" d="M464.9 56.375l.577-.72.72.36.719-.288-.144-.72.144-.72.217-.072.72.288-.792-1.512.144-.144.144-.792.432-.72 1.224-1.512-.36-.576.864-1.584-.649-.72v-1.512l-.431-.72.36-2.232.649-1.08-.505-3.096 3.456-10.224.72-.144.719.072.433 1.512.864.648.863.216.721-.72.72-.288.647-.792.721-.36.576-.792.863-.36.793.216 1.511.648 1.513 1.08.648.144 3.239 9.864.937 2.52v.72l.432.72-.073.648.216.72.721-.072.792.504h.792l.72-.288.503.36-.215.792.215.72.577.72v.792l.431.792.793.648.575-.648h.577l.505.144.142.144 1.368 1.44-.935 1.224.719.648.577-.72-.216-.288.792.648-.073.72-.791 1.44-.72.504-1.153-.144.504.792-.719-.144v.504h-.073l-.647.36v.72h-.721l-.143.72-.361-.072-.647-.792-.433.864.217.72-.145.792-.215-.792-.072.792-.289-.72-.431.36.288.72-.288.72-.504-.792-1.945-.504.145.72-.721.648-.647-.72.072.72-.217.792.145.72.431.792-1.08-.432h-1.511l.359-.504.073-.792-.72.144.143-.72-.575-.72.216 1.224-1.08.648.431.72-.072.792-.215.72.071.792-.143.792.359.72-.576.864-.287.72-.793-.288-.792-.072-.287.72.071.792-.143.72-.577-.432-.215-.792.072-.72-.145.144-.072.792.36 1.44-.792-.36.217-.72-.432-.72-.288.144-.216 1.008.576.792-.288.72-1.08-2.448.072-.792-.36.72-.073.72.289-.288 1.007 2.304-.215.792-.577-1.512-.215-.072-.216.792-.361.72-.072-.72-.071.72-.361-1.368-1.152 1.584-.215.792.072.72.503.216-1.007 1.512.36.72-.576 1.368-.721.72v.72l.217.792-.288.792-.648.72-.361-.144-.719-.792-.073-.72-.792-.36-.719-.648-.36-.72-.217-.72v-.792l-.863-2.232-5.544-16.848-.145-.36"/></a><path fill="#AAC016" stroke="#FFF" stroke-width=".5" stroke-miterlimit="10" d="M322.268 115.055l10.294-.936h.362l.072.72-.072 1.512.144.72.792 1.44.72.648.216 1.152.432.792.215.72.792 1.152v.36l2.592 27.288-.72.792.361.72-.433.792.072.792.577.936.647.72-.143.792.503 1.512-.143.792-.217.143-.791 1.441-.072.792-.937 1.584-.575.719-.721.649-.143.792.143.143-.215 1.513-.145.071-.071 1.441-.361.72.505.792v.288l-.288.72-.504.72.144.792.575.792-.504.72-1.439.359-.792.505-.72.288-.217.72.145.792.576.721.216.718-.578.937-.718-.145-.649-.43-1.439-.433-.721-.36-.791-.144-.721.288z"/><g id="pins"><a id="pin-MO" xlink:href="/locations/missouri/"><path fill="#8850A0" d="M295.551 120.027c-13.526 5.465-28.91-1.065-34.374-14.589-5.465-13.525 1.064-28.911 14.591-34.376 13.524-5.463 28.91 1.066 34.377 14.59 5.46 13.527-1.07 28.911-14.594 34.375z"/><path fill="#FFF" stroke="#8850A0" stroke-miterlimit="10" d="M271.759 61.136c-18.059 7.297-28.504 28.542-21.206 46.607 7.297 18.06 30.931 33.596 62.918 56.639 7-38.795 13.211-66.389 5.913-84.45-7.298-18.063-29.561-26.095-47.625-18.796zm23.042 57.032c-12.494 5.047-26.707-.983-31.756-13.479-5.046-12.492.985-26.707 13.48-31.754 12.496-5.049 26.708.985 31.753 13.479 5.048 12.494-.983 26.706-13.477 31.754z"/><g fill="#FFF"><path d="M280.841 94.956l-1.656-11.089-.096-.746h-.145l-.002 11.833h-2.399l.002-17.642h3.166l1.537 8.064.12.937h.048l.119-.937 1.538-8.064h3.167l.001 17.642h-2.399l-.001-11.832h-.145l-.095.745-1.657 11.089h-1.103zM294.905 91.332c-.026.721-.17 1.369-.437 1.921a3.306 3.306 0 0 1-1.027 1.296c-.481.384-1.13.6-1.994.6-.863 0-1.535-.216-2.015-.6-.48-.36-.793-.815-1.011-1.296-.265-.552-.405-1.2-.435-1.92l.003-10.394c.022-.695.167-1.344.433-1.896.217-.48.526-.96 1.01-1.32.479-.36 1.151-.601 2.016-.601.863 0 1.511.241 1.992.601.479.36.814.84 1.029 1.32.268.552.408 1.2.436 1.896v10.393zm-2.593-10.394c0-.478-.096-.814-.335-1.103a.743.743 0 0 0-.525-.192c-.456 0-.674.336-.771.647a1.87 1.87 0 0 0-.097.648l.001 10.393c-.001.504.119.84.359 1.104.119.12.287.192.502.192.458 0 .674-.288.769-.648.072-.168.097-.384.097-.648V80.938zM268.078 100.421c.001-.336-.015-.714-.11-1.009-.1-.28-.252-.476-.49-.476-.393.014-.519.42-.52 1.022-.001.35.153.714.379 1.106.225.392.519.798.812 1.232.351.519.699 1.05.967 1.569.266.518.447 1.05.447 1.609 0 .688-.111 1.332-.436 1.809-.32.476-.839.784-1.668.784-.965 0-1.513-.364-1.818-.925-.311-.56-.379-1.302-.38-2.073l1.484-.14c0 .434.017.868.126 1.189.098.336.27.562.587.561.45 0 .618-.477.618-1.135 0-.336-.167-.729-.395-1.135-.125-.196-.252-.406-.393-.616-.293-.42-.615-.896-.951-1.415a5.771 5.771 0 0 1-.742-1.597 2.761 2.761 0 0 1-.127-.827c0-.561.127-1.162.45-1.625.32-.448.812-.771 1.522-.784.912-.016 1.446.364 1.74.909.293.561.377 1.248.377 1.822l-1.479.145zM272.082 98.404l.002 1.89h.965l.001 1.274h-.967l-.001 3.811c0 .238.001.546.056.798.057.253.168.463.395.463.111 0 .252-.015.352-.028.058-.014.111-.014.168-.028l-.002 1.387c-.067.016-.139.042-.211.058a2.954 2.954 0 0 1-.547.042c-.826 0-1.219-.422-1.414-.954s-.21-1.177-.211-1.624l.002-3.923h-.714l-.001-1.273h.715v-1.891l1.412-.002zM273.606 106.402h1.473v1.555h-1.473v-1.555zM282.093 104.426v1.416a2.8 2.8 0 0 1-.253 1.122 1.905 1.905 0 0 1-.603.755c-.28.225-.657.351-1.16.351-.508 0-.896-.126-1.178-.351a1.875 1.875 0 0 1-.588-.756 2.779 2.779 0 0 1-.252-1.121v-6.064c.013-.406.099-.785.252-1.106.123-.281.308-.561.587-.772.282-.209.671-.349 1.179-.35.503 0 .881.14 1.162.35.277.21.477.49.601.771.155.322.238.7.252 1.107v1.415h-1.413v-1.416c.001-.28-.069-.476-.225-.645-.069-.069-.195-.111-.35-.111-.268 0-.395.196-.463.378-.04.112-.057.238-.072.378l.002 6.065c.015.294.099.49.238.645.069.07.168.112.295.111.319 0 .444-.167.518-.378a.958.958 0 0 0 .057-.378v-1.415l1.414-.001zM284.418 107.956h-1.417V97.66h1.416v3.277c.027-.014.084-.069.168-.153.154-.154.363-.364.614-.504a.736.736 0 0 1 .367-.1c.374 0 .644.226.811.505.169.294.252.673.254.995v6.275h-1.418l.002-6.065c-.001-.294-.169-.336-.337-.336-.154 0-.238.083-.337.182-.039.056-.084.112-.125.184l.002 6.036zM289.778 102.116c-.002-.125-.002-.321-.043-.463a.359.359 0 0 0-.352-.238c-.236 0-.336.183-.377.406a2.474 2.474 0 0 0-.026.364 8.891 8.891 0 0 0-.001.364h-1.416l.003-.323a2.15 2.15 0 0 1 .546-1.442 1.785 1.785 0 0 1 1.354-.603 1.727 1.727 0 0 1 1.726 1.737v4.707c0 .687.042.995.099 1.331h-1.386c-.127-.154-.129-.519-.129-.616h-.095a1.538 1.538 0 0 1-.396.461 1.238 1.238 0 0 1-.743.268.901.901 0 0 1-.7-.351c-.237-.266-.435-.742-.436-1.541.002-.854.253-1.472.59-1.891.335-.419.757-.687 1.106-.868.35-.184.614-.31.671-.462l.005-.84zm-.002 2.142c-.687.294-.979.98-.979 1.709 0 .098.015.266.071.419.057.168.152.294.32.294.325 0 .59-.196.588-.463v-1.959zM294.942 101.751a1.223 1.223 0 0 0-.393-.057c-.222 0-.488.027-.713.238-.27.225-.311.463-.31.7l-.001 5.323h-1.414l.003-7.662h1.411v.854c.016-.098.112-.336.336-.56a1.52 1.52 0 0 1 1.078-.407v1.571h.003zM295.561 107.956V97.66h1.413v10.295l-1.413.001zM301.608 105.211l-.001.882c-.04.743-.268 1.261-.771 1.667-.252.21-.604.309-1.062.309-.911 0-1.374-.505-1.6-1.008a2.849 2.849 0 0 1-.224-1.009l-.001-3.853c.043-.743.279-1.289.785-1.708.236-.21.587-.308 1.05-.31.911 0 1.374.504 1.597.996.127.293.21.616.227.979l.001 2.228h-2.341v1.667c.015.294.101.504.225.658a.4.4 0 0 0 .296.112c.265 0 .392-.168.446-.378.043-.112.056-.238.056-.393l.002-.839h1.316-.001zm-2.337-1.933h1.022l-.001-1.078c0-.294-.056-.505-.194-.673a.44.44 0 0 0-.31-.112c-.266 0-.38.183-.45.393a1.62 1.62 0 0 0-.067.394v1.076zM304.662 102.255c-.001-.183-.002-.406-.059-.588-.07-.167-.182-.309-.405-.309-.183 0-.296.141-.352.309-.068.168-.085.406-.083.588-.001.237.125.49.308.715.168.224.392.448.615.658.297.294.646.63.885 1.008.236.392.419.827.42 1.331 0 .49-.111 1.008-.394 1.401-.296.407-.743.7-1.415.7-.854 0-1.357-.393-1.64-.869-.279-.476-.336-1.064-.337-1.472h1.319c-.001.21.013.505.108.729.098.239.252.435.547.435.405 0 .491-.477.49-.925 0-.461-.45-.924-.884-1.358-.336-.322-.657-.617-.909-.995-.251-.378-.438-.799-.435-1.358 0-.448.081-.967.351-1.374.266-.391.7-.685 1.373-.7.827-.014 1.287.294 1.525.7.236.406.279.938.28 1.374h-1.308z"/></g></a><a id="pin-CA" xlink:href="/locations/california/"><path fill="#F05132" d="M59.113 156.747c-14.585 0-26.406-11.819-26.406-26.408 0-14.584 11.818-26.406 26.406-26.406 14.587 0 26.407 11.821 26.407 26.406 0 14.589-11.821 26.408-26.407 26.408z"/><path fill="#FFF" stroke="#F05132" stroke-miterlimit="10" d="M58.817 93.262c-19.479 0-37.119 15.786-37.119 35.271 0 19.478 16.095 42.734 37.119 76.084 21.025-33.348 37.118-56.604 37.118-76.084.001-19.485-17.633-35.271-37.118-35.271zm0 61.51c-13.474 0-24.393-10.916-24.393-24.393 0-13.474 10.917-24.393 24.393-24.393 13.474 0 24.394 10.917 24.394 24.393 0 13.477-10.919 24.393-24.394 24.393z"/><g fill="#FFF"><path d="M58.179 126.15v2.425c-.024.72-.168 1.368-.432 1.92-.216.48-.552.937-1.032 1.296-.48.384-1.128.601-1.992.601-.864 0-1.536-.217-2.016-.601-.48-.359-.792-.815-1.008-1.296-.264-.552-.408-1.2-.432-1.92v-10.394c.024-.695.168-1.344.432-1.896.216-.48.528-.96 1.008-1.32.48-.36 1.152-.601 2.016-.601.864 0 1.512.24 1.992.601s.816.84 1.032 1.32c.264.552.408 1.2.432 1.896v2.425h-2.424v-2.425c0-.479-.12-.815-.384-1.104-.12-.12-.336-.192-.6-.192-.456 0-.672.336-.792.648-.072.191-.096.408-.12.647v10.394c.024.504.168.84.408 1.104.12.12.288.192.504.192.552 0 .768-.288.888-.648.072-.168.096-.384.096-.647v-2.425h2.424zM59.018 132.199l2.664-17.642h3.168l2.664 17.642h-2.521l-.48-3.601h-2.496l-.48 3.601h-2.519zm4.392-11.906l-.072-.456h-.144l-.072.456-.744 5.568h1.776l-.744-5.568zM49.652 143.083c-.014.42-.098.799-.252 1.121a1.933 1.933 0 0 1-.602.756c-.28.225-.659.351-1.163.351s-.896-.126-1.177-.351a1.894 1.894 0 0 1-.588-.756 2.808 2.808 0 0 1-.252-1.121v-6.065a2.79 2.79 0 0 1 .252-1.106c.126-.28.308-.561.588-.771s.672-.35 1.177-.35c.504 0 .882.14 1.163.35.28.21.476.49.602.771.154.322.238.7.252 1.106v6.065zm-1.513-6.065c0-.28-.056-.476-.196-.645a.44.44 0 0 0-.308-.111c-.266 0-.393.196-.448.378a1.073 1.073 0 0 0-.056.378v6.065c0 .294.07.49.21.645.07.07.168.112.294.112.266 0 .392-.168.448-.379a.979.979 0 0 0 .056-.378v-6.065zM52.087 145.199h-1.415v-7.662h1.415v.645c.028-.015.084-.07.168-.154.154-.154.364-.364.616-.504a.714.714 0 0 1 .364-.099c.378 0 .645.225.812.505.168.294.252.672.252.994v6.275h-1.415v-6.065c0-.294-.168-.336-.336-.336-.154 0-.238.084-.336.182-.042.057-.084.112-.126.183l.001 6.036zM57.015 135.646v1.891h.967v1.274h-.967v3.811c0 .238 0 .546.056.798.056.253.168.463.392.463.112 0 .252-.015.351-.028.056-.014.112-.014.168-.028v1.387c-.07.015-.14.042-.21.057-.14.027-.322.042-.546.042-.827 0-1.219-.421-1.415-.953-.196-.532-.21-1.177-.21-1.624v-3.923h-.714v-1.274h.713v-1.891h1.415v-.002zM60.851 139.358c0-.126 0-.322-.042-.463a.355.355 0 0 0-.351-.238c-.238 0-.336.183-.378.406-.014.112-.028.238-.028.364v.364h-1.415v-.322c0-.56.21-1.062.546-1.442a1.79 1.79 0 0 1 1.359-.603c.462 0 .882.183 1.205.49a1.7 1.7 0 0 1 .518 1.247v4.706c0 .687.042.995.098 1.331h-1.387c-.126-.154-.126-.521-.126-.616h-.098a1.56 1.56 0 0 1-.392.462 1.228 1.228 0 0 1-.743.267.904.904 0 0 1-.7-.351c-.238-.266-.434-.742-.434-1.541 0-.854.252-1.471.588-1.891.336-.42.757-.687 1.107-.868.35-.183.616-.309.672-.463l.001-.839zm0 2.142c-.687.294-.98.98-.98 1.709 0 .099.014.267.07.421.056.168.154.294.322.294.322 0 .588-.196.588-.463V141.5zM66.017 138.994a1.266 1.266 0 0 0-.392-.057c-.224 0-.49.028-.714.238-.266.225-.308.463-.308.7v5.323h-1.415v-7.662h1.415v.854c.014-.098.112-.336.336-.561.224-.21.561-.406 1.079-.406l-.001 1.571zM66.631 134.903h1.415v1.415h-1.415v-1.415zm0 10.296v-7.662h1.415v7.662h-1.415zM72.64 143.335c-.042.742-.266 1.261-.756 1.667-.252.21-.602.309-1.064.309-.911 0-1.359-.505-1.583-1.009a2.806 2.806 0 0 1-.224-1.009v-3.852c.042-.743.266-1.289.756-1.709.238-.21.588-.309 1.051-.309.911 0 1.373.505 1.597.995.126.294.21.616.224.98l-.001 3.937zm-1.331-3.893c.014-.294-.042-.505-.182-.673a.436.436 0 0 0-.308-.112c-.266 0-.378.183-.434.393-.042.112-.056.238-.042.393v3.852c-.014.294.056.505.182.658.07.07.168.112.294.112.266 0 .392-.168.448-.378.042-.112.056-.238.042-.393v-3.852z"/></g></a><a id="pin-MW" xlink:href="/locations/midwest/"><path fill="#A9C038" d="M370.656 106.031c-14.586 0-26.404-11.818-26.404-26.406s11.819-26.406 26.404-26.406c14.589 0 26.407 11.818 26.407 26.406-.001 14.587-11.821 26.406-26.407 26.406z"/><path fill="#FFF" stroke="#AAC138" stroke-miterlimit="10" d="M370.62 42.098c-19.479 0-37.116 15.787-37.116 35.27 0 19.479 16.094 42.736 37.116 76.085 21.021-33.349 37.116-56.606 37.116-76.085 0-19.484-17.632-35.27-37.116-35.27zm0 61.51c-13.474 0-24.394-10.917-24.394-24.393 0-13.473 10.915-24.393 24.394-24.393 13.472 0 24.394 10.918 24.394 24.393 0 13.476-10.918 24.393-24.394 24.393z"/><g fill="#FFF"><path d="M364.035 78.625l-1.656-11.089-.096-.744h-.146v11.833h-2.398V60.984h3.168l1.537 8.064.117.937h.051l.119-.937 1.535-8.064h3.168v17.642h-2.398V66.792h-.146l-.096.744-1.656 11.089h-1.103zM375.074 78.625h-2.018l-2.377-17.642h2.4l1.032 9.169.048.576h.19l.071-.576 1.104-9.169h1.872l1.104 9.169.071.576h.191l.049-.576 1.031-9.169h2.399l-2.376 17.642h-2.017l-1.2-8.353-.146-1.032h-.097l-.146 1.032-1.185 8.353zM355.779 88.095v1.415c-.016.42-.1.799-.252 1.121a1.93 1.93 0 0 1-.604.756c-.28.225-.659.351-1.163.351s-.896-.126-1.176-.351a1.888 1.888 0 0 1-.589-.756 2.808 2.808 0 0 1-.252-1.121v-6.065a2.79 2.79 0 0 1 .252-1.106c.126-.28.308-.561.589-.771.279-.21.672-.35 1.176-.35s.883.14 1.163.35.478.49.604.771c.152.322.236.7.252 1.106v1.415h-1.415v-1.415c0-.28-.069-.476-.226-.645-.068-.069-.194-.111-.351-.111-.269 0-.394.196-.462.378a1.352 1.352 0 0 0-.07.378v6.065c.014.294.098.49.238.646.07.07.168.112.294.112.322 0 .448-.168.519-.379a.975.975 0 0 0 .058-.378v-1.415h1.415v-.001zM356.688 81.33h1.414v1.415h-1.414V81.33zm0 10.295v-7.662h1.414v7.662h-1.414zM360.636 91.625h-1.415v-7.662h1.415v.645c.028-.015.084-.07.168-.154.154-.154.364-.364.616-.504a.717.717 0 0 1 .364-.099c.378 0 .645.225.812.505.168.294.253.672.253.994v6.275h-1.416V85.56c0-.294-.168-.336-.336-.336-.152 0-.236.084-.336.182-.042.057-.084.112-.126.183l.001 6.036zM365.241 89.861c0 .28.015.616.393.616.322 0 .406-.154.406-.616v-1.064h1.415v.742c0 .854-.154 1.4-.463 1.736-.311.337-.756.463-1.358.463-.505 0-.967-.141-1.289-.49-.319-.351-.519-.925-.519-1.779v-3.348c0-.854.197-1.429.519-1.779.322-.35.784-.49 1.289-.49.604 0 1.05.126 1.358.463.309.336.463.882.463 1.736v.603h-1.415v-.925c0-.462-.084-.616-.406-.616-.378 0-.393.336-.393.616v4.132zM368.32 81.33h1.415v1.415h-1.415V81.33zm0 10.295v-7.662h1.415v7.662h-1.415zM372.27 91.625h-1.413v-7.662h1.413v.645c.027-.015.084-.07.168-.154.154-.154.364-.364.616-.504a.714.714 0 0 1 .364-.099c.379 0 .645.225.812.505.168.294.252.672.252.994v6.275h-1.414V85.56c0-.294-.168-.336-.336-.336-.154 0-.238.084-.339.182-.04.057-.084.112-.126.183l.003 6.036zM376.987 91.625h-1.415v-7.662h1.415v.645c.026-.015.084-.07.168-.154.152-.154.362-.364.616-.504a.71.71 0 0 1 .362-.099c.378 0 .646.225.812.505.168.294.253.672.253.994v6.275h-1.416V85.56c0-.294-.168-.336-.336-.336-.154 0-.238.084-.336.182-.042.057-.084.112-.126.183l.003 6.036zM382.35 85.785c0-.126 0-.322-.042-.463a.356.356 0 0 0-.351-.238c-.238 0-.336.183-.378.406-.015.112-.028.238-.028.364v.364h-1.414v-.322c0-.56.209-1.064.546-1.442a1.789 1.789 0 0 1 1.358-.603c.463 0 .883.183 1.205.49a1.7 1.7 0 0 1 .518 1.247v4.706c0 .687.043.995.101 1.331h-1.389c-.126-.154-.126-.519-.126-.616h-.098c-.07.126-.197.308-.393.462a1.235 1.235 0 0 1-.742.267.899.899 0 0 1-.701-.351c-.238-.266-.434-.742-.434-1.541 0-.854.252-1.471.588-1.891s.757-.687 1.105-.868c.352-.183.615-.309.672-.463l.003-.839zm0 2.142c-.687.294-.979.98-.979 1.709 0 .099.014.267.07.421.056.168.152.294.32.294.322 0 .588-.196.588-.463v-1.961h.001zM386.34 82.073v1.891h.967v1.274h-.967v3.811c0 .238 0 .546.058.798.056.253.168.463.392.463.113 0 .253-.015.352-.028.057-.014.111-.014.168-.028v1.387c-.068.015-.141.042-.211.057a2.95 2.95 0 0 1-.546.042c-.827 0-1.219-.421-1.415-.953-.193-.532-.21-1.177-.21-1.624V85.24h-.714v-1.274h.714v-1.891h1.414l-.002-.002zM388.061 81.33h1.414v1.415h-1.414V81.33zm0 10.295v-7.662h1.414v7.662h-1.414z"/></g></a><a id="pin-TX" xlink:href="/locations/texas/"><path fill="#FEC42A" d="M253.32 188.839c-14.587 0-26.407-11.817-26.407-26.407 0-14.586 11.82-26.404 26.407-26.404 14.588 0 26.404 11.818 26.404 26.404.003 14.589-11.816 26.407-26.404 26.407z"/><path fill="#FFF" stroke="#FEC42A" stroke-miterlimit="10" d="M253.32 124.904c-19.479 0-37.118 15.786-37.118 35.271 0 19.479 16.094 42.735 37.118 76.086 21.022-33.351 37.119-56.604 37.119-76.086 0-19.483-17.632-35.271-37.119-35.271zm0 61.512c-13.476 0-24.395-10.918-24.395-24.393 0-13.474 10.917-24.397 24.395-24.397 13.472 0 24.395 10.92 24.395 24.397 0 13.475-10.918 24.393-24.395 24.393z"/><g fill="#00456A"><path d="M245.255 147.204v-2.664h7.489v2.664h-2.448v14.978h-2.592v-14.978h-2.449zM255.527 162.182h-2.545l2.855-9.265-2.811-8.377h2.547l1.416 4.465.07.216h.098l.07-.216 1.416-4.465h2.545l-2.81 8.377 2.856 9.265h-2.545l-1.487-5.257-.048-.216h-.096l-.051.216-1.48 5.257zM239.91 166.441h-2.087v2.703h1.401v1.555h-1.401v4.482h-1.513v-10.298h3.6v1.558zM242.232 165.629v1.891h.967v1.274h-.967v3.812c0 .237 0 .545.056.797.056.255.168.465.392.465.112 0 .252-.016.351-.028.056-.014.112-.014.168-.026v1.387c-.07.015-.14.042-.21.057-.14.027-.322.042-.546.042-.827 0-1.219-.421-1.415-.952-.196-.533-.21-1.178-.21-1.625V168.8h-.714v-1.274h.714v-1.891h1.414v-.006zM243.758 173.627h1.471v1.555h-1.471v-1.555zM250.479 175.182h-1.177l-1.387-10.296h1.401l.602 5.354.027.336h.113l.041-.336.645-5.354h1.094l.645 5.354.041.336h.113l.027-.336.602-5.354h1.401l-1.388 10.296h-1.176l-.701-4.875-.084-.602h-.055l-.087.602-.697 4.875zM258.893 173.318c-.041.742-.266 1.261-.756 1.666-.252.211-.602.31-1.062.31-.91 0-1.359-.505-1.583-1.009a2.77 2.77 0 0 1-.226-1.01v-3.853c.041-.741.268-1.289.756-1.709.238-.21.588-.31 1.053-.31.908 0 1.371.506 1.597.994.126.295.21.617.226.98v3.938h-.004v.003zm-1.331-3.893c.014-.294-.043-.505-.184-.673a.438.438 0 0 0-.311-.111c-.266 0-.379.184-.434.394a.852.852 0 0 0-.043.393v3.853c-.014.295.057.506.184.658a.402.402 0 0 0 .295.111c.266 0 .393-.168.447-.378.041-.11.057-.237.041-.394v-3.853h.005zM262.688 168.977a1.307 1.307 0 0 0-.393-.057c-.225 0-.49.028-.715.238-.266.225-.309.463-.309.699v5.324h-1.414v-7.662h1.414v.854c.016-.098.111-.336.336-.561.225-.211.562-.406 1.08-.406v1.571h.001zM265.01 165.629v1.891h.967v1.274h-.967v3.812c0 .237 0 .545.057.797.059.255.168.465.395.465.109 0 .252-.016.352-.028.057-.014.11-.014.168-.026v1.387c-.07.015-.142.042-.211.057-.141.027-.32.042-.545.042-.826 0-1.221-.421-1.416-.952-.195-.533-.209-1.178-.209-1.625V168.8h-.717v-1.274h.717v-1.891h1.412v-.004h-.003zM268.146 175.182h-1.416v-10.296h1.416v3.278c.025-.016.084-.07.168-.154.152-.154.361-.363.615-.504a.71.71 0 0 1 .363-.099c.378 0 .646.225.812.505.168.294.252.672.252.994v6.275h-1.414v-6.065c0-.294-.168-.336-.336-.336-.154 0-.238.084-.338.182-.041.058-.084.112-.125.183v6.037h.003z"/></g></a><a id="pin-SE" xlink:href="/locations/southeast/"><path fill="#03456A" d="M414.438 160.366c-13.524-5.464-20.054-20.85-14.591-34.373 5.464-13.526 20.85-20.056 34.374-14.591 13.526 5.466 20.057 20.85 14.593 34.376-5.465 13.522-20.85 20.052-34.376 14.588z"/><path fill="#FFF" stroke="#02466B" stroke-miterlimit="10" d="M438.39 101.091c-18.058-7.296-40.327.73-47.625 18.799-7.296 18.059-1.089 45.649 5.911 84.445 31.988-23.045 55.618-38.578 62.914-56.637 7.3-18.066-3.137-39.308-21.2-46.607zm-23.042 57.03c-12.492-5.046-18.529-19.259-13.48-31.753 5.047-12.495 19.263-18.527 31.755-13.479 12.493 5.047 18.53 19.261 13.481 31.756-5.048 12.495-19.264 18.524-31.756 13.476z"/><g fill="#FFF"><path d="M422.438 121.389c.001-.576-.023-1.225-.19-1.729-.168-.479-.434-.815-.84-.816-.674.024-.888.72-.888 1.752-.002.6.263 1.224.645 1.896.386.672.891 1.369 1.394 2.112.602.888 1.201 1.801 1.656 2.688.458.889.77 1.801.77 2.76-.001 1.176-.192 2.281-.745 3.095-.552.817-1.438 1.345-2.854 1.345-1.655 0-2.593-.624-3.119-1.583-.529-.96-.648-2.231-.647-3.552l2.543-.241c-.001.745.023 1.489.217 2.04.17.577.455.96 1.01.96.768 0 1.056-.815 1.056-1.943 0-.576-.289-1.249-.671-1.945-.219-.335-.434-.696-.673-1.056a77.639 77.639 0 0 1-1.632-2.424c-.577-.888-1.011-1.8-1.272-2.736a4.752 4.752 0 0 1-.217-1.417c0-.959.217-1.991.769-2.784.555-.769 1.394-1.321 2.617-1.345 1.562-.023 2.471.625 2.978 1.562.505.96.646 2.136.646 3.12l-2.553.241zM426.373 116.661h5.931v2.665h-3.336l.001 4.633h2.398l-.001 2.832h-2.399v4.849h3.338l-.001 2.664h-5.93l-.001-17.643zM408.801 140.706l-.001-1.583c0-.28-.059-.476-.197-.644a.429.429 0 0 0-.306-.111c-.269 0-.396.196-.449.377a1.099 1.099 0 0 0-.059.378l.001 6.191c0 .294.069.491.209.645.07.07.168.112.296.112.267 0 .393-.167.446-.378a.94.94 0 0 0 .06-.378l-.001-1.864h-.604v-1.274h2.116l-.001 5.127h-.896l-.185-.489c-.277.351-.685.603-1.175.603-.489 0-.827-.126-1.079-.351a1.863 1.863 0 0 1-.531-.756 2.806 2.806 0 0 1-.168-1.122v-6.065c.013-.407.098-.785.252-1.107.126-.28.31-.56.588-.772.281-.209.672-.349 1.179-.349.505 0 .882.139 1.161.349.279.211.478.49.603.772.155.322.239.7.253 1.106v1.583h-1.512zM414.245 141.098a1.233 1.233 0 0 0-.392-.057c-.225 0-.491.028-.715.238-.269.225-.31.462-.31.7v5.323h-1.414v-7.662h1.414l.001.854c.016-.098.111-.336.335-.561.226-.209.562-.406 1.079-.407l.002 1.572zM418.348 144.558v.882c-.041.742-.27 1.261-.771 1.667-.252.208-.602.308-1.062.309-.911 0-1.375-.506-1.599-1.009a2.785 2.785 0 0 1-.225-1.009v-3.853c.042-.743.28-1.289.784-1.708.238-.209.588-.308 1.05-.308.912 0 1.373.505 1.598.995.127.293.211.616.226.98l.001 2.227h-2.34v1.667c.015.294.099.504.225.659.069.07.168.112.293.112.268 0 .395-.168.45-.378.041-.113.054-.238.056-.393l-.001-.839 1.315-.001zm-2.339-1.933h1.021v-1.078c.001-.294-.055-.505-.195-.673a.444.444 0 0 0-.31-.113c-.266 0-.378.183-.448.393a1.439 1.439 0 0 0-.067.392l-.001 1.079zM422.856 144.558v.882c-.042.742-.267 1.26-.771 1.667-.253.21-.602.309-1.064.309-.909 0-1.371-.505-1.597-1.009a2.893 2.893 0 0 1-.225-1.009v-3.852c.041-.744.279-1.289.785-1.709.235-.209.588-.309 1.049-.309.911 0 1.373.505 1.6.995.126.294.21.617.224.98v2.227h-2.339l.001 1.667c.013.294.096.505.223.658.071.07.17.112.294.112.27 0 .396-.168.45-.378a1.13 1.13 0 0 0 .055-.393v-.84l1.315.002zm-2.339-1.934h1.021l.001-1.078c0-.294-.057-.505-.195-.673a.433.433 0 0 0-.31-.112c-.266 0-.378.183-.447.392a1.344 1.344 0 0 0-.068.393l-.002 1.078zM425.206 147.302h-1.415l.001-7.662h1.415l-.001.645c.029-.015.084-.07.168-.154.154-.153.366-.364.617-.503a.714.714 0 0 1 .363-.098c.38 0 .645.225.812.505.169.293.253.672.256.994l-.001 6.275h-1.415v-6.066c.001-.293-.168-.335-.337-.335-.152 0-.236.084-.337.182-.042.056-.084.112-.126.183v6.034zM429.308 147.302l-1.245-7.662h1.372l.463 4.44.054.49h.113l.056-.491.464-4.44h1.372l-1.247 7.662-1.402.001zM432.626 137.006h1.415l-.001 1.415h-1.415l.001-1.415zm0 10.296v-7.662h1.414v7.662h-1.414zM435.159 147.302v-10.295h1.415v10.296l-1.415-.001zM437.692 147.302l.001-10.295h1.415v10.296l-1.416-.001zM443.743 144.557l.001.881c-.043.742-.267 1.26-.771 1.667-.253.21-.604.31-1.065.31-.909 0-1.371-.505-1.597-1.009a2.827 2.827 0 0 1-.224-1.009l-.001-3.852c.044-.743.278-1.289.784-1.708.238-.209.587-.309 1.052-.309.908 0 1.373.504 1.597.995.126.294.21.617.225.981v2.227h-2.339v1.667c.015.294.1.504.226.658a.391.391 0 0 0 .294.113c.266 0 .391-.168.445-.378.043-.112.059-.238.06-.393v-.84h1.313zm-2.338-1.933h1.022l-.001-1.079c0-.293-.058-.504-.195-.672a.447.447 0 0 0-.309-.113c-.269 0-.381.183-.448.393a1.432 1.432 0 0 0-.07.392l.001 1.079z"/></g></a></g></svg>