<svg id="Layer_1" xmlns="http://www.w3.org/2000/svg" xmlns:xlink="http://www.w3.org/1999/xlink" width="506" height="324" viewBox="0 0 506 324"><style>.locations-map #pins a{transform-origin:bottom center;transition:all .3s ease}.locations-map #pins a:active,.locations-map #pins a:focus,.locations-map #pins a:hover{transform:scale(1.1)}</style><g id="map"><a xlink:href="/locations/california/" id="states-CA"><path fill="#F05132" stroke="#FFF" stroke-width=".5" stroke-miterlimit="10" d="M21.882 97.775l.216-1.44.144-.144-.144-1.512.072-.72-.504-.864.432-.72.504-1.584.36.072 18.72 5.184 15.84 4.032-6.407 26.424-1.945 7.776 27.217 39.672 11.52 16.992-.144.719v.793l.863 1.584.289 1.008.072.721.288.791-.072.864 1.44 1.513.503.719-.647.72-2.52 1.368-.36.72-.72.432-.36 1.369-.072 1.438-.432.721-.288 1.009-1.296 1.584-.792.504-.36.719.288.865-.072.719-.36.791.144.721.792.288.72.432.144.72-.072 1.224-.792.504-.216.72-.72-.145-.288-.215-.36.073-.361.071-23.111-2.376-.36-.072-.217-1.08-.287-.791.36.791.288-.72-.792-.504-.216.576v-.792l.36-1.439.143-1.513-.143-1.513-.504-1.726-.72-1.513-2.448-3.168-.792-.647-.576-.721-.72-1.225-.792-.431-.72-.144-.36.575-.792-.504-.072-.718.215-.721-.071-.721-.576-1.512-.144-.143-2.953-.504-1.512-.937-1.656-1.367-.215-1.511-.721-.649-.576-.721-1.223-.935-1.513-.145-.72-.288-1.44-1.007-.791-.144-.72-.288-2.233-.361-.647-.718-.504-.793-.505-.144.072-.792.504-.792-.143-.792.432-.721v-1.511l.647-1.08.072-.72-.575-.792-.793-.288-.576-.72.145-.792.575-.504-.144-.792-1.368-1.44-.432-1.513-.936-.792-.288-.72-.072-.791-.792-1.44-.144-1.584-.648-.576-.36-1.513-1.224-1.512-.36-.791.216-1.512v-1.584l1.512-.72.288-.72.36.144v-1.584l-.432-1.512-1.44-.144-.792-.649-1.224-2.231-.288-.72v-.72l.288-.505.216-.719-.072-1.512-.432-.72.576-1.512.071-.72.361-.649h.792l.144.289.072.791-.432.721-.072.72.719.504.432.792.721.864.72.144-.576-.792v-1.441l-.216-1.439-.432-.288-.288-.792.216-.72-.504-.72.432-.792h.719l.649-.288.72.575 1.152-.071 2.232 1.08 1.512-.576 1.152 1.584v-.216l-.504-.72-.721-.72-.792.36h-.719l.719-.504.218-.504-.721.575-1.44-.071-.648-.721-.721-.071-.647.359-.72-.431-.576-.792-.72-.648-.792.287-.361.792.144.792-.575.504.36.793-.648.432-.72-.721-.433-.792-.792-.504-.215-.719-.792-.864-.792.504.288-.792.504-.792.144-.792.504 1.512-.216-1.512-.648-1.512-.073-.073-.143.289.072-.72-.144-.792-.36-.72-.649-.721-.504-.792-.792-2.231-.863-1.512-.648-1.512.648-.72.144-1.153-.144-3.023.648-1.44.504-.72v-.936l.144-.72-.144-.792.072-.72-.72-2.304-.504-.72v-.72l-1.584-2.232.216-.792v-1.224l.647-1.512.721-.792.432-.72.792-.36.72-.504-.216-.216.36-.792.504-.72.288-.792-.144-.72 1.8-3.24"/><path fill="#F05132" stroke="#FFF" stroke-width=".5" stroke-miterlimit="10" d="M22.602 90.791l-.72-1.512-.144-2.952.432-.936.143-.72.577-.792.215-.792-.359-1.512v-1.512l1.44-1.872 1.439-3.024.289.72.288-.792.719-.432h.073l.144.576.216-.504-.36-.072v-.072l-.073.072-.287-.072.287-.792.865-1.44.648-.648h.792l-.072-.36-.792.288.216-.72.432-.792 1.511-3.816.434-1.512.431-.72.504-.36.072-.288-.145-.792.649-1.512.288-1.44 1.152-2.16.217-.792.792-1.152.144-.792.36-.792.071-.792.36-.72.072-.576.721.216-.504-.72.36-.792.647-.72-.288-.504-.071-.792.359-.72.145-.72-.072-.144.648-.72.287-1.512.288-.792.721.648.071.216.216.072-.287-.432.071-.216.576.072.215.36.721.072.793-.216.72.576.43.648.074.072.792.36.72-.36.575.216.433.72.791.72.36 1.512-.431 3.816.288.432 1.152.504.792.504.36.072.792.504.72.072 1.512-.144.72-.144.792-.432h.72l.72.288 1.296.072.792.432.72.144.792.576.143.72 1.513-.072.72.288 2.304-.504.792.216.72.648.72.144.792-.072 1.439-.36 1.513-.144 2.376.072.72-.432.576.216 1.728.072.792.288.792.072.792-.432 7.344 1.728 9.432 1.944.143 1.008.361.792.288.432 1.44 1.368.288 1.512-.432.72-1.728 1.944-1.152 2.304-1.296 1.44-.072.648-.432.792-.648.72-1.224.792-.936 1.44-.72.72-.504 2.304.287.432.721.216.72.504.432.72-.576.792-.072 1.008-.648 1.512-.288.216-.36.576-4.32 20.736-10.44-2.232-14.689-3.456-15.84-4.032-18.72-5.184-.36-.072"/><path fill="#F05132" stroke="#FFF" stroke-width=".5" stroke-miterlimit="10" d="M42.042 44.207l-.216-.072-.721-.144-.43-.72-1.584.36-.577-.792-.72.072.936-3.816.145.792-.288 1.44.719-.072.433.648.071-.288-.504-.72.577-.792-.217-.72.504-.72.792.432h.217l-.289-.72-1.512-.504-.144.072-.216-.792.288-1.512.144.792 1.153-.576 1.223-.144-.721-.288-.719-.792-.72-.504-.216.72-.287-.216.287-.792.216-2.232-.288-1.872.361-3.024-.073-.792-.36-1.512-.576-.864-.143-.72v-.792l.216-.72-.073-.72.504-.792.216-.792.216-.144-.216-1.008.793.432 1.367 1.368.793.648.792.432.503.72 1.081.648 1.44.432.792.504 1.511.36.865.576.792-.072.72-.216.216.72.072.792.792-.288.504 1.152.072-.792.792-.576-.216.792.431 1.872-.287.936-.792.72-.36.72v-.72l.216-.72-1.368 1.656-.721.432-1.44 1.296-.504.72.649.648 1.512-.288-.792-.072-.72.144-.145-.792 1.513-1.44 1.511-.432.649-.792 1.728-1.584.36.72-.072.792-.576.432-.792-.144.144.792-.072.72-.72-.216v.792l.72-.144.359.72-1.223 2.736-.792-.504.648-.792-.72.144-.504.72-.144.792-.288.288-.072-.72.36-.72.144-.792-1.513 1.08-.575.72-.72.072.72.216-.073.648.433.576.144-.792.792-.36.432.792.72-.072.72-.576.432-.504 1.44-.576.72-.72-.144-1.584.647-.72-.503-.792.72-.504-.072-.72.864-1.008.792-.72-.072-.792-.432-.72.144-1.512-.072-.288.215-.648-.647-.936-.216-.72-.721.072v-.792l.505.144.792.432.216-.792-.36-.72.72.36.144-.72-.072-.72.144-.72-.72-.36-.577-.792v-.288l-.359-.72-.072-.72.576-.504 10.439 2.808 11.809 2.952 13.68 3.168 7.343 1.512-.071.432-5.616 26.208-.288 2.376-.36.72.503 1.512-.359 2.304.216.72-9.432-1.944-7.344-1.728-.792.432-.792-.072-.792-.288-1.728-.072-.576-.216-.72.432-2.376-.072-1.513.144-1.439.36-.792.072-.72-.144-.72-.648-.792-.216-2.304.504-.72-.288-1.513.072-.143-.72-.792-.576-.72-.144-.792-.432-1.296-.072-.72-.288h-.72l-.792.432-.72.144-1.512.144-.72-.072-.792-.504-.36-.072-.792-.504-1.152-.504-.288-.432.431-3.816-.36-1.512-.791-.72-.433-.72-.575-.216-.72.072-.721-.72-.215-.72-.216-.072-.361-.216M51.115 126.503l6.407-26.424 14.689 3.456 10.44 2.232 13.68 2.808 11.52 2.088-10.368 57.96-1.656 9.145-.721 1.08-.863.863-.792-.145-.288-.864-.648-.72h-.792l-.72-.503-.864.144-.864.575-.36.937.504 1.511-.432.721-.072.72.144 1.513-.288 1.005-.072.793.288 1.512-.144 1.729-.792.648-.144 1.656-11.52-16.992-27.217-39.672 1.945-7.776"/><path fill="#F05132" stroke="#FFF" stroke-width=".5" stroke-miterlimit="10" d="M82.146 217.007l.361-.071.36-.073.288.215.72.145.216-.72.792-.504.072-1.224-.144-.72-.72-.432-.792-.288-.144-.721.36-.791.072-.719-.288-.865.36-.719.792-.504 1.296-1.584.288-1.009.432-.721.072-1.438.36-1.369.72-.432.36-.72 2.52-1.368.647-.72-.503-.719-1.44-1.513.072-.864-.288-.791-.072-.721-.289-1.008-.863-1.584v-.793l.144-.719.144-1.656.792-.648.144-1.729-.288-1.512.072-.793.288-1.005-.144-1.513.072-.72.432-.721-.504-1.511.36-.937.864-.575.864-.144.72.503h.792l.648.72.288.864.792.145.863-.863.721-1.08 1.656-9.145 8.424 1.512 12.456 2.015 12.168 1.801 12.6 1.654-8.28 65.666-.072.36-4.896-.576-14.76-2.088-12.672-7.128-19.368-11.159-2.304-1.369.288-.791 1.079-1.513M82.651 105.767l4.32-20.736.36-.576.288-.216.648-1.512.072-1.008.576-.792-.432-.72-.72-.504-.721-.216-.287-.432.504-2.304.72-.72.936-1.44 1.224-.792.648-.72.432-.792.072-.648 1.296-1.44 1.152-2.304 1.728-1.944.432-.72-.288-1.512-1.44-1.368-.288-.432-.361-.792-.143-1.008-.216-.72.359-2.304-.503-1.512.36-.72.288-2.376 5.616-26.208.071-.432 5.833 1.224 1.728.36-.072.36-2.232 11.088 1.223 2.232v.36l.649 1.512.143.792-.359.792.432.72-.792.144 1.224 1.44.288.72 1.152.648.216.72.504.72.288.792.936 1.512.576.72-.144.36.144.792.72.648.36.792h.72l-.144.72.72.432 1.008-.072.72.288-.792 2.232-.792 1.512-.216.792-.576.72.216.72-.36.792.431.72-.287 1.512-.72.144-.432.72.216.792-.576.72-.216.792.864.288.72 1.008.72-.144 3.024-1.656.143.648.721.72v1.512l.288 2.016.575 1.512.577.72.215.792.073.72-.36 1.008.216.792.576.72.792-.216.792.72.431 1.368-.215.72.432.72-.144.72.432.792.72.72.288-.144.144-.792.719-.36 1.513.288.792.288h.72l.72-.648.432-.144 1.584.576h1.44l.792.432.72-.216 1.44.432v-.504l1.224-1.512.72.216.504 1.368.432.792.72.72-4.248 29.016-10.08-1.512-12.096-2.016-3.312-.648-11.52-2.088-13.68-2.808"/><path fill="#F05132" stroke="#FFF" stroke-width=".5" stroke-miterlimit="10" d="M97.483 168.623l10.368-57.96 3.312.648 12.096 2.016 10.08 1.512-1.728 11.664 17.424 2.376-5.904 46.726-12.6-1.654-12.168-1.801-12.456-2.015-8.424-1.512M106.267 44.567l.359-.792-.143-.792-.649-1.512v-.36l-1.223-2.232 2.232-11.088.072-.36 11.304 2.232 19.872 3.384 17.424 2.52 11.304 1.368 12.024 1.368 15.048 1.368 5.616.432v.288l-2.448 35.064-.648 10.152-.359.792-11.089-.864-16.2-1.584-14.617-1.728-15.047-2.088-.72.504-.792 5.184-.72-.72-.432-.792-.504-1.368-.72-.216-1.224 1.512v.504l-1.44-.432-.72.216-.792-.432h-1.44l-1.584-.576-.432.144-.72.648h-.72l-.792-.288-1.513-.288-.719.36-.144.792-.288.144-.72-.72-.432-.792.144-.72-.432-.72.215-.72-.431-1.368-.792-.72-.792.216-.576-.72-.216-.792.36-1.008-.073-.72-.215-.792-.577-.72-.575-1.512-.288-2.016v-1.512l-.721-.72-.143-.648-3.024 1.656-.72.144-.72-1.008-.864-.288.216-.792.576-.72-.216-.792.432-.72.72-.144.287-1.512-.431-.72.36-.792-.216-.72.576-.72.216-.792.792-1.512.792-2.232-.72-.288-1.008.072-.72-.432.144-.72h-.72l-.36-.792-.72-.648-.144-.792.144-.36-.576-.72-.936-1.512-.288-.792-.504-.72-.216-.72-1.152-.648-.288-.72-1.224-1.44.792-.144-.432-.72"/><path fill="#F05132" stroke="#FFF" stroke-width=".5" stroke-miterlimit="10" d="M133.339 114.839l4.248-29.016.792-5.184.72-.504 15.047 2.088 14.617 1.728 16.2 1.584 11.089.864-1.657 23.328-1.584 23.471-13.68-1.079-7.56-.721-14.184-1.511-8.352-1.008-17.424-2.376 1.728-11.664"/></a><a xlink:href="/locations/texas/" id="states-TX"><path fill="#FEC42A" stroke="#FFF" stroke-width=".5" stroke-miterlimit="10" d="M134.779 241.631l.072-.36 8.28-65.666 15.264 1.801 13.608 1.369 16.416 1.368 10.368.648-.36 5.902-.432.146-.072.792-1.728 28.224-.936 10.656-.792 12.169-.648.718h-.361l-8.639-.576-8.569-.718-9.647-.793-7.488-.791v.359l.432 1.439.432.577v.289h-.072l-15.912-1.729-.433.936-.431 3.888-.72.287-7.632-.935"/><path fill="#FEC42A" stroke="#FFF" stroke-width=".5" stroke-miterlimit="10" d="M143.131 175.605l5.904-46.726 8.352 1.008 14.184 1.511 7.56.721 13.68 1.079 7.993.577 8.567.432.792.432-.576 11.376-1.727 35.352-9.073-.576-10.368-.648-16.416-1.368-13.608-1.369-15.264-1.801M159.979 239.184v-.289l-.432-.577-.432-1.439v-.359l7.488.791 9.647.793 8.569.718 8.639.576h.361l.648-.718.792-12.169.936-10.656 1.728-28.224.072-.792.432-.146 12.745.722 9.576.433 3.888.071.792.071.864.433-.648 20.88-.072 1.297.72.071.791.576 1.297 1.441.648.359.792-.359.792.287.72-.073.36-.793.216.434.72.359.504.721v.72l.216.792h.792l.36.144.72-.217.792.504 1.511.504.721-.143h.792l.36.505.576.504.792-.217.72-.576 1.512.144.792-.072-.072.792.431.72.792.144.144.432.073 1.008.719.144.721-.288 1.152-1.151.792.287.288.718h.72l.288.722.72.144 1.224-.576.72.072-.288.721.288.791.216.144.504-.072.288-1.44.792-.506.072-.501.216-.145.721.287.647.721.72.288.72-.576.72.072.504.792.72.432.792.289.72.647.36-.722h.792l.864-.934.792-.071.72-.579.72.506h.793l.647-.506 1.439-.574.792.72.504.144h.793l.504-.29.432-.718h.721l1.727 1.08 1.441 1.152.718.216.791.504 2.09.433.287.214.073.289.72.577.792-.504 2.375.429.217 6.338.358 11.879 1.297 1.152.504.721.576 1.512-.143 1.152.575.72.361.792.287.145.361.718v.792l1.223 1.513.29.071-.073.72.215.792-.359.577.288.72-.288.72.144.793-.431.719-.145.792-.576.72-.359.792.214 1.439-.504.791.361.937.36 1.801-.217.864-.718.792-.073.072-.648.575-.863 1.513 1.079 1.583-2.234.217-2.375 1.079-2.16 1.153-.791.287-.721.432-.792.791h-.215l.431-.791 1.657-1.152.793-.144.142-.216h-1.439l-1.584.433.576-1.515v-1.222l-.721-.143-.719.574-.432.791-1.079-.645-.362.288.362.791-.075.721.721.575v1.081l.792.287-.359.938-.72.359-.504.719-1.224.865-.145 1.295-1.439 1.368-.72.576-1.08.504-1.441 1.008-1.439.143-1.512.504.145.721.718-.505.793-.143-.865.576-1.512.576-2.231 1.225.072-.217 1.511-.864.217-.72-1.512.647.432-.503-.72.073-.288-.721-.792.504-.72-.36-.431-.793-.145.073.646 1.439-.718.288-1.153-.934-.143-.505-.792.072.792 1.512.72.505-.432.718.792-.214.72.431-.144.287-2.231 1.225-.722-.288-1.007-1.441.145.289-.362.791.362.721v.792l-.866 1.008-.718.358.287-.718-.072-.72-.215.72-.722.718-.215-.574-.721.36-.792-.072.217.361-.432.718.72.649.36-.72.719-.504v.648l-.431.793-1.44 2.014-.72-.719-1.584.144-.792.216.432.288.72-.217v.576l.576.721.36.216.216.72-1.512 3.744-1.08.36.72-.576-.72-.216-.504.216-.721.072-.575-.722-.72-.574.359.792.433.432-.144.792 1.512.432 1.44-.36-.216.72v.792l-.36.721-.072.791h-.72l-.072.72.792.936-.72-.288v.719l.72.721.576 2.592-.072.792 1.224 2.52.216 1.512.503.72h-.792l.577 1.009.576-.793-.216.793.864-.721.144.864-.361.072-1.871.503v.721l-.72.07-.792-.574h-.144l-1.44-1.44-.721-.144-.719-.36-1.728.072-3.024-.288-.648-.288-1.44-1.368-.792-.072-.72-.361-.792.145-.432-.288-.504-.72-.721-.504-.431.071-.72-.359-1.512-.145-.432-.214.144-.721-.792-.72-.216-1.584-.576-1.584-.576-.792-.792-1.44-.577-.72-.071-.721.144-.718v-.793l-.792-.577.36-.793.072-.791-.288-.718.072-.721-.216-.359-.72-.577-1.224-.361-1.441-2.015-.143-.72-.576-.792-.648-.504-.217-.72-.647-1.08-.72-.288-.792-.648-.72-1.512-.36-1.513.216-.216-.648-.791-.36-.72-.504-.649v-.287l-.288-.721-.864-1.584-.432-1.942-.576-.72-.864-1.511-2.16-1.659-.072-.647-.72-.359-.792-.649-.289-.722-.72.147-.143-.576-.577-.649-.288-.718-.721-.579-.719-.287-.792.505-2.016-.576h-.792l-.72-.146-.793.146-.719-.216-1.296-.721h-.72l-.432.721-.719.216-.72-.072-.793.359-.72.071-.361.361-.647.936-1.224 3.024-.432.289-.144.791-.288.72-.72.29-.432.719-.792.503-.217.649h-1.223l-.72-.145-.072-.288-.72-.072-.72-.575-.72-.791-2.016-.938-.36-.791-1.512-.361-.72-.287-1.728-1.584-.504-.72-.72-.504-.72-.289-1.008-1.008-1.584-3.743-.072-1.44.216-.793v-.719l-.432-.72-.648-1.514-.36-.287-.216-1.511-.288-.72-.576-.361-.144-.719-.72-.361-1.512-1.367-.72-.289-.792-.576-1.296-1.512-.36-.792-1.44-1.439-1.44-1.945-.72-.719-1.44-.792-.72-.576-.649-1.441-.143-.72-.432-.718-.72-.576-.36-.074-.073-.071-.647-.359"/><path fill="#FEC42A" stroke="#FFF" stroke-width=".5" stroke-miterlimit="10" d="M198.427 186.693l.36-5.902 9.073.576 14.76.649 20.952.504h21.095l11.521-.217.143 5.832 1.657 9.864.36 3.24.144 20.449-2.09-.433-.791-.504-.718-.216-1.441-1.152-1.727-1.08h-.721l-.432.718-.504.29h-.793l-.504-.144-.792-.72-1.439.574-.647.506h-.793l-.72-.506-.72.579-.792.071-.864.934h-.792l-.36.722-.72-.647-.792-.289-.72-.432-.504-.792-.72-.072-.72.576-.72-.288-.647-.721-.721-.287-.216.145-.072.501-.792.506-.288 1.44-.504.072-.216-.144-.288-.791.288-.721-.72-.072-1.224.576-.72-.144-.288-.722h-.72l-.288-.718-.792-.287-1.152 1.151-.721.288-.719-.144-.073-1.008-.144-.432-.792-.144-.431-.72.072-.792-.792.072-1.512-.144-.72.576-.792.217-.576-.504-.36-.505h-.792l-.721.143-1.511-.504-.792-.504-.72.217-.36-.144h-.792l-.216-.792v-.72l-.504-.721-.72-.359-.216-.434-.36.793-.72.073-.792-.287-.792.359-.648-.359-1.297-1.441-.791-.576-.72-.071.072-1.297.648-20.88-.864-.433-.792-.071-3.888-.071-9.576-.433-12.745-.722"/><path fill="#FEC42A" stroke="#FFF" stroke-width=".5" stroke-miterlimit="10" d="M207.86 181.367l1.727-35.352 11.305.576 21.888.576 11.449.072 14.903-.144 2.089 1.584.718-.504.577.216.504.792.144.792-.072.216-.792-.072-.288.72-.866 1.223.29.721.72.936.864.576v.792l1.152 1.44.646.216.793.575.577 24.985-11.521.217h-21.095l-20.952-.504-14.76-.649M276.331 188.135l9.288-.216 14.761-.648 16.848-1.08.72.432.575.72.216.719v.793l-.575.719-.793.433-.575.792-.36.721.36.791 5.399-.577.289.433.144.72-.792.288.432.792-.72.576-.721.359-.431.433v.144l.576.719-.504.433-.361.504-.503.288.431.72-.287.648-.288-.504-.721.287-.143.793.719-.217-.143.937.432 1.944-.144.287-.721.217-.359.72-.72.433-.072.214.287.217.145.791-.72.649-.792.36-.361-.504.217 1.655-.577.073-.215-.791v1.08l.719.431-.719.36-.217-.72-.072 1.152.504.361-.432.935.144.576-.575.791-.432.217h-.721l.144.72-.72.72-.143.431-.792-.215.504.577-.288.214v.72l.36.721-1.872.792.504.431-.145.793.145.648-.145.433h-.792v.575l.792.216-.719.432-.216-.288-.504.288.576.792-.721.504.505.72-.432.792.719-.649.433.504-.72.504.72.217.071-.072-.216.647.288.864.216.145.217 1.225-.072.142h-.72l.144.649-.073 1.007-15.84.866-12.023.431-.217-6.338-2.375-.429-.792.504-.72-.577-.073-.289-.287-.214-.144-20.449-.36-3.24-1.657-9.864"/><path fill="#FEC42A" stroke="#FFF" stroke-width=".5" stroke-miterlimit="10" d="M282.956 229.031l12.023-.431 15.84-.866-.288.361-.143.719.719-.503.577.144.072.72-.649.648.073.791.864.433-.864.935.216.504 1.295-.215-.576.719.504.721-.719-.217-.073.145.361.72.719.36.216.576.721.216.144.144-.073.216h-.575l-.576.72-.792.288-.432.721.72.143.792-.143-.576.863-.073.288-.719.071.719.287.073.146-1.728 1.872-.648.288-.288.72.503.359-.719.72-.144.722-.792.503.72.072-.145.288-.719.576.359 1.512-.863.072.648.721-.217.575-1.079.216.504.791-.144.793.504.718-.72.793 9.792-.577 9.36-.719.071.145-.143.791-.504 1.513-.288 1.297.288.791.432.718 1.08.938.216.792.432.72-.072.36.432.72.503.36.361.216-.864.358-.073-.216-.216.145-.792-.07-.719-.65-.288.217-.504-.288h-.721l-.719-.648-.793-.504-1.008-.145-.719.216-1.008 1.585-.648.721.072.718.935.433h1.153l2.16-.216.72-.288.648-.72.72.431.504-.721.072.721.792-.504.143.073-.359.791-1.585.937.072.216.577.504.719-.145.361.721h.719l.288-.721.073-.791 1.151-.792.217.72.071.863.649.359v.722l-.216.792-.216-.216-.721-.144-.792.719.361.721.504.574-.72-.287-.792.073.216.503-.72.29.288.791.863.214.792.362.361.793.935-.075.792.433 1.441.217.647.432.361.719.719.217.072.216-.719.216.072.432-.36.79-.145.721-1.008-1.223-.576.791-.287.721-.721.719.576-1.513.504-.718-.359-.793-.072.936-.72-.143-.505-.793-.216-.72-.719.216-.865-.143-.504-.793-.719.216h-.792l.504-.791-.36-.287-.721-.364-.719-.141-2.664-1.081-.073.073.145.72 1.512.863.215 1.441-.719.215.504.721-.36.721-.72.574-.649.289-.359-.72.071-1.152-.792-.216-.72.287-.288-.792-.359.144-.721.289-.791.072-.217.791v1.008l-.575.359-.792-.429h-.217l-.791.359-1.44-.936-.792.287-.576-.361.216-.719-.361-.791-.792-.504-.504-.72.073-.792.143-.073-.143-.72v.577l-.216.071-.433.72-1.439-.503h-.792l-.288-1.08-.72-.36-.217-.791-1.511.143-.72.216-.072-.434.144-.791-1.513.504-.792.362-.288.286-.792.073.721.576.504 1.151h-.721l-1.079.578-.721.07-3.744-.575-1.295-.433-.793-.431-1.511-.577-1.512-.359-.792-.073-.72-.286.216-.362.72-.359v-.72l-.288-.722-.648-.718-.144 1.872-.72.576.72.503-.29.434-3.527.358-.719.504-.793-.575.145-.791.721-.362.287-.791-.287-.792h-.073l.073-.072.718-.792.217-.864-.36-1.801-.361-.937.504-.791-.214-1.439.359-.792.576-.72.145-.792.431-.719-.144-.793.288-.72-.288-.72.359-.577-.215-.792.073-.72-.29-.071-1.223-1.513v-.792l-.361-.718-.287-.145-.361-.792-.575-.72.143-1.152-.576-1.512-.504-.721-1.297-1.152-.358-11.879"/><path fill="#FEC42A" stroke="#FFF" stroke-width=".5" stroke-miterlimit="10" d="M310.819 227.734l.073-1.007-.144-.649h.72l.072-.142-.217-1.225-.216-.145-.288-.864.216-.647-.071.072-.72-.217.72-.504-.433-.504-.719.649.432-.792-.505-.72.721-.504-.576-.792.504-.288.216.288.719-.432-.792-.216v-.575h.792l.145-.433-.145-.648.145-.793-.504-.431 1.872-.792-.36-.721v-.72l.288-.214-.504-.577.792.215.143-.431.72-.72-.144-.72h.721l.432-.217.575-.791-.144-.576.432-.935-.504-.361.072-1.152.217.72.719-.36-.719-.431v-1.08l.215.791.577-.073-.217-1.655.361.504.792-.36.72-.649-.145-.791-.287-.217 13.031-1.007 6.912-.648.145.071.359.505.721.432-.649 35.35 2.304 17.354.073.359-.432.791-1.512-.574-.217.287-.719.287-.72-.214-.792-.577-1.225.145 1.081.072-.36.216-1.512.286-1.514.651-.718.071.144-.145-.648.145.144.071-.216.361-.792.648-.288.72-.72.072-.361-.216-.503-.36-.432-.72.072-.36-.432-.72-.216-.792-1.08-.938-.432-.718-.288-.791.288-1.297.504-1.513.143-.791-.071-.145-9.36.719-9.792.577.72-.793-.504-.718.144-.793-.504-.791 1.079-.216.217-.575-.648-.721.863-.072-.359-1.512.719-.576.145-.288-.72-.072.792-.503.144-.722.719-.72-.503-.359.288-.72.648-.288 1.728-1.872-.073-.146-.719-.287.719-.071.073-.288.576-.863-.792.143-.72-.143.432-.721.792-.288.576-.72h.575l.073-.216-.144-.144-.721-.216-.216-.576-.719-.36-.361-.72.073-.145.719.217-.504-.721.576-.719-1.295.215-.216-.504.864-.935-.864-.433-.073-.791.649-.648-.072-.72-.577-.144-.719.503.143-.719.288-.361"/></a><a xlink:href="/locations/missouri/" id="states-MO"><path fill="#8850A0" stroke="#FFF" stroke-width=".5" stroke-miterlimit="10" d="M192.811 133.198l1.584-23.471 8.784.648 14.689.792 14.184.504 9.432.144.936.936 3.168 1.728.792-.288.576-.72 1.512.216 3.312-.36 1.224 1.08.721.072.791.36.072.216.721-.072.718.72.793.288.36.792.72.648.72.216.72.144.072.864-.144.504.432.792.216.72-.072.72.648.792.07.719 1.01 1.296v.721l.504.792.145.72-.145.72v.792l.145.719-.075.289h.722v.72l.72.36-.145.864.432.719-.215.937.576.72-.144.791v.937l.431 1.584-.359 2.231.72.504.216.721v.792l.648.72.504 1.439.648.721.719.504.145.792.576.72-.072.72.864.648-14.903.144-11.449-.072-21.888-.576-11.305-.576.576-11.376-.792-.432-8.567-.432-7.993-.577"/><path fill="#8850A0" stroke="#FFF" stroke-width=".5" stroke-miterlimit="10" d="M194.395 109.727l1.657-23.328.359-.792.648-10.152 14.473.936 16.128.72 14.976.36 15.192.072-.432 1.512-.432.792-.72.432-.721.72-.214.576.575.648.864 1.512.72.144.72.432.503.72.145 21.024h-1.296l.216.864.432.72-.072.792-.36.144.217.792.791.72v.72l-.432.72.072.792-.504 1.44-.216.144-.36.72.216.792.72.648.36 1.584-.72-.216-.72-.648-.36-.792-.793-.288-.718-.72-.721.072-.072-.216-.791-.36-.721-.072-1.224-1.08-3.312.36-1.512-.216-.576.72-.792.288-3.168-1.728-.936-.936-9.432-.144-14.184-.504-14.689-.792-8.784-.648"/><path fill="#8850A0" stroke="#FFF" stroke-width=".5" stroke-miterlimit="10" d="M197.059 75.455l2.448-35.064v-.288l12.169.792 18.288.792 15.624.36h6.912l-.145.36v.072l.289.576.503 2.16.289.72-.432 1.44.216 1.368-.144.72.144.432-.073 1.44.145.792.864 2.448-.144.432 1.008 2.232.36 1.584v.792l-.144.72.216.72v1.512l.215 1.584-.071 1.08.431.792-.143.72.072 2.808.36.72-.072.792.288.72.864 1.224.144.72v.792l.216 1.512-.072.72.144.792-15.192-.072-14.976-.36-16.128-.72-14.473-.936"/><path fill="#8850A0" stroke="#FFF" stroke-width=".5" stroke-miterlimit="10" d="M252.5 42.047h10.008l5.903-.144.146-.72-.073-3.6.504.216 1.44.144.648.72.432 2.304.648 2.16-.072 1.08.646.72.722.288h1.512l.72.504 3.24.36.217.72.791.432 1.873-.432.429-.72.505-.072.217-.144.216-.072.721-.072h1.655l3.024 1.224-.217.792.791-.072.722.648.071.72.432.504.793.36.216-1.152 1.151-.144.792.216.288.72 2.16.936.144.576 1.368.72.938.072 1.509-.648.722-.72 1.512-1.008.792-.072-.072.504.431.216.216.72h.721l.792-.216 1.511.072.792-.216 1.513-.144.72.72.072.216.72.36.792-.36h1.8l-.72.504-.721.72-.719.432-2.448 1.296-.792.216-1.44.648-2.305 1.368-2.807 2.736-.792 1.224-1.944 2.232-.793.648-.431.576-.72.648-2.232 1.8-.36.576-.288.36-.072.072-.362.792-.646.072.288 5.976-.146.864-.43.648-1.441.72-1.511 1.08-.145.72-.432.792-.576.648v.792l.504.792.721.072.864 1.512-.792 1.944.145 1.44-.362.792.432 1.584-.07 1.296-.362.792 1.225.864.721.72.791.36 1.297.216.503.792.719.432 1.008.36 1.08.72 1.009 1.584 1.44 1.296.791.432.721.144.72.504.72.72.648.936.288 2.016.216.792-.072.288.289.792-8.785.504-12.096.504-14.544.36-8.712.072-.145-21.024-.503-.72-.72-.432-.72-.144-.864-1.512-.575-.648.214-.576.721-.72.72-.432.432-.792.432-1.512-.144-.792.072-.72-.216-1.512v-.792l-.144-.72-.864-1.224-.288-.72.072-.792-.36-.72-.072-2.808.143-.72-.431-.792.071-1.08-.215-1.584v-1.512l-.216-.72.144-.72v-.792l-.36-1.584-1.008-2.232.144-.432-.864-2.448-.145-.792.073-1.44-.144-.432.144-.72-.216-1.368.432-1.44-.289-.72-.503-2.16-.289-.576v-.072l.145-.36"/><path fill="#8850A0" stroke="#FFF" stroke-width=".5" stroke-miterlimit="10" d="M258.62 117.647l-.36-1.584-.72-.648-.216-.792.36-.72.216-.144.504-1.44-.072-.792.432-.72v-.72l-.791-.72-.217-.792.36-.144.072-.792-.432-.72-.216-.864h1.296l8.712-.072 14.544-.36 12.096-.504 8.785-.504-.073.576.215.288.287.792.577.216.361.72-.721 1.512.288 1.152.145 1.296.505.72.142.936.362.72.791.36 2.232.432.576 1.512-.072.144.576.648 1.512 1.152.143.936.721.576.791.432.721.72.288.792-.288 2.304-1.008 1.368-.144 1.584-.72.648-1.512.576-.72.576-2.808.576-.288.792-.216 1.512 1.368 1.44.143 1.584-1.079 1.439-.144.505v.792l-.217.719-1.8.937-.576.719.505.721-.072.792-.504.504-.36-.144-.577-.793-1.439-1.08-.432-.791-5.833.648-13.535.792-6.191.143-9.793-.071-.216-.721-.72-.504.359-2.231-.431-1.584v-.937l.144-.791-.576-.72.215-.937-.432-.719.145-.864-.72-.36v-.72h-.722l.075-.289-.145-.719v-.792l.145-.72-.145-.72-.504-.792v-.721l-1.01-1.296-.07-.719-.648-.792.072-.72-.216-.72-.432-.792.144-.504-.072-.864-.72-.144"/><path fill="#8850A0" stroke="#FFF" stroke-width=".5" stroke-miterlimit="10" d="M265.1 140.039l9.793.071 6.191-.143 13.535-.792 5.833-.648.432.791 1.439 1.08.577.793.36.144-.36.72-.144.792v1.44l.288 1.512.287.36.433 1.512.431.792.216.72 1.009.719.72.793.792.503.288.721 1.872 1.151.72.576.432.721.791 3.312.576.719.792-.215.433-.72.359-.072.793.288.719.072 1.44.936v.288l-.503.935.072 1.297-.576 1.152-.361 1.296-.431.72-.073.792.145.72 1.367 1.511 2.233 1.512h.432l.144.938.792-.362 1.296.793.431.791.721.504.792.289.143 1.657.865 1.439-.144.792-.504.792.936 1.512 1.152 1.511.72-.359 1.079.576.145.649-.145.791.217 1.08-.721.576.36.721-.36 1.08-.791-.289-.793.36-.215.937-.72.576.144-.576-.36-.721-.288.792.144.792.287.72-.791.288.432.793-1.009.718.721.721-.433.72-.504 1.223-5.399.577-.36-.791.36-.721.575-.792.793-.433.575-.719v-.793l-.216-.719-.575-.72-.72-.432-16.848 1.08-14.761.648-9.288.216-.143-5.832-.577-24.985-.793-.575-.646-.216-1.152-1.44v-.792l-.864-.576-.72-.936-.29-.721.866-1.223.288-.72.792.072.072-.216-.144-.792-.504-.792-.577-.216-.718.504-2.089-1.584-.864-.648.072-.72-.576-.72-.145-.792-.719-.504-.648-.721-.504-1.439-.648-.72v-.792"/><path fill="#8850A0" stroke="#FFF" stroke-width=".5" stroke-miterlimit="10" d="M303.26 141.335l.504-.504.072-.792-.505-.721.576-.719 1.8-.937.217-.719v-.792l.144-.505 1.079-1.439-.143-1.584-1.368-1.44.216-1.512.288-.792 2.808-.576.72-.576 1.512-.576.72-.648.144-1.584 1.008-1.368.288-2.304-.288-.792-.721-.72-.791-.432-.721-.576-.143-.936-1.512-1.152-.576-.648.072-.144 13.608-.792 10.294-.936h.362l.072.72-.072 1.512.144.72.792 1.44.72.648.216 1.152.432.792.215.72.792 1.152v.36l2.592 27.288-.72.792.361.72-.433.792.072.792.577.936.647.72-.143.792.503 1.512-.143.792-.217.143-.791 1.441-.072.792-.937 1.584-.575.719-.721.649-.143.792.143.143-.215 1.513-.145.071-.071 1.441-.361.72.505.792v.288l-.288.72-.504.72.144.792.575.792-.504.72-1.439.359-.792.505-.72.288-.217.72.145.792.576.721.216.718-.578.937-.718-.145-.649-.43-1.439-.433-.721-.36-.791-.144-.721.288-1.08 1.44v.793l.432.431-1.079-.576-.72.359-1.152-1.511-.936-1.512.504-.792.144-.792-.865-1.439-.143-1.657-.792-.289-.721-.504-.431-.791-1.296-.793-.792.362-.144-.938h-.432l-2.233-1.512-1.367-1.511-.145-.72.073-.792.431-.72.361-1.296.576-1.152-.072-1.297.503-.935v-.288l-1.44-.936-.719-.072-.793-.288-.359.072-.433.72-.792.215-.576-.719-.791-3.312-.432-.721-.72-.576-1.872-1.151-.288-.721-.792-.503-.72-.793-1.009-.719-.216-.72-.431-.792-.433-1.512-.287-.36-.288-1.512v-1.44l.144-.792.36-.72M307.364 68.255l.358.36.792.288.721.576.863 1.44 7.921 1.512 2.592 1.152.289-.072 1.511.216.721-.216.792.288 1.943.216.721.432.145 1.368.721.072 1.151.36.792.72-.217.216.36.72-.145 1.512-.288.72.288.648.72-.216.792-.072-.433 1.512.072.72.72.648h.072l.359.144-.071-.72.792-1.224 1.079-2.232.433-1.512.434-.792.646-.792.288-1.44.648-1.08-.288.72.288.792.432.72.72-.648.146-.432.72-.792.72-.288.721.144-.072.792-.72.576-.359.936.72.072.504-.792.721-.72.793-.576.071-.864.433-.72.576-.36.792-.144.72.072 1.439-.432h.792l.72-.432.647-1.152 1.439-.216.792.216.721-.072 1.513.504 1.584 1.296.721.288v-1.368l.216-.792.72-.144.721.432.72-.288 3.528.072.721-.216-.432-.72-.794-.36-.071-.72-.72-.36h-.217l-.721-.504-.071-.792-.217-.72-.431-.792-.648-.72-.576.144-.071.072-.433.648-.72.36-.504-.72-1.513.576-1.44-.216-.359-.648-.071-2.664-1.44.216-.72.288-1.439.864-.72.216-3.024.216-.721.288-1.296.288-.719.72-1.514.936-1.151 1.512-.647-.288-.72.072-.792-.144-.721-.648-1.729.648-.72.072-.793-.36-.432-.792-1.367-1.44-.434-.792-.72-.144-.721-.648-.792-.144h-1.513l-.72.288-.505.72-.359.216.647-1.512-.719.72-.722.432-.216.72-.288.288-.216-.72.145-1.512-1.225-1.512-.504-.288-.504-.72-1.584 1.8-.433.72-1.513.648-.792.792-.721.504-.72.288-.791.072-.722.216h-.792l-.792.432-1.367 1.512-2.231 1.008-.716.432"/><path fill="#8850A0" stroke="#FFF" stroke-width=".5" stroke-miterlimit="10" d="M293.54 66.887l.72.72.792.144.72-.144 2.953-1.08 1.439-.864.792-.216.792-.432.72-.576.937-.432.791.576-.144.792-.504.72v.72l-.217.72-.287.504h.792l.721-.432.791.144.722.36 1.296.144.358.36.792.288.721.576.863 1.44 7.92 1.512 2.593 1.152.289-.072 1.511.216.721-.216.792.288 1.943.216.721.432.145 1.368.721.072 1.151.36.792.72-.217.216.36.72-.145 1.512-.288.72.288.648.72-.216.792-.072-.433 1.512.072.72.72.648h.072l.359.144-.215.72v.504l-.722.504-.792.288-.07.72-.434.792-.576 1.512-.216.936.145.72.721.072.36-.72.719-.576.504-.792.145-.72.433-.72.721-.288.792-.576.648.72.358.792-.144.72-.793 2.16-.145 1.44-.216.792.575 1.512-.071.36-.721.576-.359.792-.358 1.512v.72l.358 1.584v.792l-.433.792-.145.792.072.72-.504 1.584-.145 1.44.504 1.656-.216.72.647.792v.72l.504.72.216.72v.792l-.145.72.217 1.584h-.36l-10.296.936-13.606.792-.576-1.512-2.232-.432-.791-.36-.36-.72-.144-.936-.505-.72-.146-1.296-.287-1.152.721-1.512-.359-.72-.576-.216-.288-.792-.216-.288.072-.576-.289-.792.072-.288-.216-.792-.288-2.016-.648-.936-.72-.72-.72-.504-.721-.144-.791-.432-1.44-1.296-1.009-1.584-1.08-.72-1.008-.36-.721-.432-.504-.792-1.295-.216-.793-.36-.72-.72-1.224-.864.359-.792.07-1.296-.432-1.584.359-.792-.144-1.44.792-1.944-.864-1.512-.721-.072-.505-.792v-.792l.576-.648.433-.792.146-.72 1.512-1.08 1.439-.72.432-.648.146-.864-.288-5.976.646-.072.36-.792.072-.072.298-.36"/></a><a xlink:href="/locations/southeast/" id="states-SE"><path fill="#03456A" stroke="#FFF" stroke-width=".5" stroke-miterlimit="10" d="M317.588 203.902l.072-.214.72-.433.359-.72.721-.217.144-.287-.432-1.944.143-.937-.719.217.143-.793.721-.287.288.504.287-.648-.431-.72.503-.288.361-.504.504-.433-.576-.719v-.144l.431-.433.721-.359.72-.576-.432-.792.792-.288-.144-.72-.289-.433.504-1.223.433-.72-.721-.721 1.009-.718-.432-.793.791-.288-.287-.72-.144-.792.648-.071-.144.576.72-.576 12.743-1.083.073-.791-.504-1.439h1.584l.863.287 3.889-.503 3.744-.288 4.68-.648 4.536-.216 4.607-.433 2.521-.431 4.103-.216 3.025-.288 2.952-.432 3.313-.217 1.006-.359 2.882-.433 1.512-.071 6.263-.936 3.745-.577 2.952-.719 1.08-.072-.36 1.008.072.792-.289 1.367-.719.289-.648.72-.504 1.584-.72.792-.649-.504-1.439.576-.72.574-.288.722-.721.792h-.504l-.719-.721-.72.433-.288.358-.144.722-.792-.218-.288 1.514-.432.72h-.72l-1.44 1.009-2.088 2.087-.648.288-1.513.072-1.512.863-.647.721-.289.792-.144 1.009-.649.718-1.51.433v3.024l-3.745.287-8.497 1.081-10.584 1.224-13.679 1.08.072.287-.145-.071-6.912.648-13.031 1.007"/><path fill="#03456A" stroke="#FFF" stroke-width=".5" stroke-miterlimit="10" d="M337.676 202.318l-.072-.287 13.679-1.08 10.584-1.224 3.529 11.087 3.528 12.745.217.36.215.792.504.792.576 1.44.935.864.146.288.358.864-.144 1.15.721.362.144.72-.721.577-.432.718.074 1.441-.289.792-.216 1.44.505 1.441.575.791.36 1.08-.217.72.073.719-.216 1.656.216.793.576.719.647 1.152v.361l-15.624 1.872-9.288.935-.719.577-.216.935 1.152 1.512.72.361.719.72-.36 1.079.288.721-.215 1.368-.72.647-.792-.143.143.216-.216.718-.792.289-2.951.504.504-.359.72.071.792-.288.143-.721-.504-.791-.215.145-.792-.434-.36-.718.287-.721-.143-.721-.432-.719-.36-.072-.433-.575.072.36-.287.648-.144.792-.144 2.664h-.72l-1.441-.288-.719.143-.073-.359-2.304-17.354.649-35.35-.721-.432-.359-.505"/><path fill="#03456A" stroke="#FFF" stroke-width=".5" stroke-miterlimit="10" d="M350.203 254.303l-.288-.721.36-1.079-.719-.72-.72-.361-1.152-1.512.216-.935.719-.577 9.288-.935 15.624-1.872 1.08 1.656.145.72.575.721 25.705-1.874.792.504.576 1.512.72.072.721-.504.071-1.584-.144-.719-.431-.72-.072-.72.216-.794h.36l.576-.574.792.287 1.943.433.721.071.359-.071.361-.071.864.287-.145 1.511-.431-.504.431.791.72.722.36.72.217 1.367.791 1.513.216.792 1.152 2.734 1.153 2.235 2.376 3.958 4.176 5.256 1.439 1.512.505.72.36.793-.576.719.216 1.512.432 1.369.36.718 1.584 2.234-.792-.793-1.513-2.375-.503-2.233.144-1.512-.144-.793-.648-.501-.721.287-.792-.721.145-.719-.72-.431h-.288l.504 1.51.935 2.234.433.718 2.231 3.6 2.88 4.104 1.225 2.591.936 1.441v.719l-.144.29.216-.145.719.359 1.224 1.513.145.937.36.214.863 2.809.145 3.455.144.793v2.233l.144 1.51.216.937-.073.72-.287-.792-.217.792.073.719-.576.649-.072.72-.36.791.143.721-.215.432.504 1.44-.504.72-.288.792.288.72-.937-.361.433.361-.792-.432-.721.504-.575.646-.721.362h-.792l-.72-.145-.935.576-1.512.504-.721-.792-.287-.719.576-.72.72.576.936.433.431-.721-.719-.576h-.792l-.648-.216-1.296-1.441-.361-.793-.936-1.294-.719-.577-.216-.718-1.441-.577-.431-.073-.792-.071-.792.216-.72-.433.72-.287h-.576l-1.225-1.514-.791-2.806-.72-.648-.72-.218-.072-.43.576-.72.072-.793.864-1.079-1.008.792-.144.72-.721.792-.719.072.072-.504-.361-.721-.143-.791.072-1.511-.505-.721.792-.504-.144-.144-1.368.719-.359-.505-.792-.07.72.504.431.721.216.718-.288-.143-.72.071-.719-.215-1.153-1.224-.504-.72-1.655-2.735.144-.289-.433-.72-1.439-.72-.504-.721.72.577v-.504l.719-.287.217-1.225 1.296-2.232-.144-.648-.648-.722-.721.722-.215-.722-1.584-.791v.145l.504.576v.72l.215.143h.721l-.36 1.513-.505.72-.071-.287-1.44-.938.792 1.08-.792-.719-.504-.792.359-1.224v-1.512l-.216-.648.793-3.815.072-.864-.216-.721-.145-2.231-.143-.36-.073-.791-.792-.361-.576-.722v-.718l-1.151-1.08-1.512.144-.72-.217-.432-.718-.72-.289-.648-.866-2.16-1.438-.073-.721-.359-.792-1.584-.719-1.08-1.512-1.512-.936-.721-.072-1.656-.864-.431-.073-.792.217-1.441.144-.719.576-.36.72.287.36-1.009-.288.938.432.288.719-.792-.216-.504.216-.792.216-2.233 1.872-.72.071-.143-.358-.792.647-.145.361-.721.071-1.512.432-.288.217-.792.071-.718-.288-.289-.72.073-.791.07.72.289.791.72-.216-.145-.721-.431-.791-.719-.719-.721-.217-.791-.432h.287l-.287-.287-.72-.359-.721-.721 1.513.574.791.506.431-.506-.79.072-.432-.791-.792.145-1.082-.72.361-.648.575-.216.146-.721-1.152.863-.721-.359-.719.145.358.575.721.432.145.721-1.513-.864-1.872-.65-3.023-.646h-.721l-.719-.217 1.51.072.144-.431.721-.144.792.361.648.142-.36-.647-1.295-.575-.793.214-.721.361-.215-.65-1.512 1.369-.361.073-1.943.217-2.304.575-.792.072.215-.146 1.152-.287.577-.718-.792-.721-.144-.721-.289.865-.432.719-.359-1.008-.432.432.072.073.143.288-.359.791-.648 1.009-.72.432-.792.288-.433-.072.36-.72.72-.72-.071-.36-.721-.288"/><path fill="#03456A" stroke="#FFF" stroke-width=".5" stroke-miterlimit="10" d="M361.867 199.727l8.497-1.081 3.745-.287 11.52-1.8-.144.576-1.44 2.088-.217.793.36.718.792.433.721.144 1.44 1.152 1.08-.145.792.649.36.721.72.863.288.72 1.943 2.375 1.513 1.009 1.44.72.719.792.504.864.505.432.792.142 1.08.866.648.36-.073.504.288.72.792.431.145.721.792.287v.145l.719.72.72.215 1.584.937.072.719.865 1.153.36.792v.72l.216.793.72.503 1.08.432.576.792.359.792.576.792-.072.72.145.72.504.72 1.511.216.361.216.359.143.577.073-.36.72-.721.504.073.72-.72.072-.72-.36v.792l.72.504-.577.864-.792.145.144.718.721-.288.071.361-.287.793-.792-.504.359.718-.719.649.36.359.72-.215-.504 1.44-.433-.072v.793h-.719l-.72-.217-.216.072.72.359h.719l.792.287-.216.722-.648 1.152-.72-.432-.288.721 1.008.071-.359.792-.72-.433.72.65-.432.718h.504l-.36.72-.144.72.504.721-.072.793-.361.071-.359.071-.721-.071-1.943-.433-.792-.287-.576.574h-.36l-.216.794.072.72.431.72.144.719-.071 1.584-.721.504-.72-.072-.576-1.512-.792-.504-25.705 1.874-.575-.721-.145-.72-1.08-1.656v-.361l-.647-1.152-.576-.719-.216-.793.216-1.656-.073-.719.217-.72-.36-1.08-.575-.791-.505-1.441.216-1.44.289-.792-.074-1.441.432-.718.721-.577-.144-.72-.721-.362.144-1.15-.358-.864-.146-.288-.935-.864-.576-1.44-.504-.792-.215-.792-.217-.36-3.528-12.745-3.529-11.087"/><path fill="#03456A" stroke="#FFF" stroke-width=".5" stroke-miterlimit="10" d="M374.109 198.359v-3.024l1.51-.433.649-.718.144-1.009.289-.792.647-.721 1.512-.863 1.513-.072.648-.288 2.088-2.087 1.44-1.009h.72l.432-.72.288-1.514.792.218.144-.722.288-.358.72-.433.719.721h.504l.721-.792.288-.722.72-.574 1.439-.576.649.504.72-.792.504-1.584.648-.72.719-.289.289-1.367-.072-.792.36-1.008 1.511.072 2.88-.29 7.416-1.078 20.305-3.744 10.296-2.09 9.071-2.013.145.718.576.721.792.145v.359l1.44 2.16.072.791-.577-1.008-1.511-1.151.504.72.72.72h-.936l-1.513-.936-.792.143.721.217.792.648v.647l-.721.289-.792-.289.577.721-1.081-.217h-.72l.793.505-1.657 1.368-.792-.289-.72.072-.719-1.439.072-.721-.145-.215.073-.144-.361-.432.288.576-.288.648.145.72.433.793.575.719.143.792.792-.144.721-.287.792-.505 1.512.36.144-.721 1.152-.431.792.072.144.72v.864l-.36.721.719.287-.503.721.288.359.719-.72-.215-1.44v-.792l1.08-.144.144-.504-.072-.431.792.718.504.721.143 1.512.216.647-.647.721-.72-.216v.72l-1.008 2.304-.648.72-1.657-.072-.719-.145-.433-.719-.071.792-.792-.216-.721-.648.433-.503-.721.071.072.72.288.72-.504-.144-.719.288-1.441-.071-1.584-.433-.072.143.217.29 3.312.863h.719l1.584.576-.288.792-.792.144-.216.576.721-.144v.72l-1.152 1.439-.504.362-.792-.073-.865-.648-.792-.288-.648-.432.577.72 1.224 1.15 1.511.146 1.512-.937.721.362-.217-.721.576-.145-.072-.071.217-.722.359.722-.215.72.719-.145.36-.793.289-.07.288.575-.288.792-.649.721-.647 1.439-.288.073-.792-.504-.289.792-.36-.792-.575.72-.072.36h-.72l-1.8.935-.792-.287-.721 1.44-.503.718-.216.146-.792-.288.504-.72-.72-.288.36.504-.432.72.432.719-1.585 1.37-1.008 1.509-.648 1.514-.216.792v2.231l-.504-1.798-.359-.721h-.144l.503 1.512-.143 1.511-.72.505h-1.296l-1.44.361-1.513.647-.431.071-.361-.287-11.951-8.496-10.441 1.656-.215-.216-.073-.72-.288-.792-1.223-1.152-.72.289-.721-.721-3.168.216-8.424.936-.719.216-.72.433-1.513.504-1.151 1.08-.792.071-2.376 1.224-11.52 1.8"/><path fill="#03456A" stroke="#FFF" stroke-width=".5" stroke-miterlimit="10" d="M385.629 196.559l2.376-1.224.792-.071 1.151-1.08 1.513-.504.72-.433.719-.216 8.424-.936 3.168-.216.721.721.72-.289 1.223 1.152.288.792.073.72.215.216 10.441-1.656 11.951 8.496.361.287v.433l-.72.433-1.656 1.726-1.584 2.953-.36.792-.072 2.449-.288-.721-.72-.288.504-1.512-.216.144-.433.793-.071.863.72.504.576.718-.648.722-.72-.218.576.289-.576.793-.288.719-.72.217-.721-.217-.504.721.289.792-.504.36-.433.72-.647.72-.72.144-.288-.721h-.648l.287 1.081.72.289-.359.791-.721.36.073.433-.865.214-.72.577-.719-.36.503.36-.719.718-.72.075-.721.359-.935-.216-1.44.648.576-.073.72.362h.791l.288.359-.504.72.721-.72-.36 1.225-.792.575-.721-.433-.504-1.367-.071 1.512-.72-.649-.36-.718-.576-.577.72 1.44.216.721.36.503.72.577-.504.718-.505.073v-.72l-.287.72-.361 1.511-.359-.143-.361-.216-1.511-.216-.504-.72-.145-.72.072-.72-.576-.792-.359-.792-.576-.792-1.08-.432-.72-.503-.216-.793v-.72l-.36-.792-.865-1.153-.072-.719-1.584-.937-.72-.215-.719-.72v-.145l-.792-.287-.145-.721-.792-.431-.288-.72.073-.504-.648-.36-1.08-.866-.792-.142-.505-.432-.504-.864-.719-.792-1.44-.72-1.513-1.009-1.943-2.375-.288-.72-.72-.863-.36-.721-.792-.649-1.08.145-1.44-1.152-.721-.144-.792-.433-.36-.718.217-.793 1.44-2.088.144-.576"/></a><a xlink:href="/locations/midwest/" id="states-MW"><path fill="#A9C038" stroke="#FFF" stroke-width=".5" stroke-miterlimit="10" d="M459.573 114.047l.287-.072.865-.648.719-.288 1.584-.936.792-.288.793-.576.719-.072 1.513-1.08.144-.576.792-.144 1.44-1.296.792-.504 1.008-1.224-.792.576-.72.288-.216-.216-.793.216-.719.432-.936 1.512-.504.216-.721.072.504-.72.792-.648v-.792l.721-1.296-2.233 2.664-1.511.648-2.233.504-.72.288-.359.72h-.721l-1.511.792-.648-.144-.721.576.073.72-.721-.216-.287.792-1.297.864-.287.936-.072.72.288.144 1.511-.288-.792.576 1.512-.72 2.665-1.512M324.572 185.688l.215-.937.793-.36.791.289.36-1.08-.36-.721.721-.576-.217-1.08.145-.791-.145-.649-.432-.431v-.793l1.08-1.44.721-.288.791.144.721.36 1.439.433.649.43.718.145.578-.937-.216-.718-.576-.721-.145-.792.217-.72.72-.288.792-.505 1.439-.359.504-.72-.575-.792-.144-.792.504-.72.288-.72v-.288l.791.144.433-.722-.288-.718 1.512.216.719-.432.145.792.719-.287-.215-.721 1.007-.072.721-.362 2.304.866.72.576.432-.72v-.288l.504-.72.72-.288.647-.576.577.792.719.144.792.503.145-.793.576-.718-.072-.792.576-.72.792-.504-.362-.721.721.361.649 1.151.72.289 1.512.144.72-.433.143-.791-.071-.793.504-1.512.792.073.72-.649.216-1.511.791-.432.577-.72.215-.792-.287-.864-.073-.792.721-.072.72-.288.864.576 1.44-1.152 1.583-.432.145-.72-.72-.792.288-.72-.504-.936.36-.361 1.007-.576.72.504 1.226-.359 1.799.72.432.864 1.153 1.511.791.145 1.512-.145.432.073 1.512 1.224.792-.072.504-.72.719-.073.937.145.718.648.721-.36h.721l.434-.72.791-.721.864-.431.576 1.296.72.72.72.072.719.648.576.72.073.504.288.36.072.792-.36 1.44 1.584 1.656.216.719.719.721 1.585 2.016 1.512 1.08 1.511.072-2.879 3.384-2.592 1.944-.504.791-.072.793-.864.649-.073.718-.575.721-.721.359-.72.577-.143.793-1.801.718-.72.577-.792.144-1.441 1.008-1.006.359-3.313.217-2.952.432-3.025.288-4.103.216-2.521.431-4.607.433-4.536.216-4.68.648-3.744.288-3.889.503-.863-.287h-1.584l.504 1.439-.073.791-12.743 1.083"/><path fill="#A9C038" stroke="#FFF" stroke-width=".5" stroke-miterlimit="10" d="M335.948 169.271l-.505-.792.361-.72.071-1.441.145-.071.215-1.513-.143-.143.143-.792.721-.649.575-.719.937-1.584.072-.792.791-1.441.217-.143.143-.792-.503-1.512.143-.792-.647-.72-.577-.936-.072-.792.433-.792-.361-.72.72-.792-2.592-27.288v-.36l1.009.72 1.008.215.792-.215 1.512-.793 1.512-1.079h.36l4.248-.432 12.168-1.512.863.648 1.37 10.871 2.231 19.584-.36.361.504.936-.288.72.72.792-.145.72-1.583.432-1.44 1.152-.864-.576-.72.288-.721.072.073.792.287.864-.215.792-.577.72-.791.432-.216 1.511-.72.649-.792-.073-.504 1.512.071.793-.143.791-.72.433-1.512-.144-.72-.289-.649-1.151-.721-.361.362.721-.792.504-.576.72.072.792-.576.718-.145.793-.792-.503-.719-.144-.577-.792-.647.576-.72.288-.504.72v.288l-.432.72-.72-.576-2.304-.866-.721.362-1.007.072.215.721-.719.287-.145-.792-.719.432-1.512-.216.288.718-.433.722-.791-.144"/><path fill="#A9C038" stroke="#FFF" stroke-width=".5" stroke-miterlimit="10" d="M342.068 121.823l.287-.216.721-.72.504-.792.359-.72.649-2.232.792-1.512.288-.792.432-2.736v-2.232l-.432-3.024-1.008-2.304.432-.72-.721.288-2.088-3.96-.143-.72.288-.72.504-.792-.577-2.232-.431-.72.072-.72.648-.792.864-2.232.072-.792-.144-.72.144-1.296-.433-1.44.72-.576.649-.72-.073-.72.937-1.368.72.216.576-.72.143-.72.504-.72.288-.72.72-.576-.216 2.088-.215.504.36.792-.288.72.143.72.504-.72.217-1.512.287-.072v1.512l-.216.72.649-.72.215-.792.144-.72v-.864l-.359-2.304.504-.72.719-.576.793-.432h1.008l-.072-.648-.721-.432-.359-.792v-.72l.719-.864.433-.792.72-.36.648-.576.791.432.721.216.72.576h.72l.648-.144.72.216.72.432.432.72.721.216h.791l.72.36 1.583.432.792.36h.721l.792.504.216.72.575.72.433.288v.72l-.72.144-.288.936.432.72.792.504.36.72.361 1.512-.073 1.512.288 2.376-.719.72-.721.432-.215.72-.073 1.512-.72 1.152-.792.144-.792.576-.145 1.512.073 1.152.936.864.792.072.721.288.575-.792.361-.72.719-.576.359-1.296-.143-.72.721-.288.792-.72.719-.288 1.153-.864.791.144.719.288.721.72.863 1.512.792 2.952.433.72.432 1.512.433 1.584.359.864.719 1.224h.074l.072.576-.218.288-.145 1.512.217.72-.142 1.584-.432.72-.504.216.143-.216-.216-.72-.36-.504-.792.432-.145.648-.504.72.073 1.584-.577.72-.863.648-.072.144-.216.36-.216.72-.072 2.232-1.296 2.232-.503 1.512-3.529.72-7.849 1.296-.863-.648-12.168 1.512-4.248.432h-.36"/><path fill="#A9C038" stroke="#FFF" stroke-width=".5" stroke-miterlimit="10" d="M359.707 120.527l7.849-1.296 3.529-.72.216.288 1.583.216.72.36 1.08.216.719.576.794.144.719-.72.646.72-1.15.288-.719.72.719.072.721-.648h1.512l.864.432.72.144.719-.576.792-.288.721-.504 1.584-.72.72.144 1.512-.216 1.44-1.296.792-1.152.647-.72.721-.576 1.512-1.08 4.392-2.592.072.432 2.591 15.12-.504.36h-.359l-.217.72.505.647.504 2.233-.288.792-.36 2.232.144.791-.072.937-.359.071.143.721-.143.72.071.792-.288 1.44-.936.863-.936 1.513-1.441 1.296-1.295-.504-.648.936v.719l-1.08.577-.288.72v.791l-.504.793.576.72-.433.72-.288.792-.792-1.152-.718-.288-.505.792-.288.72v.792l-.216.288-.216.792.287.431.145 1.441-.792.504v.792l-.576.72-1.08.503-.72.145-.073-.072-.576-.72-.719-.648-.72-.072-.72-.72-.576-1.296-.864.431-.791.721-.434.72h-.721l-.721.36-.718-.648-.937-.145-.719.073-.504.72-.792.072-1.512-1.224-.432-.073-1.512.145-.791-.145-1.153-1.511-.432-.864-1.799-.72-1.226.359-.72-.504-1.007.576-2.231-19.584-1.37-10.871M377.707 178.631l1.441-1.008.792-.144.72-.577 1.801-.718.143-.793.72-.577.721-.359.575-.721.073-.718.864-.649.072-.793.504-.791 2.592-1.944 2.879-3.384-.072.72.649.792.792.721 1.512.863 1.079.217 1.441-1.009.359-.72 1.225.504.72-.072 1.656-.791.72-.217.215-.649v-.719l1.153.36 1.439-1.225.793.145 1.44-1.008.144-.144-.217-.72.577-.72-.577-.793.288-1.367.792-1.513.72-1.007.36-1.512.073-.792.504-.721.431-1.512.289-.287.144-.793v-1.511l.792-.216.72.647.072.361 1.512.215.719-.287.361-.72.288-1.584.36-.72.144-1.08.288-.72.792.072.72-.216.648-1.512.647-.072.577-.72.503-1.441.504-.791-.072-1.512.289-.792-.144-.72.792-.36 4.104 2.232.504-.792.216-1.368h1.584l.72.504.36.72-.144.72.791.504 1.008-.072.793.359.576.433.648.144.648.36.36.792.072.432.216.791-.721.721.073.359-.217.289-.215.072-.432-.288-.288 2.232.143.72-.287.072.287.72.721.072.504-.217.863-.647h.792v.72l1.225 1.08.432.143.792-.071.216.144 1.44-.289.144.361.719.504v.432h.721v.287l.72.073 1.585.576v.792l-.721-.144.431.72.073.792-.432 1.08-.793-.288-.071-.216-.72-.072-1.512-1.152-.505-.073-.648-.791-.72-.289-.647-.792-.792-.647-.864-.36-.72.072.647.072 1.512.936.433.719.431.433.793.36.575.791 1.513.721.215.432.721.576.719-.072.792.648-.288.216.721.216.72-.072.359 1.367-.143.721-.72-.576-.72-.145-.288.217.649.72-.361.792-1.513-.648-1.44-1.296-.792-.144 1.584 1.224.648.72 1.513.576.792-.216.215.72.793.288.288.72-.217.791-.504.145-.36.431-.72-.791-.791-.289-.72-.647-.576-.792-.72.575-.72-.431-.72-.648-.072.792h-.36l-.792-.648-1.512.288-.721-.145-.216.361h2.304l1.44.576.649-.145.72.288.792-.288.288.721.504.792.072-.072.72.503.719.721-.214.72.791-.72.576.072.72.36-.289-.432.216-.864.721.143 2.088-.072.647 1.513 1.369 2.231-.288.073-.36-.791-.721-.579.072.793.217.721-.36.145-.433-.362.216.362-9.071 2.013-10.296 2.09-20.305 3.744-7.416 1.078-2.88.29-1.511-.072-1.08.072-2.952.719-3.745.577-6.263.936-1.512.071-2.882.433"/><path fill="#A9C038" stroke="#FFF" stroke-width=".5" stroke-miterlimit="10" d="M384.404 156.095l.073.072.72-.145 1.08-.503.576-.72v-.792l.792-.504-.145-1.441-.287-.431.216-.792.216-.288v-.792l.288-.72.505-.792.718.288.792 1.152.288-.792.433-.72-.576-.72.504-.793v-.791l.288-.72 1.08-.577v-.719l.648-.936 1.295.504 1.441-1.296.936-1.513.936-.863.288-1.44-.071-.792.143-.72-.143-.721.359-.071.072-.937-.144-.791.36-2.232.288-.792-.504-2.233-.505-.647.217-.72h.359l.504-.36 1.872 10.656 9.145-1.656 1.008 6.048.648-.792.72-.649.432-.719.72-.792.288-.72.648-.288.72.144 1.007-1.512.073-.72.215-.072.792.72.72.144 1.152-.144.144-.72.648-.792h.792l.361-.792.575-.288.792.288.721.504 1.511-.144.073.071-.216.793.72.144.072.792.647.648.145.432-.216 1.368-.504.792-4.104-2.232-.792.36.144.72-.289.792.072 1.512-.504.791-.503 1.441-.577.72-.647.072-.648 1.512-.72.216-.792-.072-.288.72-.144 1.08-.36.72-.288 1.584-.361.72-.719.287-1.512-.215-.072-.361-.72-.647-.792.216v1.511l-.144.793-.289.287-.431 1.512-.504.721-.073.792-.36 1.512-.72 1.007-.792 1.513-.288 1.367.577.793-.577.72.217.72-.144.144-1.44 1.008-.793-.145-1.439 1.225-1.153-.36v.719l-.215.649-.72.217-1.656.791-.72.072-1.225-.504-.359.72-1.441 1.009-1.079-.217-1.512-.863-.792-.721-.649-.792.072-.72-1.511-.072-1.512-1.08-1.585-2.016-.719-.721-.216-.719-1.584-1.656.36-1.44-.072-.792-.288-.36-.073-.504"/><path fill="#A9C038" stroke="#FFF" stroke-width=".5" stroke-miterlimit="10" d="M395.781 111.743l1.008-.576 1.512-1.224.72-.792.072.216 2.52-2.016.072.288.503 2.736 6.913-1.224 10.584-2.088 11.952-2.52 7.92-1.8.072.144.72.36.36.72.647-.144.792.648.792 1.584.144.72.648.792 1.369.576.719.072.865.36v.288l-.792.936-.289.72v.72l-.864 1.944-.719.72.288.576.288.144.359.72-.216.72-.575.72.216 1.224.647.792.792.288.145.72.72.504.432.144.72.72 1.727 1.296-.431.72-.864.791-.576.793-.216.072v.072l-.073.071-.576.649v.72l-.719.648-.72.216-.72.792-.288-.216-.576-.072-.721.144-.72.432-.431.719-.216.721-17.136 3.672-15.12 2.88-9.145 1.656-1.872-10.656-2.591-15.12-.072-.432"/><path fill="#A9C038" stroke="#FFF" stroke-width=".5" stroke-miterlimit="10" d="M401.613 107.351l.287-.216 1.657-1.656 1.224-1.512.936-.936.576-.72.359-.792 1.296-1.44v-.792l-.935-1.656.36-.504-.072-.288-1.584-.288.072-.576-.433-1.368v-.072l.792-.36.721-.504.791-.216.721-.432 1.584-.648 2.88-.576 3.024-.144 1.943.792 1.512-.864 1.513-.36 1.512-.072.576.216.504-.72.719-.432.649-.72.432-.792.936-.72.791-.864h.792l.505-.72-.072-.792-.288-.72-.073-.504-.719-1.512.719-.288.145-.72.431-.72-1.007.504-.073-1.08-.791.36.144.792-.144-.432-.72-.576.143-.72 1.368-1.44.793-.648.287-.576 1.153-1.512-.072-.936 2.376-3.96 2.664-2.88 1.511-.792h.72l5.257-1.152 5.688-1.584.144.36.216.576-.145.792.577.792.072 1.728.288.792.719.72.217.72-.072.792.287.792.072.72-.287.36v1.512l.504 1.512.432.72.431 1.512-.143 1.296.359.792.361-.864 1.152 1.008 1.655 7.56-.071.504.504.72-.145.792-.072 7.2.288.432 1.513 8.424.504.792v.792l-1.225 1.224v.288l.792.792-.792 1.584-.071.864-.792.288-.361.792h-.288l.361-1.584-.145-2.304-.359-1.152-.792-.504-.216-.72-.072.216.143.72.72.72.505 1.8-7.776-2.52v-.288l-.865-.36-.719-.072-1.369-.576-.648-.792-.144-.72-.792-1.584-.792-.648-.647.144-.36-.72-.72-.36-.072-.144-7.92 1.8-11.952 2.52-10.584 2.088-6.913 1.224-.503-2.736-.072-.288M409.461 136.295l15.12-2.88 17.136-3.672 2.448 8.496 1.224 5.112.431.792 5.328-1.224-.143.288-.36.287.719.649-.359 1.512-.36-.216-.36 1.512-.576.72.072.72-1.584.576-.72.72h-.649l-1.439.504v-.504l.504-.792.288-.72-.72.288-.288-.504-.721.432-.143-.72.647-.792-.504-.217v-1.439l-.647 1.512-.361-.36v-.72l-.288.72.217.792-.648-.288-.72-.576-.72-.36.215.719-.719-.791v-.793l.36-1.439-.792.431.215-.791 1.874.144.502-.721-.719.36-.936-.287-.289-.72-.432-.288-.719.143-.144.792-.36-.72.144-.791.72-.289.72.577-.361-.72.504-.649-.719-.071-.504-.721-.216.288-.649.433-.143.72v-1.512l.648-.144.792-.648-.144-.288v-.72l-.288-.072-.288.72-.504-.792.359-2.233.649-.719.72-.144.719-.36-1.008-.072 1.008-1.512-.215-.288-.721.576.145-.72-.432.216-.72.144-.072.432.504.792-.577.72-.719.216-.073-.72-.288.431v1.153l-.647-.792-.216.432.144.432-.073.936-.72-.145.72.649h-.72l-.216-.144-.792.216 1.801 1.08-.144.792.719.432-.288.072-.791-.144-.144.144.575.431-.071 1.369.288.72-.217.72.433.72.431 1.656 1.441 1.44-.433.72-.359-.504-.721-.216-.792-.504-.792-1.512-.216-.721v.433l.504 1.512.504.72 1.08.576.792.648.721.288.935 1.439-.215.649-.72-.576-.792-.073-.217.145-.647-.72-.72-.072-.792.288-.721-.72-.288-.72-.144.432v.72l-.791-.504-.577-.72-.431-.792-.72.288-.072.504-.576.792-.649-.72-.143-.792.215-.72.217-.144.432-.72.072-.72.575-.721-.143-.935.431-.649.073-.647-.865-.576-.935.504-.648-.144-.576-.433-.793-.359-1.008.072-.791-.504.144-.72-.36-.72-.72-.504h-1.584l-.145-.432-.647-.648-.072-.792-.72-.144.216-.793-.073-.071-1.511.144-.721-.504-.792-.288-.575.288-.361.792h-.792l-.648.792-.144.72-1.152.144-.72-.144-.792-.72-.215.072-.073.72-1.007 1.512-.72-.144-.648.288-.288.72-.72.792-.432.719-.72.649-.648.792-1.008-6.048"/><path fill="#A9C038" stroke="#FFF" stroke-width=".5" stroke-miterlimit="10" d="M441.717 129.743l.216-.721.431-.719.72-.432.721-.144.576.072.288.216-.36.36-.073.72-.288.792-.359.504.576.719-.072.721.432.72.648.72.72.576.503.719.073.793.431 1.152.793.648.287.72 1.441 1.152.792-.072.287.432-.287.719v.721l.36.071-.648.793.36-.216.792-.144.504 1.512h-.217l-.216.072-5.328 1.224-.431-.792-1.224-5.112-2.448-8.496"/><path fill="#A9C038" stroke="#FFF" stroke-width=".5" stroke-miterlimit="10" d="M444.093 130.391l.216-.504.143-1.08.36-.72.72-.648.504-.216.217-.145.792-.575v-.72l.359-.793.073-.071v-.072l.216-.072.576-.793.864-.791.431-.72-1.727-1.296-.72-.72-.432-.144-.72-.504-.145-.72-.792-.288-.647-.792-.216-1.224.575-.72.216-.72-.359-.72-.288-.144-.288-.576.719-.72.864-1.944v-.72l.289-.72.792-.936 7.776 2.52.071.792-.071.792-.288 1.08.071.504-.719.72-.216-.072-.432.864v2.088l.575.144.721-.216 1.512.216.215.936v2.304l.217.72.144 2.231-.073.793-.215-1.512.072-.72-.288-.649-.144.721-.289.144.289.719.144 1.153-.217.72.36.719-.287.721-.504.792-.144.864-.721.288.288.72-.504.72.361.648-.72.071-.576.721-.072.36.36.144-.36.72-.289 1.512-.503.791-.145.721-.432.576-.719.072-.073-.792.288-1.224-.288-.792h-1.511l-.72.359-1.297-1.007-.719-.361-.793-.216-1.439-1.223.144-.361-.073-.071-.431-.721.072-.215M447.261 156.814l.143 1.369-.647 1.44-.792-1.08-.072-1.512.216-.217-.144-.792.071-1.511.577-1.296.072-1.513h.719l.145-.792-.721-.504.649-.719.72-.72 1.584-.576-.217 1.08.073.72-.504 1.08-.288 1.512.071 1.44-.215.792-.072.072-.721-.504-.143.72-.361.719-.143.792M447.693 64.511l2.88-.864 11.879-3.096-.216.36.504 1.08-.431 1.512.143.792.576.72.288.72-.072.72-.575 1.08-1.296 1.44-.289.072-.72.72.074.792.431 1.512-.288 1.296.144.792-.287.72.071.792-.216.72-.433.792.145 1.152-.36.72.648 2.592v1.512l.432 2.232-.361.72v.864l.433.864.72.72-6.552 1.368-.504-.72.071-.504-1.655-7.56-1.152-1.008-.361.864-.359-.792.143-1.296-.431-1.512-.432-.72-.504-1.512v-1.512l.287-.36-.072-.72-.287-.792.072-.792-.217-.72-.719-.72-.288-.792-.072-1.728-.577-.792.145-.792-.216-.576-.144-.36"/><path fill="#A9C038" stroke="#FFF" stroke-width=".5" stroke-miterlimit="10" d="M454.965 89.927l6.552-1.368 9.576-2.232.936-1.08.432-.792.216.072.504-.792.792-.504.359-.072h.361l-.144.72.576.36.144.72.719.576.721-.144-.145-.144.721-.144-.144.792-1.44 1.008-.36.72.143.288-.647.792.36.72h-.793l.504.72.721.432.792-.432.792.144 1.439 1.368.649.792-.721-.36v.72l.721.36.72.144.719 1.44.433.288.792-.072.72.216 1.512-1.152.648-.72-.361-1.224-.647.072-.288-.792-.792-.504-.792-.144.792-.144.72.216.792.576 1.008 1.368.432 1.44-.432.792-.865.288-2.231 1.224-.288-.144-.216.792-.721.504-.791.288-.36-1.512v-.72l-.72.504-.36.72-.72.576-.432 1.224-.72-.072-.504.792-.072-.432-.361-1.08-.647-.216.215-.72v-.792l-.143.72-.576.432-.577-.36-.071-.072-.504-.504-.073-.576-.431-.216-.289-.72-.719-.504-2.88.864-.504-.072-1.008.216-4.32 1.08-.792.36-.432-.072-1.44.504h-.72l-4.969 1.08-.288-.432.072-7.2.145-.792"/><path fill="#A9C038" stroke="#FFF" stroke-width=".5" stroke-miterlimit="10" d="M455.036 98.351l4.969-1.08h.72l1.44-.504.432.072.792-.36 4.32-1.08 1.008-.216.504.072 1.656 5.904.144.792-.216.576.072.288.071.36-.431-.144-1.512.504-1.513.936-.791-.072v-.36l-.36-.144.288.576v.432l-2.305.576-.359.36h-.792l-.721.432-.792.144-1.151 1.512-.432-.288-.577.792-.791.432-1.368 1.512-.721.288-.792-.792v-.288l1.225-1.224v-.792l-.504-.792-1.513-8.424M461.517 88.559l-.72-.72-.433-.864v-.864l.361-.72-.432-2.232v-1.512l-.648-2.592.36-.72-.145-1.152.433-.792.216-.72-.071-.792.287-.72-.144-.792.288-1.296-.431-1.512-.074-.792.72-.72.289-.072 1.296-1.44.575-1.08.072-.72-.288-.72-.576-.72-.143-.792.431-1.512-.504-1.08.216-.36.073-.072-.144-.72.359-1.512v-.72l.721-.576.72.216.719-.792.145.36 5.544 16.848.863 2.232v.792l.217.72.36.72.719.648.792.36.073.72.719.792.361.144.36.216-.36 1.512v.72h-.361l-.359.072-.792.504-.504.792-.216-.072-.432.792-.936 1.08-9.576 2.232"/><path fill="#A9C038" stroke="#FFF" stroke-width=".5" stroke-miterlimit="10" d="M464.9 56.375l.577-.72.72.36.719-.288-.144-.72.144-.72.217-.072.72.288-.792-1.512.144-.144.144-.792.432-.72 1.224-1.512-.36-.576.864-1.584-.649-.72v-1.512l-.431-.72.36-2.232.649-1.08-.505-3.096 3.456-10.224.72-.144.719.072.433 1.512.864.648.863.216.721-.72.72-.288.647-.792.721-.36.576-.792.863-.36.793.216 1.511.648 1.513 1.08.648.144 3.239 9.864.937 2.52v.72l.432.72-.073.648.216.72.721-.072.792.504h.792l.72-.288.503.36-.215.792.215.72.577.72v.792l.431.792.793.648.575-.648h.577l.505.144.142.144 1.368 1.44-.935 1.224.719.648.577-.72-.216-.288.792.648-.073.72-.791 1.44-.72.504-1.153-.144.504.792-.719-.144v.504h-.073l-.647.36v.72h-.721l-.143.72-.361-.072-.647-.792-.433.864.217.72-.145.792-.215-.792-.072.792-.289-.72-.431.36.288.72-.288.72-.504-.792-1.945-.504.145.72-.721.648-.647-.72.072.72-.217.792.145.72.431.792-1.08-.432h-1.511l.359-.504.073-.792-.72.144.143-.72-.575-.72.216 1.224-1.08.648.431.72-.072.792-.215.72.071.792-.143.792.359.72-.576.864-.287.72-.793-.288-.792-.072-.287.72.071.792-.143.72-.577-.432-.215-.792.072-.72-.145.144-.072.792.36 1.44-.792-.36.217-.72-.432-.72-.288.144-.216 1.008.576.792-.288.72-1.08-2.448.072-.792-.36.72-.073.72.289-.288 1.007 2.304-.215.792-.577-1.512-.215-.072-.216.792-.361.72-.072-.72-.071.72-.361-1.368-1.152 1.584-.215.792.072.72.503.216-1.007 1.512.36.72-.576 1.368-.721.72v.72l.217.792-.288.792-.648.72-.361-.144-.719-.792-.073-.72-.792-.36-.719-.648-.36-.72-.217-.72v-.792l-.863-2.232-5.544-16.848-.145-.36"/></a></g><g id="pins"><a xlink:href="/locations/missouri/" id="pin-MO"><path fill="#8850A0" d="M313.337 130.352c-9.726 0-17.604-7.879-17.604-17.603 0-9.725 7.879-17.604 17.604-17.604 9.724 0 17.604 7.879 17.604 17.604-.002 9.724-7.88 17.603-17.604 17.603z"/><path fill="#FFF" stroke="#8850A0" stroke-miterlimit="10" d="M313.337 88.008c-12.985 0-24.746 10.524-24.746 23.513 0 12.986 10.729 28.491 24.746 50.723 14.016-22.232 24.745-37.737 24.745-50.723 0-12.989-11.756-23.513-24.745-23.513zm0 41.007c-8.983 0-16.263-7.278-16.263-16.262 0-8.982 7.279-16.262 16.263-16.262 8.984 0 16.262 7.279 16.262 16.262 0 8.984-7.279 16.262-16.262 16.262z"/><g fill="#FFF"><path d="M308.326 122.23l-1.729-11.571-.101-.776h-.15v12.348h-2.504v-18.409h3.308l1.602 8.416.126.977h.05l.125-.977 1.604-8.416h3.308v18.409h-2.506v-12.348h-.15l-.101.776-1.729 11.571h-1.153zM323.003 118.448c-.025.751-.176 1.428-.45 2.003a3.463 3.463 0 0 1-1.077 1.353c-.501.401-1.178.626-2.079.626-.9 0-1.603-.226-2.104-.626-.501-.375-.826-.852-1.052-1.353-.275-.576-.426-1.252-.451-2.003v-10.845c.025-.726.176-1.402.451-1.979.226-.501.55-1.001 1.052-1.377.501-.375 1.202-.626 2.104-.626.902 0 1.578.25 2.079.626s.852.876 1.077 1.377c.274.576.425 1.252.45 1.979v10.845zm-2.704-10.844c0-.5-.102-.852-.352-1.152a.78.78 0 0 0-.551-.201c-.477 0-.701.351-.802.676a1.925 1.925 0 0 0-.101.676v10.845c0 .526.125.876.376 1.152.125.125.3.2.524.2.478 0 .701-.301.803-.676.075-.175.101-.401.101-.676l.002-10.844z"/></g></a><a xlink:href="/locations/california/" id="pin-CA"><path fill="#F05132" d="M59.014 172.705c-9.724 0-17.604-7.88-17.604-17.605 0-9.723 7.879-17.604 17.604-17.604s17.604 7.881 17.604 17.604c0 9.725-7.88 17.605-17.604 17.605z"/><path fill="#FFF" stroke="#F05132" stroke-miterlimit="10" d="M58.817 130.382c-12.986 0-24.746 10.524-24.746 23.514 0 12.985 10.73 28.49 24.746 50.722 14.016-22.231 24.745-37.736 24.745-50.722 0-12.99-11.756-23.514-24.745-23.514zm0 41.007c-8.983 0-16.262-7.277-16.262-16.262 0-8.983 7.278-16.262 16.262-16.262 8.983 0 16.262 7.278 16.262 16.262 0 8.984-7.279 16.262-16.262 16.262z"/><g fill="#FFF"><path d="M57.839 158.292v2.53c-.025.751-.175 1.428-.451 2.004-.225.5-.576.977-1.077 1.352-.501.401-1.177.627-2.079.627s-1.603-.226-2.104-.627c-.501-.375-.827-.852-1.052-1.352-.275-.576-.425-1.253-.451-2.004v-10.844c.025-.727.176-1.403.451-1.98.226-.5.551-1.001 1.052-1.376.501-.377 1.202-.627 2.104-.627.901 0 1.578.25 2.079.627a3.51 3.51 0 0 1 1.077 1.376c.275.577.426 1.254.451 1.98v2.528H55.31v-2.528c0-.502-.125-.853-.401-1.152-.125-.126-.351-.201-.626-.201-.476 0-.701.351-.826.677-.075.2-.1.425-.125.677v10.844c.025.526.175.876.426 1.152.125.125.3.2.525.2.576 0 .802-.301.927-.677.075-.175.1-.4.1-.676v-2.53h2.529zM58.716 164.604l2.78-18.408h3.306l2.78 18.408h-2.629l-.501-3.756h-2.604l-.501 3.756h-2.631zm4.583-12.422l-.075-.477h-.15l-.075.477-.777 5.811h1.854l-.777-5.811z"/></g></a><a xlink:href="/locations/midwest/" id="pin-MW"><path fill="#A9C038" d="M370.645 121.838c-9.725 0-17.604-7.879-17.604-17.604s7.88-17.604 17.604-17.604c9.725 0 17.604 7.879 17.604 17.604s-7.881 17.604-17.604 17.604z"/><path fill="#FFF" stroke="#AAC138" stroke-miterlimit="10" d="M370.62 79.216c-12.985 0-24.744 10.524-24.744 23.513 0 12.986 10.729 28.491 24.744 50.723 14.016-22.232 24.744-37.737 24.744-50.723 0-12.989-11.755-23.513-24.744-23.513zm0 41.007c-8.982 0-16.261-7.278-16.261-16.262 0-8.982 7.277-16.262 16.261-16.262 8.982 0 16.263 7.279 16.263 16.262 0 8.984-7.279 16.262-16.263 16.262z"/><g fill="#FFF"><path d="M363.707 113.438l-1.729-11.571-.101-.776h-.151v12.347h-2.504V95.03h3.308l1.603 8.416.126.977h.05l.124-.977 1.604-8.416h3.306v18.408h-2.505v-12.347h-.148l-.102.776-1.729 11.571h-1.152zM375.228 113.438h-2.104l-2.479-18.408h2.506l1.076 9.567.05.601h.2l.075-.601 1.152-9.567h1.953l1.151 9.567.074.601h.2l.05-.601 1.078-9.567h2.504l-2.479 18.408h-2.104l-1.253-8.715-.148-1.077h-.102l-.149 1.077-1.251 8.715z"/></g></a><a xlink:href="/locations/texas/" id="pin-TX"><path fill="#FEC42A" d="M257.32 204.646c-9.724 0-17.604-7.879-17.604-17.604 0-9.724 7.88-17.603 17.604-17.603 9.726 0 17.604 7.879 17.604 17.603.001 9.726-7.878 17.604-17.604 17.604z"/><path fill="#FFF" stroke="#FEC42A" stroke-miterlimit="10" d="M257.32 162.024c-12.985 0-24.745 10.524-24.745 23.513 0 12.986 10.73 28.49 24.745 50.724 14.017-22.233 24.746-37.737 24.746-50.724 0-12.988-11.755-23.513-24.746-23.513zm0 41.007c-8.983 0-16.261-7.278-16.261-16.262 0-8.982 7.278-16.264 16.261-16.264 8.982 0 16.263 7.28 16.263 16.264s-7.278 16.262-16.263 16.262z"/><g fill="#02466B"><path d="M248.905 180.618v-2.78h7.814v2.78h-2.555v15.628h-2.706v-15.628h-2.553zM259.625 196.246h-2.656l2.981-9.667-2.931-8.741h2.654l1.479 4.658.074.227h.101l.075-.227 1.479-4.658h2.654l-2.93 8.741 2.979 9.667h-2.655l-1.553-5.484-.05-.226h-.101l-.049.226-1.551 5.484z"/></g></a><a xlink:href="/locations/southeast/" id="pin-SE"><path fill="#03456A" d="M396.807 170.581c-9.725 0-17.604-7.879-17.604-17.603 0-9.726 7.879-17.604 17.604-17.604 9.726 0 17.604 7.879 17.604 17.604-.001 9.724-7.88 17.603-17.604 17.603z"/><path fill="#FFF" stroke="#02466B" stroke-miterlimit="10" d="M396.808 127.96c-12.985 0-24.745 10.523-24.745 23.514 0 12.985 10.729 28.489 24.745 50.721 14.017-22.231 24.744-37.735 24.744-50.721 0-12.99-11.756-23.514-24.744-23.514zm0 41.007c-8.982 0-16.263-7.278-16.263-16.262s7.279-16.262 16.263-16.262c8.982 0 16.263 7.278 16.263 16.262s-7.281 16.262-16.263 16.262z"/><g fill="#FFF"><path d="M394.151 148.708c0-.601-.025-1.277-.2-1.804-.176-.5-.451-.852-.877-.852-.7.025-.926.752-.926 1.828 0 .627.274 1.277.676 1.979.4.7.927 1.427 1.453 2.204.626.926 1.252 1.878 1.728 2.805.477.926.802 1.879.802 2.88 0 1.228-.2 2.38-.775 3.23-.577.852-1.503 1.402-2.98 1.402-1.728 0-2.705-.65-3.256-1.652-.551-1.001-.677-2.329-.677-3.707l2.656-.251c0 .777.023 1.554.225 2.13.176.601.475 1.002 1.053 1.002.801 0 1.103-.852 1.103-2.029 0-.601-.302-1.302-.7-2.028-.227-.351-.452-.727-.702-1.102a90.695 90.695 0 0 1-1.703-2.53c-.601-.926-1.052-1.878-1.327-2.854a4.973 4.973 0 0 1-.226-1.479c0-1.001.226-2.078.801-2.905.576-.802 1.452-1.377 2.73-1.402 1.627-.024 2.58.651 3.104 1.628.525 1.002.677 2.229.677 3.257l-2.659.25zM398.259 143.773h6.188v2.779h-3.481v4.835h2.504v2.955h-2.504v5.06h3.481v2.779h-6.188v-18.408z"/></g></a></g></svg>